<svg width="16" height="16" viewBox="0 0 16 16" fill="none" xmlns="http://www.w3.org/2000/svg">
<path d="M2.3335 8C2.3335 4.87039 4.87055 2.33333 8.00016 2.33333C11.1298 2.33333 13.6668 4.87039 13.6668 8C13.6668 11.1296 11.1298 13.6667 8.00016 13.6667C4.87055 13.6667 2.3335 11.1296 2.3335 8ZM8.00016 1.33333C4.31826 1.33333 1.3335 4.3181 1.3335 8C1.3335 11.6819 4.31826 14.6667 8.00016 14.6667C11.6821 14.6667 14.6668 11.6819 14.6668 8C14.6668 4.3181 11.6821 1.33333 8.00016 1.33333ZM7.9956 4.43218C7.96247 4.18822 7.75316 4 7.50016 4C7.22416 4 7.00016 4.224 7.00016 4.5V8.5L7.00473 8.56782C7.03786 8.81178 7.24716 9 7.50016 9H10.1668L10.2346 8.99543C10.4786 8.96231 10.6668 8.753 10.6668 8.5C10.6668 8.224 10.4428 8 10.1668 8H8.00016V4.5L7.9956 4.43218Z" fill="#1D77FF"/>
</svg>
