<svg width="16" height="16" viewBox="0 0 16 16" fill="none" xmlns="http://www.w3.org/2000/svg">
<path d="M2.33334 8C2.33334 4.87039 4.8704 2.33334 8.00001 2.33334C11.1296 2.33334 13.6667 4.87039 13.6667 8C13.6667 11.1296 11.1296 13.6667 8.00001 13.6667C4.8704 13.6667 2.33334 11.1296 2.33334 8ZM8.00001 1.33334C4.31811 1.33334 1.33334 4.3181 1.33334 8C1.33334 11.6819 4.31811 14.6667 8.00001 14.6667C11.6819 14.6667 14.6667 11.6819 14.6667 8C14.6667 4.3181 11.6819 1.33334 8.00001 1.33334ZM7.99544 4.43219C7.96232 4.18822 7.75301 4 7.50001 4C7.22401 4 7.00001 4.224 7.00001 4.5V8.5L7.00458 8.56782C7.0377 8.81178 7.24701 9 7.50001 9H10.1667L10.2345 8.99544C10.4785 8.96231 10.6667 8.753 10.6667 8.5C10.6667 8.224 10.4427 8 10.1667 8H8.00001V4.5L7.99544 4.43219Z" fill="#29FA63"/>
</svg>
