<svg width="29" height="26" viewBox="0 0 29 26" fill="none" xmlns="http://www.w3.org/2000/svg">
<path d="M20.5971 9.25L16.6713 10.9199L13.9174 20.5L14.9721 25.1875C15.2431 25.1875 15.4995 25.0712 15.677 24.8671L28.802 9.86706C28.9552 9.69206 29.0067 9.47294 29.0067 9.25L24.142 4.91406L20.5971 9.25Z" fill="#1689FC"/>
<path d="M11.7494 10.8027L9.34706 9.24999L6.62244 7.65262H2.53488L0.9375 9.24999C0.9375 9.47293 0.989 9.69205 1.14213 9.86705L14.2671 24.8671C14.4447 25.0712 14.7011 25.1875 14.9721 25.1875L11.7494 10.8027Z" fill="#17ACE8"/>
<path d="M19.1908 8.3125L10.9584 8.34181L9.34705 9.25L14.972 25.1875L20.597 9.25L19.1908 8.3125Z" fill="#81C8EE"/>
<path d="M19.1908 8.3125L14.972 8.3275V25.1875L20.597 9.25L19.1908 8.3125Z" fill="#4DBBEB"/>
<path d="M7.15798 1.6287L5.19255 0.929138C5.0138 1.0182 4.85723 1.14533 4.7643 1.3307L1.0143 8.8307C0.947922 8.96333 0.943359 9.10789 0.943359 9.25001H9.35292L9.76105 7.45214L7.15798 1.6287Z" fill="#81C8EE"/>
<path d="M19.5272 0.8125H14.972H10.0639L9.34705 9.25H20.597L19.5272 0.8125Z" fill="#E1E1E4"/>
<path d="M20.597 9.25L19.5272 0.8125H14.972V9.25H20.597Z" fill="#D9D8DB"/>
<path d="M29.0066 9.25001C29.0066 9.10789 29.002 8.96333 28.9357 8.8307L25.1857 1.3307C25.0927 1.14533 24.9362 1.01814 24.7577 0.929138L20.597 9.25001H29.0066Z" fill="#4DBBEB"/>
<path d="M14.9721 0.8125H5.59708C5.44921 0.8125 5.31421 0.865625 5.18671 0.929125L9.34708 9.25L14.9721 0.8125Z" fill="#17ACE8"/>
<path d="M24.7577 0.929125C24.6299 0.865625 24.4949 0.8125 24.347 0.8125H14.972L20.597 9.25L24.7577 0.929125Z" fill="#1689FC"/>
</svg>
