<svg width="24" height="24" viewBox="0 0 24 24" fill="none" xmlns="http://www.w3.org/2000/svg">
<path d="M3.21387 4.16272C3.92859 3.10295 4.28595 2.57307 4.81616 2.28653C5.34637 2 5.96953 2 7.21585 2H12H16.7842C18.0305 2 18.6537 2 19.1838 2.28653C19.7141 2.57307 20.0715 3.10295 20.7861 4.16272L21.5155 5.24412C22.5205 6.7344 23.023 7.47955 22.9992 8.31958C22.9754 9.15961 22.4314 9.8727 21.3435 11.299L14.9005 19.7464C14.005 20.9206 13.5571 21.5078 13.0347 21.7613C12.379 22.0796 11.621 22.0796 10.9654 21.7613C10.4429 21.5078 9.99506 20.9206 9.09951 19.7464L2.65645 11.299C1.56859 9.8727 1.02466 9.15961 1.00081 8.31958C0.976971 7.47955 1.4795 6.7344 2.48456 5.24412L3.21387 4.16272Z" stroke="#1D77FF" stroke-width="1.5" stroke-linejoin="round"/>
<path d="M9 7.5L8.5 8.25C8.20344 8.69484 8.23479 9.28176 8.57706 9.69247L10.5 12" stroke="#1D77FF" stroke-width="1.5" stroke-linecap="round" stroke-linejoin="round"/>
</svg>
