<svg width="16" height="16" viewBox="0 0 16 16" fill="none" xmlns="http://www.w3.org/2000/svg">
<path d="M7.92225 2.00449L8 2C8.34189 2 8.62367 2.25736 8.66218 2.58892L8.66667 2.66667V7.33333H13.3333C13.6752 7.33333 13.957 7.59069 13.9955 7.92225L14 8C14 8.34189 13.7426 8.62367 13.4111 8.66218L13.3333 8.66667H8.66667V13.3333C8.66667 13.6752 8.40931 13.957 8.07775 13.9955L8 14C7.65811 14 7.37633 13.7426 7.33782 13.4111L7.33333 13.3333V8.66667H2.66667C2.32478 8.66667 2.043 8.40931 2.00449 8.07775L2 8C2 7.65811 2.25736 7.37633 2.58892 7.33782L2.66667 7.33333H7.33333V2.66667C7.33333 2.32478 7.59069 2.043 7.92225 2.00449L8 2L7.92225 2.00449Z" fill="white"/>
</svg>
