<svg width="16" height="16" viewBox="0 0 16 16" fill="none" xmlns="http://www.w3.org/2000/svg">
<path d="M2.80655 2.92474L2.86201 2.86193C3.10233 2.62161 3.48049 2.60312 3.74201 2.80647L3.80482 2.86193L8.00008 7.05667L12.1953 2.86193C12.4557 2.60158 12.8778 2.60158 13.1382 2.86193C13.3985 3.12228 13.3985 3.54439 13.1382 3.80474L8.94341 8L13.1382 12.1953C13.3785 12.4356 13.397 12.8137 13.1936 13.0753L13.1382 13.1381C12.8978 13.3784 12.5197 13.3969 12.2581 13.1935L12.1953 13.1381L8.00008 8.94333L3.80482 13.1381C3.54447 13.3984 3.12236 13.3984 2.86201 13.1381C2.60166 12.8777 2.60166 12.4556 2.86201 12.1953L7.05675 8L2.86201 3.80474C2.62169 3.56442 2.6032 3.18626 2.80655 2.92474L2.86201 2.86193L2.80655 2.92474Z" fill="white"/>
</svg>
