<svg width="24" height="24" viewBox="0 0 24 24" fill="none" xmlns="http://www.w3.org/2000/svg">
<path d="M21 7.5V16C21 19 19.5 21 16 21H8C4.5 21 3 19 3 16V7.5C3 4.5 4.5 2.5 8 2.5H16C19.5 2.5 21 4.5 21 7.5Z" stroke="#1D77FF" stroke-width="1.5" stroke-miterlimit="10" stroke-linecap="round" stroke-linejoin="round"/>
<path d="M10 9.64117C10 8.55173 10.8992 7.95203 12.245 8.003C13.2163 8.03671 13.9885 8.82994 13.9965 9.80209C14.0435 10.7112 13.6129 11.5788 12.8605 12.091C12.2211 12.5008 11.8831 13.2491 11.9983 14" stroke="#1D77FF" stroke-width="1.5" stroke-linecap="round" stroke-linejoin="round"/>
<path d="M12 15C12.5523 15 13 15.4477 13 16C13 16.5523 12.5523 17 12 17C11.4477 17 11 16.5523 11 16C11 15.4477 11.4477 15 12 15Z" fill="#1D77FF"/>
</svg>
