<svg width="24" height="24" viewBox="0 0 24 24" fill="none" xmlns="http://www.w3.org/2000/svg">
<path fill-rule="evenodd" clip-rule="evenodd" d="M15.9577 3H8.04275C7.56681 2.99998 7.14486 2.99996 6.78956 3.0324C6.40414 3.0676 6.02819 3.14535 5.65611 3.33907C5.28404 3.53279 5.00475 3.7962 4.7549 4.09176C4.52456 4.36424 4.28263 4.70989 4.0097 5.09982L3.9867 5.13269L3.38952 5.9858L3.3587 6.02983C2.97356 6.57997 2.63647 7.06146 2.40531 7.48985C2.15555 7.9527 1.97743 8.44362 1.99426 9.01492C2.01109 9.58621 2.21781 10.0658 2.49439 10.5131C2.75038 10.9272 3.11523 11.388 3.5321 11.9145L8.8643 18.6499C9.21121 19.0882 9.50615 19.4607 9.76884 19.7453C10.0413 20.0406 10.3439 20.3151 10.7293 20.4954C11.5347 20.872 12.4657 20.872 13.2711 20.4954C13.6565 20.3151 13.9591 20.0406 14.2316 19.7453C14.4943 19.4607 14.7892 19.0882 15.1361 18.6499L20.4683 11.9145C20.8851 11.388 21.2501 10.9272 21.506 10.5131C21.7826 10.0658 21.9893 9.58621 22.0062 9.01492C22.023 8.44362 21.8449 7.9527 21.5951 7.48985C21.364 7.06146 21.0269 6.57997 20.6417 6.02983L19.9907 5.09985C19.7178 4.7099 19.4759 4.36424 19.2455 4.09176C18.9957 3.7962 18.7164 3.53279 18.3443 3.33907C17.9722 3.14535 17.5963 3.0676 17.2109 3.0324C16.8556 2.99996 16.4337 2.99998 15.9577 3ZM9.83229 8.0547C10.1386 7.59517 10.0144 6.9743 9.55494 6.66795C9.09541 6.3616 8.47454 6.48577 8.16819 6.9453L7.66819 7.6953C7.12597 8.50863 7.1833 9.58172 7.80908 10.3327L9.73202 12.6402C10.0855 13.0645 10.7161 13.1218 11.1404 12.7682C11.5647 12.4147 11.622 11.7841 11.2684 11.3598L9.34552 9.05229C9.28677 8.98179 9.28139 8.88105 9.33229 8.8047L9.83229 8.0547Z" fill="#1D77FF"/>
</svg>
