<svg width="32" height="32" viewBox="0 0 32 32" fill="none" xmlns="http://www.w3.org/2000/svg">
<path d="M15.033 2.6697C8.45299 2.5197 1.19549 7.9772 1.33549 16.8172C1.45799 24.5897 7.29799 30.4722 14.8655 30.5947C22.433 30.7172 29.138 25.7147 29.178 16.7772C29.2205 7.7697 22.2705 2.8347 15.033 2.6697Z" fill="#FF3E3D"/>
<path d="M15.0533 5.82505C9.83325 6.00255 4.56575 9.89755 4.44325 16.7651C4.32075 23.6326 10.3233 27.4576 15.0533 27.4576C21.0583 27.4576 26.0758 22.7276 25.9508 16.4351C25.8283 10.1451 21.0983 5.62005 15.0533 5.82505Z" fill="#FFFDFE"/>
<path d="M15.1757 8.50008C10.4457 8.39258 6.95068 12.5726 6.90818 16.5601C6.86818 20.6326 9.41568 24.7851 15.0932 24.9901C20.7707 25.1951 23.4407 20.6726 23.5232 16.8476C23.6082 13.0226 20.5632 8.62258 15.1757 8.50008Z" fill="#FF3E3D"/>
<path d="M9.76902 16.7101C9.72902 20.2876 12.2765 22.3451 15.3615 22.3451C18.164 22.3451 20.914 20.5776 20.914 16.8351C20.914 13.4626 18.364 11.4476 15.5265 11.3251C12.689 11.2001 9.80902 13.2576 9.76902 16.7101Z" fill="white"/>
<path d="M12.2984 16.6825C12.1459 18.815 13.8809 19.835 15.4434 19.835C16.9234 19.835 18.3834 18.8625 18.4259 16.8875C18.4634 15.0325 17.0084 13.9 15.4434 13.845C13.8284 13.79 12.4209 14.95 12.2984 16.6825Z" fill="#FF3E3D"/>
<path d="M15.9586 16.8496L15.1211 17.3146L16.7186 19.5871C16.7186 19.5871 17.9536 19.6821 18.2386 19.3596C18.5236 19.0371 18.2011 18.0871 18.2011 18.0871L15.9586 16.8496Z" fill="#D5232D"/>
<path d="M21.1291 14.3797C20.9041 13.9147 20.6741 13.5422 20.0641 13.6572C19.4566 13.7722 18.3341 14.4172 18.1241 14.7222C17.9316 15.0022 17.7441 15.3497 17.7441 15.3497C17.7441 15.3497 15.5941 16.5247 15.2541 16.7172C14.7216 17.0222 15.0891 17.6422 15.4641 17.5722C15.9766 17.4772 18.2666 16.5447 18.2666 16.5447C18.2666 16.5447 18.7516 16.6597 19.0366 16.6597C19.3216 16.6597 20.9466 15.8572 21.1666 15.7097C21.5291 15.4622 21.3566 14.8547 21.1291 14.3797Z" fill="#91BDFF"/>
<path d="M18.1939 18.082C18.1939 18.082 18.0739 18.507 17.6364 18.947C17.1814 19.402 16.7139 19.582 16.7139 19.582L18.1564 21.697C18.1564 21.697 19.2289 21.7745 20.0089 21.0145C20.7889 20.2545 20.4489 19.2595 20.4489 19.2595L18.1939 18.082Z" fill="#C8C8C8"/>
<path d="M19.6238 23.9197L18.1538 21.6947C18.1538 21.6947 18.3988 21.5647 18.7213 21.3447C19.3138 20.9397 19.6438 20.6172 20.0663 19.9572C20.2963 19.6022 20.4438 19.2572 20.4438 19.2572L22.7163 20.3797C22.7163 20.3797 22.6663 22.1347 21.9238 22.9897C21.1813 23.8447 19.6238 23.9197 19.6238 23.9197Z" fill="#D5232D"/>
<path d="M19.624 23.9202L20.8865 25.8127C20.8865 25.8127 22.534 25.9752 23.884 24.3577C25.234 22.7402 24.874 21.4102 24.874 21.4102L22.7165 20.3777C22.7165 20.3777 22.2965 21.3877 21.4615 22.3577C20.6265 23.3277 19.624 23.9202 19.624 23.9202Z" fill="#C8C8C8"/>
<path d="M22.7557 28.6098L20.8882 25.8148C20.8882 25.8148 22.2957 24.9923 23.2957 23.8098C24.3332 22.5823 24.8757 21.4148 24.8757 21.4148L27.8982 22.9173C27.8982 22.9173 27.2182 24.6748 25.7107 26.2623C24.2357 27.8098 22.7557 28.6098 22.7557 28.6098Z" fill="#D5232D"/>
<path d="M19.6763 15.1201C19.9588 15.6476 20.4263 15.6526 20.9213 15.4426C21.4163 15.2326 23.7538 13.5801 23.7538 13.5801C23.7538 13.5801 26.9288 15.1776 28.9813 14.3776C31.0338 13.5801 30.9763 11.4126 30.9763 11.4126L29.7613 10.6426C29.7613 10.6426 30.6463 10.1826 30.9313 10.0126C31.0713 9.92758 31.2788 9.61258 31.1638 9.33008C31.0738 9.11008 30.7288 9.03508 30.4438 9.15008C30.1588 9.26508 29.3363 9.52258 29.3363 9.52258C29.3363 9.52258 29.6638 8.16008 29.6063 8.08508C29.5488 8.01008 28.9588 7.70508 28.9588 7.70508C28.9588 7.70508 27.0388 7.70508 26.7913 7.80008C26.5438 7.89508 24.6438 9.77758 24.6438 9.77758L23.7313 11.6401L23.3413 12.4701C23.3413 12.4701 20.6788 13.6626 20.2788 13.8326C19.8813 14.0051 19.3288 14.4776 19.6763 15.1201Z" fill="#297FFF"/>
<path d="M23.9089 12.2398C23.9089 12.2398 25.0289 11.4298 25.8264 11.0298C26.6239 10.6298 28.1039 10.1423 28.5414 10.0898C28.9789 10.0373 29.1589 10.1548 29.2364 10.3598C29.3139 10.5648 29.0564 10.8223 28.8364 10.9398C28.6189 11.0548 27.4589 11.5823 26.1739 12.2648C24.8889 12.9473 24.2789 13.4473 23.7589 13.5648C23.4964 13.6248 23.1589 13.3898 23.1389 12.9973C23.1239 12.6923 23.1839 12.4373 23.3839 11.8523C23.6289 11.1323 24.1664 10.0498 24.6189 9.34477C25.2889 8.30227 26.2539 7.59477 27.3214 7.40227C28.3889 7.20977 29.2639 7.47977 29.4839 7.65977C29.7014 7.83977 29.6889 8.02477 29.6114 8.08727C29.5339 8.14977 29.4189 8.19977 28.8389 7.99477C28.4364 7.85227 27.1539 7.85227 26.2539 8.52227C25.3439 9.19727 25.1214 9.61477 24.7239 10.3498C24.3264 11.0848 23.9089 12.2398 23.9089 12.2398Z" fill="#589BFF"/>
</svg>
