<svg width="24" height="25" viewBox="0 0 24 25" fill="none" xmlns="http://www.w3.org/2000/svg">
<path d="M3.99951 12.2256C3.99951 11.8459 4.28167 11.5321 4.64774 11.4824L4.74951 11.4756H19.7495C20.1637 11.4756 20.4995 11.8114 20.4995 12.2256C20.4995 12.6053 20.2174 12.9191 19.8513 12.9687L19.7495 12.9756L4.74951 12.9756C4.3353 12.9756 3.99951 12.6398 3.99951 12.2256Z" fill="#1D77FF"/>
<path d="M13.171 6.73271C12.8775 6.44045 12.8765 5.96558 13.1687 5.67206C13.4344 5.40522 13.851 5.38011 14.1451 5.59733L14.2294 5.66977L20.2794 11.6938C20.547 11.9603 20.5714 12.3784 20.3524 12.6724L20.2794 12.7567L14.2294 18.7817C13.9359 19.074 13.4611 19.073 13.1688 18.7795C12.9031 18.5127 12.8797 18.0959 13.0982 17.8028L13.171 17.7188L18.687 12.2249L13.171 6.73271Z" fill="#1D77FF"/>
</svg>
