<svg width="66" height="68" viewBox="0 0 66 68" fill="none" xmlns="http://www.w3.org/2000/svg">
<g clip-path="url(#clip0_327_2771)">
<path d="M60.3737 23.3898C58.161 31.7961 56.5649 41.1796 52.7492 48.8444C50.4543 53.453 45.5289 57.2022 41.6927 60.5703C38.8772 63.0443 35.9931 65.4491 33.0338 67.7499C26.3409 62.5939 18.3534 56.8903 13.6814 49.7176C13.4896 49.4127 13.3183 49.1216 13.1882 48.8513C9.40677 41.0757 7.76953 31.7892 5.5637 23.3968C5.36504 20.6871 5.82402 17.9011 6.3926 15.2607C24.1625 14.6647 41.9324 14.6647 59.7024 15.2607C60.1956 17.915 60.5861 20.6871 60.3805 23.3898H60.3737Z" fill="url(#paint0_linear_327_2771)"/>
<g style="mix-blend-mode:multiply" opacity="0.5">
<path d="M60.3739 23.3898C58.1613 31.7961 56.5035 40.9925 52.7495 48.8444C52.6535 43.03 54.6333 36.6888 55.8595 31.0615C57.0172 25.7669 58.2914 20.493 59.6958 15.2538C60.189 17.908 60.5795 20.6801 60.3739 23.3829V23.3898Z" fill="#B8038B"/>
</g>
<g style="mix-blend-mode:multiply" opacity="0.5">
<path d="M33.026 67.75C32.752 67.6252 32.5191 60.6535 34.1906 58.6091C36.3553 55.9617 40.5752 53.9312 43.7812 52.0392C45.1992 51.2007 52.303 47.4237 52.6456 48.4841C52.9538 49.4266 50.015 52.7115 48.8367 53.952C46.7268 56.1627 44.1579 58.3596 41.8904 60.404C38.7324 63.2454 33.0329 67.7569 33.0329 67.7569L33.026 67.75Z" fill="#B8038B"/>
</g>
<g style="mix-blend-mode:multiply" opacity="0.5">
<path d="M13.6746 49.7176C13.4828 49.4126 13.3115 49.1216 13.1814 48.8513C9.39994 41.0756 7.76269 31.7892 5.55687 23.3967C5.35821 20.687 5.81718 17.9011 6.38577 15.2607C7.33112 15.226 7.8038 15.2122 8.7423 15.1844C10.085 26.6262 10.8043 38.553 13.6746 49.7245V49.7176Z" fill="#C10065"/>
</g>
<path d="M54.3649 16.9101C52.5495 15.2815 50.6794 13.7916 48.6928 12.3847C44.2332 9.48791 39.5132 7.15244 34.4234 5.64166C33.9781 5.50998 33.5808 5.3991 33.2383 5.30901C33.1629 5.28822 33.1287 5.28129 33.0533 5.2605C32.978 5.28129 32.9437 5.28822 32.8684 5.30901C24.9973 7.38113 17.7906 11.463 11.728 16.9101C11.6321 17.0002 11.5842 17.0487 11.4883 17.1388C11.502 17.2705 11.5157 17.3398 11.5294 17.4784C11.5705 17.8041 11.6184 18.1576 11.6664 18.5318C12.0774 21.6573 12.5364 24.7967 13.0639 27.8945C14.0298 33.5426 14.8381 40.2441 17.7427 45.3516C17.7427 45.3585 17.7495 45.3655 17.7564 45.3724C17.7564 45.3793 17.7632 45.3863 17.7701 45.3932C19.9622 48.2207 23.36 50.2998 26.2166 52.3164C27.2579 53.051 28.2991 53.751 29.2582 54.3955C30.4091 55.1648 31.5668 55.9201 32.7382 56.6617C32.8615 56.7379 32.9232 56.7795 33.0465 56.8557C33.1698 56.7795 33.2314 56.7379 33.3547 56.6617C33.4027 56.634 33.4506 56.5993 33.4986 56.5716C35.6291 55.1925 37.8006 53.7787 39.8763 52.3164C42.7329 50.3136 46.1239 48.2276 48.3228 45.3932C48.3228 45.3863 48.3297 45.3793 48.3366 45.3724C48.3366 45.3655 48.3434 45.3585 48.3503 45.3516C51.2548 40.2371 52.07 33.5495 53.0359 27.8945C53.5086 25.1501 53.9265 22.3711 54.2964 19.599C54.3991 18.8159 54.4951 18.1021 54.5773 17.4784C54.5978 17.3467 54.6047 17.2774 54.6184 17.1388C54.5225 17.0487 54.4745 17.0002 54.3786 16.9101H54.3649ZM50.3985 27.548C49.5354 32.8496 48.8024 38.9758 46.2677 43.8408C44.103 46.2803 41.1847 48.1514 38.561 49.974C36.7525 51.2284 34.9029 52.462 33.0396 53.654C31.1763 52.462 29.3199 51.2353 27.5182 49.974C24.8945 48.1445 21.9899 46.2595 19.8115 43.8408C17.27 38.962 16.5507 32.8704 15.6807 27.548C15.1806 24.4848 14.7491 21.3801 14.3791 18.2823C19.8458 13.6183 26.1413 10.0839 33.0465 8.14346C39.9517 10.0839 46.2472 13.6183 51.7138 18.2823C51.337 21.3801 50.9054 24.4848 50.4054 27.548H50.3985Z" fill="url(#paint1_linear_327_2771)"/>
<path d="M51.7008 18.2823C51.3241 21.3801 50.8925 24.4848 50.3924 27.548C49.5293 32.8496 48.7963 38.9759 46.2616 43.8408C44.2545 46.8416 41.4116 49.1702 38.5412 51.2007C36.7601 52.462 34.89 53.6886 33.0335 54.8806C31.1771 53.6886 29.3069 52.462 27.5258 51.2007C24.6555 49.1702 21.8126 46.8485 19.8054 43.8408C17.5174 39.4402 16.8118 34.0277 15.9555 29.2251C15.8664 28.6845 15.7705 28.1232 15.6746 27.548C15.1814 24.4779 14.743 21.3801 14.373 18.2823C15.4417 17.319 16.5789 16.3904 17.7434 15.5726C21.7715 12.7174 26.2174 10.3681 30.9304 8.80183C31.7319 8.53155 32.4512 8.31672 33.0472 8.15039C35.3558 8.80876 37.6027 9.65424 39.7743 10.6175C44.1038 12.5303 48.077 15.1845 51.7145 18.2962L51.7008 18.2823Z" fill="url(#paint2_linear_327_2771)"/>
<g style="mix-blend-mode:multiply" opacity="0.5">
<path d="M53.8804 17.4231C53.0104 17.7696 52.572 17.9428 51.7088 18.2893C46.2422 13.6253 39.9536 10.084 33.0415 8.15048C33.0415 7.2842 33.0415 6.85453 33.0415 5.98826C33.5895 5.84966 33.8636 5.78729 34.4184 5.64868C39.5083 7.16639 44.2282 9.50186 48.6878 12.3918C50.4278 14.055 52.161 15.7321 53.8736 17.4231H53.8804Z" fill="#B8038B"/>
</g>
<path d="M54.2826 19.5921C53.9127 22.3642 53.488 25.1432 53.0222 27.8875C52.0563 33.5426 51.2411 40.2302 48.3365 45.3447C48.3365 45.3516 48.3296 45.3585 48.3228 45.3654C48.3228 45.3724 48.3159 45.3793 48.3091 45.3862C46.117 48.2207 42.726 50.3067 39.8626 52.3095C37.78 53.7648 35.6359 55.1855 33.4848 56.5646C33.3067 56.3637 33.2177 56.2597 33.0327 56.0518C33.0327 55.5805 33.0327 55.3518 33.0327 54.8806C34.8892 53.6886 36.7593 52.462 38.5404 51.2007C41.4107 49.1701 44.2605 46.8485 46.2608 43.8408C48.7955 38.9758 49.5285 32.8565 50.3916 27.5479C50.8917 24.4848 51.3233 21.3801 51.7 18.2823C52.5632 17.9358 53.0016 17.7625 53.8716 17.416C54.036 18.2823 54.1182 18.7189 54.2758 19.5921H54.2826Z" fill="url(#paint3_linear_327_2771)"/>
<path d="M59.6828 15.2467C59.2512 14.7755 58.7785 14.3181 58.3127 13.8746C58.251 13.8122 58.1825 13.7498 58.114 13.6874C55.9973 11.7054 53.6407 9.959 51.25 8.32348C51.25 8.32348 50.4553 8.13636 49.2702 7.37404C48.1193 6.63251 47.7357 6.20284 47.7083 6.17512C43.4062 3.86737 38.9261 1.8784 34.261 0.58246C34.2267 0.57553 34.1856 0.56167 34.1514 0.55474C33.6239 0.409206 33.2608 0.312183 33.117 0.277532C33.1033 0.277532 33.0896 0.270602 33.0759 0.270602C33.069 0.270602 33.0553 0.270602 33.0484 0.263672C33.0484 0.263672 33.0485 0.263672 33.0347 0.263672C33.021 0.263672 33.0142 0.263672 33.0005 0.270602C23.4236 2.65459 13.8262 7.66511 6.87995 14.7547C6.71554 14.921 6.55113 15.0943 6.38672 15.2675C6.38672 15.3091 6.39357 15.3299 6.40042 15.3784C6.43467 15.6487 6.53743 16.4249 6.69499 17.5614C6.69499 17.5683 6.69499 17.5753 6.69499 17.5891C7.40058 22.5858 8.22947 27.5686 9.25018 32.5098C10.312 37.6243 11.3396 43.4249 14.0592 47.8325C16.3403 51.5332 21.0877 54.3053 24.6019 56.7863C27.3626 58.7336 30.1713 60.6186 33.0279 62.4136C35.8914 60.6186 38.6932 58.7336 41.4607 56.7863C44.9681 54.3122 49.7292 51.5262 52.0035 47.8325C54.7231 43.4179 55.7506 37.6312 56.8193 32.5098C57.8469 27.5686 58.6758 22.5858 59.3882 17.5961C59.3882 17.5891 59.3882 17.5822 59.3882 17.5683C59.5526 16.4318 59.6485 15.6625 59.6828 15.3853C59.6828 15.3438 59.6896 15.323 59.6965 15.2745C59.6965 15.2745 59.6965 15.2745 59.6828 15.2606V15.2467ZM52.3666 27.8042C51.4281 33.3553 50.654 39.9667 47.8042 44.998C45.6052 47.7285 42.3444 49.766 39.5358 51.7272C37.4121 53.2103 35.2269 54.6518 33.0347 56.0517C30.8358 54.6587 28.6573 53.2103 26.5337 51.7272C23.7456 49.7798 20.4506 47.7216 18.2653 44.998C15.4155 39.9736 14.6483 33.3553 13.7098 27.8042C13.1275 24.3738 12.6343 20.8948 12.2027 17.4159C18.1762 12.0519 25.2938 8.02548 33.0416 5.98107C40.7962 8.03934 47.9001 12.0519 53.8805 17.4228C53.4489 20.8948 52.9488 24.3738 52.3666 27.8042Z" fill="url(#paint4_linear_327_2771)"/>
<g style="mix-blend-mode:soft-light" opacity="0.5">
<path d="M59.2023 15.2815C58.6269 13.2857 52.2286 9.37703 48.7144 7.20788C44.0287 4.33185 35.3972 0.249976 33.2188 0.561834C33.1708 0.568764 33.0064 0.568764 32.9585 0.561834C30.78 0.249976 22.0252 3.86753 17.3464 6.75049C13.8322 8.91271 7.5572 13.2926 6.97491 15.2815C6.49539 16.9379 7.52294 22.2464 8.02302 22.2533C8.48885 22.2533 10.8043 21.4563 12.0579 20.8049C12.3525 20.6524 11.8181 17.7626 12.2018 17.416C19.2919 10.9017 26.5465 7.90783 32.2392 5.98124C32.9653 5.73868 33.2051 5.81491 33.4448 5.91194C37.9181 7.63755 43.6588 8.76024 53.9823 17.423C54.3796 17.7556 53.8316 20.6594 54.1262 20.8118C55.3798 21.4633 57.6952 22.2602 58.1611 22.2602C58.6611 22.2602 59.6887 16.9448 59.2092 15.2885L59.2023 15.2815Z" fill="white"/>
</g>
<g style="mix-blend-mode:soft-light" opacity="0.5">
<path d="M14.373 18.2823C14.7498 21.3801 15.1814 24.4848 15.6815 27.548C16.5446 32.8496 17.2776 38.9759 19.8123 43.8408C21.8194 46.8416 24.6623 49.1702 27.5327 51.2007C29.3138 52.462 31.1839 53.6886 33.0404 54.8806C32.9993 47.098 32.965 39.3154 33.0404 31.5328C33.1089 23.7433 33.2596 15.933 33.0404 8.15039C26.1352 10.0908 19.8397 13.6252 14.373 18.2893V18.2823Z" fill="#FFFB8C"/>
</g>
<g style="mix-blend-mode:multiply" opacity="0.3">
<path d="M51.7008 18.2823C51.3241 21.3801 50.8925 24.4848 50.3924 27.548C49.5293 32.8496 48.7963 38.9758 46.2616 43.8408C44.2545 46.8416 41.4116 49.1701 38.5412 51.2007C36.7601 52.462 34.89 53.6886 33.0335 54.8806C31.1771 53.6886 29.3069 52.462 27.5258 51.2007C24.6555 49.1701 21.8126 46.8485 19.8054 43.8408C17.5174 39.4402 16.8118 34.0277 15.9555 29.2251C15.8664 28.6845 15.7705 28.1232 15.6746 27.548C15.1814 24.4779 14.743 21.3801 14.373 18.2823C15.4417 17.319 16.5789 16.4042 17.7434 15.5726C17.764 15.5587 17.7777 15.5587 17.7982 15.5449C16.6816 16.4181 15.6541 17.4923 15.2704 18.6496C14.4073 21.2346 16.6885 31.3388 17.3667 34.4089C18.2709 38.5323 29.1836 32.6278 32.5471 32.4476C35.8422 32.2674 45.8575 40.0985 47.529 36.9938C51.7762 29.1003 48.7346 16.2518 39.7469 10.6106C39.7469 10.6106 39.7469 10.6106 39.7606 10.6106C44.1106 12.5857 48.0633 15.1776 51.7008 18.2892V18.2823Z" fill="#912774"/>
</g>
<g style="mix-blend-mode:multiply" opacity="0.5">
<path d="M12.3254 18.3308C13.1475 18.9892 14.5724 19.8624 14.5724 19.8624C16.7576 15.33 22.3544 13.2163 26.7729 12.2253C31.8354 11.0887 37.6719 13.9024 42.0561 16.3834C45.0292 18.0674 49.1052 20.2366 51.0713 23.1888C51.9755 22.5166 52.4345 22.177 53.3456 21.5117C53.558 19.8762 53.6676 19.0585 53.8868 17.4229C44.0428 8.51765 33.0479 5.9812 33.0479 5.9812C33.0479 5.9812 20.9706 9.10671 12.209 17.416C12.2569 17.7833 12.2843 17.9635 12.3323 18.3239L12.3254 18.3308Z" fill="#762FBE"/>
</g>
<g style="mix-blend-mode:multiply" opacity="0.4">
<path d="M57.8527 22.6829C57.0101 22.2463 54.0233 21.5949 53.5506 22.8077C53.2629 23.5492 52.5368 27.8182 52.0504 30.5348C51.105 35.8295 50.3035 36.7304 49.6596 39.5995C49.4198 40.6737 53.9411 40.6113 54.5987 40.1539C55.1057 39.8005 55.3317 38.7887 56.1401 34.8385C56.8251 31.5189 57.6334 28.1716 58.1061 24.8105C58.2431 23.8472 58.387 22.9601 57.8458 22.6829H57.8527Z" fill="#D81BDC"/>
</g>
<g style="mix-blend-mode:multiply" opacity="0.4">
<path d="M12.2011 21.6087C11.8312 21.3245 8.40602 22.17 8.0224 22.8353C7.61138 23.556 8.59783 28.7883 9.13901 31.4287C10.2145 36.6472 11.0503 39.6964 11.475 40.4033C12.4135 41.9626 17.0307 42.122 16.6196 40.7013C15.873 38.1718 15.1331 37.1461 14.3796 32.4475C13.8795 29.3289 12.8656 22.1215 12.208 21.6087H12.2011Z" fill="#D81BDC"/>
</g>
<g style="mix-blend-mode:soft-light">
<path d="M33.6854 66.6411C33.3566 66.7035 33.3155 62.8433 33.4731 62.6285C35.0555 60.4802 38.7616 59.5584 36.912 63.6958C36.3639 64.9155 34.85 66.4262 33.6854 66.648V66.6411Z" fill="white"/>
</g>
<g style="mix-blend-mode:soft-light">
<path d="M48.5236 51.4085C49.0716 50.8195 48.0098 46.0654 47.5166 46.3772C46.763 46.8485 33.302 56.031 33.0417 56.3844C32.4526 57.1745 32.9732 61.7622 33.2267 61.8038C33.8158 61.9008 46.7699 53.3143 48.5304 51.4085H48.5236Z" fill="white"/>
</g>
<g style="mix-blend-mode:soft-light">
<path d="M26.3471 8.14348C27.1554 7.78311 26.5389 2.38449 25.662 2.69635C18.476 5.26052 11.1187 10.9987 11.1392 11.2413C11.1666 11.5808 15.5166 13.7916 17.332 12.9461C18.6609 12.3293 22.8328 9.70277 26.3471 8.13655V8.14348Z" fill="white"/>
</g>
<g style="mix-blend-mode:multiply" opacity="0.8">
<path d="M59.696 15.2607C59.696 15.3023 59.6891 15.3231 59.6823 15.3716C59.5658 16.2448 59.5042 16.6814 59.3877 17.5546C59.3877 17.5615 59.3877 17.5685 59.3877 17.5823C58.2437 11.9689 54.0718 11.1026 50.8384 8.69783C49.8999 7.99788 48.8861 7.31179 47.8722 6.68808C43.625 4.04768 38.4529 1.39341 33.4521 0.825139C29.7255 0.409328 22.1147 4.42884 17.7099 7.21477C14.1409 9.46708 7.87275 13.0708 6.70133 17.5754C6.70133 17.5685 6.70133 17.5615 6.70133 17.5477C6.58488 16.6745 6.52322 16.2379 6.40677 15.3647C6.40677 15.3231 6.39992 15.3023 6.39307 15.2538C6.55748 15.0805 6.72188 14.9073 6.88629 14.741C13.8737 7.7276 23.2861 2.59234 32.9931 0.263794C33.0068 0.263794 33.0205 0.263794 33.0274 0.256864C33.0342 0.249934 33.0411 0.256864 33.0411 0.256864C33.048 0.256864 33.0617 0.256864 33.0685 0.263794C33.0822 0.263794 33.0959 0.270725 33.1096 0.270725C33.459 0.360817 33.8083 0.45784 34.144 0.547932C34.1783 0.554862 34.2194 0.568723 34.2536 0.575653C38.9187 1.8716 43.3989 3.86749 47.7009 6.16831C47.7215 6.19603 48.112 6.61877 49.2628 7.36723C50.448 8.13649 51.2426 8.31667 51.2426 8.31667C53.6402 9.95912 55.9694 11.6917 58.1067 13.6806C58.1752 13.743 58.2437 13.8054 58.3054 13.8677C59.1205 14.6439 59.5864 15.1498 59.6754 15.2399C59.6823 15.2538 59.6891 15.2538 59.6891 15.2538L59.696 15.2607Z" fill="#D64A6D"/>
</g>
<path d="M23.2109 49.3226C23.2109 49.3226 31.5616 56.5577 32.9659 56.5577C34.2949 56.5577 41.8988 50.0988 41.8988 50.0988C41.8988 50.0988 34.0277 55.1925 33.0755 55.3172C31.082 55.5875 23.2178 49.3157 23.2178 49.3157L23.2109 49.3226Z" fill="#FFBA95"/>
<path d="M52.2081 28.7122C52.304 28.7329 47.8033 44.9912 47.8033 44.9912C47.7417 44.9634 50.3791 39.7173 51.2285 36.474C51.7902 34.3117 52.215 28.7122 52.215 28.7122H52.2081Z" fill="#FFBA95"/>
<path d="M13.8591 28.7122C13.7632 28.7329 17.9213 44.3605 17.9213 44.3605C17.983 44.3328 15.5169 39.7242 14.6674 36.4809C14.1057 34.3187 13.8659 28.7191 13.8659 28.7191L13.8591 28.7122Z" fill="#FFBA95"/>
<g style="mix-blend-mode:multiply" opacity="0.3">
<path d="M28.3479 56.5438C30.9442 56.6686 29.2933 54.8737 28.2588 54.1945C27.2861 53.5569 24.4021 52.5728 24.2171 52.9193C23.9225 53.4599 26.6147 56.4607 28.341 56.5438H28.3479Z" fill="#B8038B"/>
</g>
<g style="mix-blend-mode:multiply" opacity="0.3">
<path d="M28.9372 57.5972C27.3137 56.9319 26.7451 56.7032 27.5192 58.0061C28.2933 59.3089 29.9853 58.0269 28.9372 57.5972Z" fill="#B8038B"/>
</g>
<path d="M19.9908 53.3837C19.6072 54.0629 21.6486 57.4725 23.327 55.6707C23.6216 55.3588 20.2717 52.8778 19.9908 53.3837Z" fill="#CC1F38"/>
<g style="mix-blend-mode:multiply" opacity="0.5">
<path d="M20.0446 53.6191C19.9487 54.132 20.6885 55.5111 21.1612 55.5873C21.6407 55.6635 22.6135 54.8042 21.6476 54.1805C20.5652 53.4875 20.12 53.2311 20.0446 53.6191Z" fill="#D640C6"/>
</g>
<path d="M21.3936 55.9477C22.7362 56.7239 23.7158 56.3428 23.5651 55.8091C23.4144 55.2755 23.0034 55.123 23.0034 55.123C23.0034 55.123 23.4076 55.4418 23.1884 55.7537C22.9691 56.0725 21.4004 55.9408 21.4004 55.9408L21.3936 55.9477Z" fill="#FFBA95"/>
<path d="M51.25 8.31657C51.1062 8.4621 50.9692 8.58685 50.8322 8.68387C49.3319 9.78577 47.544 8.54527 47.5303 6.785C47.5303 6.39691 47.7084 6.16821 47.7084 6.16821C47.7289 6.19593 48.1194 6.61868 49.2703 7.36714C50.4554 8.13639 51.25 8.31657 51.25 8.31657Z" fill="#CC1F38"/>
<g style="mix-blend-mode:multiply" opacity="0.5">
<path d="M47.6386 6.29313C47.4811 6.77131 47.6386 8.22665 48.2141 8.43456C48.7895 8.64939 49.132 7.63759 48.9745 7.3881C48.8169 7.14554 47.714 6.03671 47.6318 6.2862L47.6386 6.29313Z" fill="#D640C6"/>
</g>
<path d="M48.1802 8.55235C48.1802 8.55235 49.3036 9.64039 51.0436 8.5177C51.0436 8.5177 50.845 9.59188 49.6119 9.59188C48.9474 9.59188 48.1802 8.55235 48.1802 8.55235Z" fill="white"/>
<g style="mix-blend-mode:multiply" opacity="0.8">
<path d="M33.156 0.991407C32.9093 2.50219 32.8134 5.14259 33.3683 5.64156C33.9232 6.14053 41.2668 8.75321 41.486 8.75321C41.7052 8.75321 42.3766 3.93674 41.2668 3.26451C40.1571 2.59228 33.3067 0.0558318 33.156 0.984476V0.991407Z" fill="#D64A6D"/>
</g>
<path d="M25.0182 43.5775C24.751 43.5775 24.5318 43.5082 24.3674 43.3765C23.4015 42.5865 24.0454 39.357 24.9223 35.5316C25.1072 34.7346 25.2922 33.9168 25.3059 33.6881C25.1484 33.4456 24.2646 32.7041 23.4837 32.0526C20.7915 29.7934 18.7501 27.9777 18.9898 26.8065C19.1954 25.8224 21.3601 25.4482 25.8334 25.0185C26.8267 24.9215 27.9502 24.8175 28.2105 24.7205C28.3543 24.5126 28.7037 23.6255 29.012 22.8424C30.3889 19.3704 31.6357 16.4874 32.9441 16.4874C33.088 16.4874 33.2318 16.529 33.3757 16.6052L33.4168 16.626C34.5745 17.2913 36.0199 20.6109 37.2872 23.674C37.4791 24.1453 37.6777 24.6304 37.7668 24.8036C38.0476 24.8937 39.0821 24.97 39.9932 25.0393C43.4047 25.2957 46.275 25.6006 46.8709 26.7025C46.9189 26.7857 46.9463 26.8827 46.9531 26.9867C47.008 27.8044 45.6173 29.0311 43.3224 30.9577C42.2264 31.8794 40.733 33.1337 40.6576 33.501C40.6439 33.7505 40.87 34.797 41.0961 35.8088C41.8907 39.4194 42.4798 42.4756 41.6167 43.3488C41.4728 43.4944 41.2605 43.5706 40.9933 43.5706C39.8356 43.5706 37.3352 42.0875 34.6567 40.4381C33.9306 39.9946 33.1839 39.5303 32.9372 39.4194C32.7043 39.5234 32.0193 39.9669 31.3548 40.3896C28.7654 42.0529 26.3266 43.5429 25.0524 43.5637H25.025L25.0182 43.5775Z" fill="#CC1F38"/>
<path d="M46.2132 26.8411C46.3022 28.0954 40.1643 32.1288 40.1026 33.1129C40.0341 34.0762 42.2468 41.3113 41.1302 42.4409C40.2191 43.3626 33.444 38.5531 32.9371 38.5254C32.5055 38.5254 27.128 42.531 25.2784 42.5587C25.0934 42.5587 24.9427 42.5241 24.8331 42.4409C23.6411 41.4707 25.9497 33.8821 25.8675 33.2446C25.7853 32.6139 19.4076 28.2964 19.7364 26.7094C20.0104 25.3927 28.087 25.2749 28.5734 24.9006C29.0598 24.5195 31.2999 16.9933 32.9645 16.9933C33.0536 16.9933 33.1495 17.021 33.2522 17.0834C34.7251 17.9289 37.109 24.5472 37.3899 24.9561C37.6913 25.3927 45.3569 25.1986 46.1858 26.7163C46.2063 26.751 46.22 26.7926 46.22 26.8411H46.2132Z" fill="url(#paint5_linear_327_2771)"/>
<g style="mix-blend-mode:multiply" opacity="0.5">
<path d="M32.944 30.6181L25.8607 33.2446C25.7785 32.614 19.4008 28.2965 19.7296 26.7095L32.944 30.6181Z" fill="#C10065"/>
</g>
<g style="mix-blend-mode:multiply" opacity="0.5">
<path d="M37.3814 24.9561L32.9424 30.625V17.0002L33.2369 17.0903C34.7098 17.9358 37.0937 24.5541 37.3746 24.963L37.3814 24.9561Z" fill="#C10065"/>
</g>
<g style="mix-blend-mode:multiply" opacity="0.5">
<path d="M46.2116 26.8411C46.3007 28.0955 40.1627 32.1289 40.101 33.113L32.9424 30.6181L46.1773 26.7095L46.2116 26.8342V26.8411Z" fill="#C10065"/>
</g>
<g style="mix-blend-mode:multiply" opacity="0.5">
<path d="M41.1291 42.4409C40.218 43.3627 33.443 38.5531 32.936 38.5254L32.9497 30.618L41.136 42.4409H41.1291Z" fill="#C10065"/>
</g>
<g style="mix-blend-mode:multiply" opacity="0.5">
<path d="M32.9429 30.618V38.5254C32.5113 38.5254 27.1337 42.531 25.2841 42.5587L24.8389 42.4409L32.9566 30.618H32.9429Z" fill="#C10065"/>
</g>
<g style="mix-blend-mode:soft-light">
<path d="M32.9444 30.618L19.73 26.7094C20.004 25.3927 28.0806 25.2749 28.567 24.9006L32.9512 30.618H32.9444Z" fill="white"/>
</g>
<g style="mix-blend-mode:multiply" opacity="0.4">
<path d="M19.7299 26.7164C17.5103 27.3747 23.6414 39.3917 24.7306 38.8026C25.8199 38.2136 32.0674 31.9417 32.9511 30.625C32.9511 30.625 21.2027 26.2798 19.7367 26.7164H19.7299Z" fill="#D81BDC"/>
</g>
<g style="mix-blend-mode:multiply" opacity="0.4">
<path d="M46.1861 26.7164C48.4056 27.3747 42.2745 39.3917 41.1853 38.8026C40.0961 38.2136 33.8485 31.9417 32.9648 30.625C32.9648 30.625 44.7133 26.2798 46.1793 26.7164H46.1861Z" fill="#D81BDC"/>
</g>
<g style="mix-blend-mode:multiply" opacity="0.3">
<path d="M32.9578 16.9933C32.6907 17.0557 32.9441 38.5324 32.9441 38.5324C33.7182 38.8234 40.322 43.1756 41.1372 42.4479C42.4251 41.2836 39.9521 34.0901 40.1097 33.1199C40.2672 32.1497 46.6175 27.8599 46.1928 26.7233C45.6105 25.164 37.7531 25.3165 37.3901 24.9631C36.7393 24.3255 34.4033 16.6676 32.9647 17.0003L32.9578 16.9933Z" fill="#B8038B"/>
</g>
<g style="mix-blend-mode:multiply" opacity="0.4">
<path d="M32.9439 30.618C30.9162 33.5149 24.8262 41.7479 24.8262 42.4409C24.8262 43.425 40.815 43.529 41.1301 42.4409C41.4452 41.3529 33.3275 30.0706 32.9439 30.618Z" fill="#D81BDC"/>
</g>
<path d="M57.571 50.3344C56.2968 51.6788 56.0228 51.9214 55.646 52.1847C53.584 53.6331 48.9326 54.0351 48.9326 54.0351L49.6108 50.6947L57.5641 50.3344H57.571Z" fill="url(#paint6_linear_327_2771)"/>
<path d="M53.7556 44.2705C57.3589 45.7812 57.996 50.0017 57.5713 50.3344C54.3242 52.8639 49.618 50.6947 49.618 50.6947C49.618 50.6947 48.0356 45.9822 48.6795 44.9981C49.2481 44.1319 53.7556 44.2774 53.7556 44.2774V44.2705Z" fill="url(#paint7_linear_327_2771)"/>
<g style="mix-blend-mode:multiply" opacity="0.4">
<path d="M57.0155 50.4453C57.5704 50.0087 49.0964 45.0121 48.6717 45.2754C48.247 45.5388 48.9252 50.1127 50.0007 50.7433C50.3432 50.9443 54.5014 52.4274 57.0155 50.4453Z" fill="#D81BDC"/>
</g>
<g style="mix-blend-mode:soft-light">
<path d="M57.4269 50.0363C57.7146 49.8284 57.6256 46.8692 54.5977 44.7902C53.3235 43.917 48.8228 44.6654 48.9256 44.7763C49.0283 44.8872 57.1392 50.2442 57.4269 50.0363Z" fill="white"/>
</g>
<path d="M8.3291 50.3344C9.60327 51.6788 9.87729 51.9214 10.2541 52.1847C12.316 53.6331 16.9674 54.0351 16.9674 54.0351L16.2893 50.6947L8.33595 50.3344H8.3291Z" fill="url(#paint8_linear_327_2771)"/>
<path d="M12.1457 44.2705C8.54244 45.7812 7.90535 50.0017 8.33008 50.3344C11.5772 52.8639 16.2834 50.6947 16.2834 50.6947C16.2834 50.6947 17.8658 45.9822 17.2219 44.9981C16.6533 44.1319 12.1457 44.2774 12.1457 44.2774V44.2705Z" fill="url(#paint9_linear_327_2771)"/>
<g style="mix-blend-mode:multiply" opacity="0.4">
<path d="M8.87766 50.4452C8.32278 50.0086 16.7967 45.012 17.2214 45.2753C17.6462 45.5387 16.968 50.1126 15.8925 50.7432C15.5499 50.9442 11.3918 52.4273 8.87766 50.4452Z" fill="#D81BDC"/>
</g>
<g style="mix-blend-mode:soft-light">
<path d="M8.46777 50.0366C8.18006 49.8286 8.26911 46.8695 11.297 44.7904C12.5712 43.9172 17.0719 44.6657 16.9691 44.7765C16.8664 44.8874 8.75549 50.2445 8.46777 50.0366Z" fill="white"/>
</g>
<path d="M65.7299 19.2734C65.0928 21.0268 64.9421 21.3525 64.7024 21.7475C63.3939 23.9167 59.7221 26.1759 59.7221 26.1759L58.585 22.8356L65.7299 19.2734Z" fill="url(#paint10_linear_327_2771)"/>
<path d="M59.8244 15.2746C63.7223 15.1915 65.9829 18.7952 65.7295 19.2733C63.7634 22.9117 58.5845 22.8355 58.5845 22.8355C58.5845 22.8355 55.2621 19.1625 55.4607 17.9982C55.6388 16.9725 59.8244 15.2677 59.8244 15.2677V15.2746Z" fill="url(#paint11_linear_327_2771)"/>
<g style="mix-blend-mode:multiply" opacity="0.4">
<path d="M65.2694 19.5992C65.605 18.9755 55.8569 17.8459 55.5761 18.2617C55.2883 18.6775 57.7339 22.5862 58.967 22.7248C59.3575 22.7663 63.7554 22.4406 65.2694 19.5992Z" fill="#D81BDC"/>
</g>
<g style="mix-blend-mode:soft-light">
<path d="M65.4829 19.0586C65.6679 18.7467 64.4006 16.0786 60.811 15.4063C59.297 15.1222 55.4745 17.6448 55.6115 17.7002C55.7485 17.7557 65.3048 19.3704 65.4829 19.0586Z" fill="white"/>
</g>
<path d="M0.52002 19.2733C1.15711 21.0267 1.30781 21.3524 1.54758 21.7474C2.856 23.9165 6.16474 25.8501 6.16474 25.8501L7.65813 22.8354L0.52002 19.2733Z" fill="url(#paint12_linear_327_2771)"/>
<path d="M6.41847 15.2746C2.5206 15.1915 0.259969 18.7952 0.520284 19.2733C2.48635 22.9117 7.66524 22.8355 7.66524 22.8355C7.66524 22.8355 10.9877 19.1625 10.789 17.9982C10.6109 16.9725 6.42532 15.2677 6.42532 15.2677L6.41847 15.2746Z" fill="url(#paint13_linear_327_2771)"/>
<g style="mix-blend-mode:multiply" opacity="0.4">
<path d="M0.978688 19.5992C0.643018 18.9755 10.3911 17.8459 10.672 18.2617C10.9597 18.6775 8.51412 22.5862 7.28105 22.7248C6.89058 22.7663 2.49262 22.4406 0.978688 19.5992Z" fill="#D81BDC"/>
</g>
<g style="mix-blend-mode:soft-light">
<path d="M0.767937 19.0584C0.582976 18.7466 1.8503 16.0785 5.43991 15.4062C6.95384 15.1221 10.7764 17.6447 10.6394 17.7001C10.5023 17.7556 0.946047 19.3703 0.767937 19.0584Z" fill="white"/>
</g>
<g style="mix-blend-mode:multiply" opacity="0.5">
<path d="M10.3369 13.7777C12.0495 20.1396 14.4814 15.1291 13.9882 13.3411L10.3369 13.7777Z" fill="#B8038B"/>
</g>
<path d="M13.9877 13.3411C14.063 14.5747 13.1725 15.1845 12.1655 15.1845C11.1585 15.1845 10.3433 14.3598 10.3433 13.3411C10.3433 12.3224 10.9666 11.4977 12.1655 11.4977C13.1725 11.4977 13.926 12.3224 13.9877 13.3411Z" fill="#CC1F38"/>
<path d="M10.5636 13.3413C11.2281 13.7224 13.7696 13.3621 13.7491 12.9324C13.7285 12.5027 12.7284 11.4424 11.6666 11.6642C10.7007 11.8652 10.1458 13.0987 10.5636 13.3413Z" fill="white"/>
<g style="mix-blend-mode:soft-light">
<path d="M10.9056 14.54C12.0085 15.3439 13.3443 15.1291 13.8855 13.944C14.3102 13.0223 10.015 13.8886 10.9056 14.54Z" fill="white"/>
</g>
<g style="mix-blend-mode:multiply" opacity="0.5">
<path d="M52.0215 13.7778C53.7341 20.1397 56.166 15.1292 55.6727 13.3412L52.0215 13.7778Z" fill="#B8038B"/>
</g>
<path d="M55.6659 13.3412C55.7412 14.5748 54.8507 15.1847 53.8437 15.1847C52.8367 15.1847 52.0215 14.36 52.0215 13.3412C52.0215 12.3225 52.6449 11.4978 53.8437 11.4978C54.8507 11.4978 55.6042 12.3225 55.6659 13.3412Z" fill="#CC1F38"/>
<path d="M52.2414 13.3413C52.9059 13.7224 55.4474 13.3621 55.4268 12.9324C55.4063 12.5027 54.4061 11.4424 53.3443 11.6642C52.3784 11.8652 51.8235 13.0987 52.2414 13.3413Z" fill="white"/>
<g style="mix-blend-mode:soft-light">
<path d="M52.5897 14.54C53.6926 15.3439 55.0284 15.1291 55.5696 13.944C55.9943 13.0223 51.6991 13.8886 52.5897 14.54Z" fill="white"/>
</g>
<g style="mix-blend-mode:multiply" opacity="0.5">
<path d="M30.8267 3.61104C32.5393 9.97295 34.9711 4.96243 34.4779 3.17444L30.8267 3.61104Z" fill="#B8038B"/>
</g>
<path d="M34.4779 3.17448C34.5533 4.40806 33.6627 5.01791 32.6557 5.01791C31.6487 5.01791 30.8335 4.19322 30.8335 3.17448C30.8335 2.15575 31.4569 1.33105 32.6557 1.33105C33.6627 1.33105 34.4163 2.15575 34.4779 3.17448Z" fill="#CC1F38"/>
<path d="M31.0534 3.17453C31.7179 3.55569 34.2594 3.19533 34.2388 2.76565C34.2183 2.33598 33.2181 1.27566 32.1563 1.49743C31.1904 1.69841 30.6355 2.93198 31.0534 3.17453Z" fill="white"/>
<g style="mix-blend-mode:soft-light">
<path d="M31.3953 4.36642C32.4983 5.17032 33.8341 4.95548 34.3753 3.77042C34.8 2.84871 30.5048 3.71498 31.3953 4.36642Z" fill="white"/>
</g>
<g style="mix-blend-mode:multiply" opacity="0.5">
<path d="M30.8267 59.42C32.5393 65.7819 34.9711 60.7714 34.4779 58.9834L30.8267 59.42Z" fill="#B8038B"/>
</g>
<path d="M34.4779 58.9833C34.5533 60.2169 33.6627 60.8268 32.6557 60.8268C31.6487 60.8268 30.8335 60.0021 30.8335 58.9833C30.8335 57.9646 31.4569 57.1399 32.6557 57.1399C33.6627 57.1399 34.4163 57.9646 34.4779 58.9833Z" fill="#CC1F38"/>
<path d="M31.0534 58.9835C31.7179 59.3647 34.2594 59.0043 34.2388 58.5746C34.2183 58.1449 33.2181 57.0846 32.1563 57.3064C31.1904 57.5074 30.6355 58.7409 31.0534 58.9835Z" fill="white"/>
<g style="mix-blend-mode:soft-light">
<path d="M31.3953 60.1822C32.4983 60.9861 33.8341 60.7713 34.3753 59.5862C34.8 58.6645 30.5048 59.5308 31.3953 60.1822Z" fill="white"/>
</g>
</g>
<defs>
<linearGradient id="paint0_linear_327_2771" x1="32.9653" y1="67.7499" x2="32.9653" y2="14.8103" gradientUnits="userSpaceOnUse">
<stop stop-color="#CA143C"/>
<stop offset="0.49" stop-color="#DB1F16"/>
<stop offset="1" stop-color="#A4013E"/>
</linearGradient>
<linearGradient id="paint1_linear_327_2771" x1="33.0396" y1="56.8488" x2="33.0396" y2="5.2605" gradientUnits="userSpaceOnUse">
<stop stop-color="#CA143C"/>
<stop offset="1" stop-color="#A4013E"/>
</linearGradient>
<linearGradient id="paint2_linear_327_2771" x1="14.373" y1="31.512" x2="51.7008" y2="31.512" gradientUnits="userSpaceOnUse">
<stop stop-color="#538839"/>
<stop offset="1" stop-color="#5E6B1C"/>
</linearGradient>
<linearGradient id="paint3_linear_327_2771" x1="33.0259" y1="36.9938" x2="54.2826" y2="36.9938" gradientUnits="userSpaceOnUse">
<stop stop-color="#F5643B"/>
<stop offset="1" stop-color="#F53636"/>
</linearGradient>
<linearGradient id="paint4_linear_327_2771" x1="33.0416" y1="62.3997" x2="33.0416" y2="0.24981" gradientUnits="userSpaceOnUse">
<stop stop-color="#FFB092"/>
<stop offset="0.02" stop-color="#FFA485"/>
<stop offset="0.07" stop-color="#FF8A68"/>
<stop offset="0.13" stop-color="#FF744F"/>
<stop offset="0.19" stop-color="#FF633D"/>
<stop offset="0.27" stop-color="#FF572F"/>
<stop offset="0.37" stop-color="#FF5128"/>
<stop offset="0.56" stop-color="#FF4F26"/>
<stop offset="0.66" stop-color="#FF6F3B"/>
<stop offset="1" stop-color="#FF938D"/>
</linearGradient>
<linearGradient id="paint5_linear_327_2771" x1="32.9645" y1="16.9933" x2="32.9645" y2="42.5657" gradientUnits="userSpaceOnUse">
<stop stop-color="#FFB092"/>
<stop offset="0.63" stop-color="#FF4F26"/>
<stop offset="0.7" stop-color="#FF6F3B"/>
<stop offset="1" stop-color="#FF938D"/>
</linearGradient>
<linearGradient id="paint6_linear_327_2771" x1="49.3874" y1="54.5626" x2="55.8256" y2="48.5191" gradientUnits="userSpaceOnUse">
<stop stop-color="#CA143C"/>
<stop offset="0.49" stop-color="#DB1F16"/>
<stop offset="1" stop-color="#A4013E"/>
</linearGradient>
<linearGradient id="paint7_linear_327_2771" x1="53.0667" y1="44.2714" x2="53.0694" y2="51.5706" gradientUnits="userSpaceOnUse">
<stop stop-color="#FF7A49"/>
<stop offset="0.09" stop-color="#FF7644"/>
<stop offset="0.39" stop-color="#FF703D"/>
<stop offset="1" stop-color="#FF6F3B"/>
</linearGradient>
<linearGradient id="paint8_linear_327_2771" x1="16.4404" y1="54.6046" x2="10.0022" y2="48.5611" gradientUnits="userSpaceOnUse">
<stop stop-color="#CA143C"/>
<stop offset="0.49" stop-color="#DB1F16"/>
<stop offset="1" stop-color="#A4013E"/>
</linearGradient>
<linearGradient id="paint9_linear_327_2771" x1="12.7624" y1="44.3134" x2="12.7646" y2="51.6075" gradientUnits="userSpaceOnUse">
<stop stop-color="#FF7A49"/>
<stop offset="0.09" stop-color="#FF7644"/>
<stop offset="0.39" stop-color="#FF703D"/>
<stop offset="1" stop-color="#FF6F3B"/>
</linearGradient>
<linearGradient id="paint10_linear_327_2771" x1="59.9958" y1="26.3017" x2="63.3947" y2="18.2975" gradientUnits="userSpaceOnUse">
<stop stop-color="#CA143C"/>
<stop offset="0.49" stop-color="#DB1F16"/>
<stop offset="1" stop-color="#A4013E"/>
</linearGradient>
<linearGradient id="paint11_linear_327_2771" x1="60.5803" y1="15.2762" x2="60.5851" y2="22.8392" gradientUnits="userSpaceOnUse">
<stop stop-color="#FF7A49"/>
<stop offset="0.09" stop-color="#FF7644"/>
<stop offset="0.39" stop-color="#FF703D"/>
<stop offset="1" stop-color="#FF6F3B"/>
</linearGradient>
<linearGradient id="paint12_linear_327_2771" x1="6.13107" y1="25.9983" x2="2.90254" y2="18.3952" gradientUnits="userSpaceOnUse">
<stop stop-color="#CA143C"/>
<stop offset="0.49" stop-color="#DB1F16"/>
<stop offset="1" stop-color="#A4013E"/>
</linearGradient>
<linearGradient id="paint13_linear_327_2771" x1="5.71335" y1="15.3754" x2="5.7113" y2="22.9448" gradientUnits="userSpaceOnUse">
<stop stop-color="#FF7A49"/>
<stop offset="0.09" stop-color="#FF7644"/>
<stop offset="0.39" stop-color="#FF703D"/>
<stop offset="1" stop-color="#FF6F3B"/>
</linearGradient>
<clipPath id="clip0_327_2771">
<rect width="65.25" height="67.5" fill="white" transform="translate(0.5 0.25)"/>
</clipPath>
</defs>
</svg>
