<svg width="32" height="32" viewBox="0 0 32 32" fill="none" xmlns="http://www.w3.org/2000/svg">
<path d="M21.5972 12.25L17.6714 13.9199L14.9175 23.5L15.9722 28.1875C16.2432 28.1875 16.4996 28.0712 16.6772 27.8671L29.8022 12.8671C29.9553 12.6921 30.0068 12.4729 30.0068 12.25L25.1422 7.91406L21.5972 12.25Z" fill="#297FFF"/>
<path d="M12.7494 13.8027L10.3471 12.25L7.62244 10.6526H3.53488L1.9375 12.25C1.9375 12.4729 1.989 12.692 2.14213 12.867L15.2671 27.867C15.4447 28.0712 15.7011 28.1875 15.9721 28.1875L12.7494 13.8027Z" fill="#4690FF"/>
<path d="M20.1909 11.3125L11.9585 11.3418L10.3472 12.25L15.9722 28.1875L21.5972 12.25L20.1909 11.3125Z" fill="#91BDFF"/>
<path d="M20.1909 11.3125L15.9722 11.3275V28.1875L21.5972 12.25L20.1909 11.3125Z" fill="#6DA7FF"/>
<path d="M8.15798 4.6287L6.19255 3.92914C6.0138 4.0182 5.85723 4.14533 5.7643 4.3307L2.0143 11.8307C1.94792 11.9633 1.94336 12.1079 1.94336 12.25H10.3529L10.761 10.4521L8.15798 4.6287Z" fill="#91BDFF"/>
<path d="M20.5274 3.8125H15.9722H11.064L10.3472 12.25H21.5972L20.5274 3.8125Z" fill="#D2E4FF"/>
<path d="M21.5972 12.25L20.5274 3.8125H15.9722V12.25H21.5972Z" fill="#C4DCFF"/>
<path d="M30.0067 12.25C30.0067 12.1079 30.0022 11.9633 29.9358 11.8307L26.1858 4.3307C26.0929 4.14533 25.9363 4.01814 25.7578 3.92914L21.5972 12.25H30.0067Z" fill="#6DA7FF"/>
<path d="M15.9719 3.8125H6.5969C6.44902 3.8125 6.31402 3.86562 6.18652 3.92912L10.3469 12.25L15.9719 3.8125Z" fill="#4690FF"/>
<path d="M25.7578 3.92912C25.63 3.86562 25.495 3.8125 25.3472 3.8125H15.9722L21.5972 12.25L25.7578 3.92912Z" fill="#297FFF"/>
</svg>
