<svg width="90" height="88" viewBox="0 0 90 88" fill="none" xmlns="http://www.w3.org/2000/svg">
<g clip-path="url(#clip0_327_2398)">
<path d="M28.5205 37.1947L23.9114 39.6327L20.5366 56.3734C19.3829 56.4568 16.2722 54.7166 13.5646 52.9986C11.1599 51.4752 7.30417 47.0051 7.28749 46.5853C8.23266 45.6401 9.07776 45.1537 9.07776 45.1537C9.07776 45.1537 4.26293 38.8766 3.94602 38.0843C3.72363 37.5283 2.07513 34.4565 1.87776 33.7031C1.79436 33.3835 7.4098 33.3167 7.4098 33.3167C7.34864 33.2723 5.99482 31.7767 5.38324 30.8704C4.10169 28.9801 -0.157147 19.7368 0.00964825 19.7368C11.4518 19.7368 23.5695 29.5221 24.1283 30.4312C24.2617 30.648 24.4035 30.8926 24.5508 31.1623C25.5738 33.0193 26.9388 35.9354 28.5205 37.1975V37.1947Z" fill="url(#paint0_linear_327_2398)"/>
<g style="mix-blend-mode:multiply" opacity="0.4">
<path d="M28.5199 37.1947L23.9108 39.6327L20.536 56.3734C18.3593 56.5319 10.3198 51.6392 7.28689 46.5853C7.32025 46.8133 10.3198 48.5035 12.8356 47.9725C14.334 47.6556 22.2707 41.8372 21.5396 41.309C21.0892 40.9838 14.2589 42.1347 9.07716 45.1537C9.07716 45.1537 4.26233 38.8766 3.94542 38.0843C3.72303 37.5283 2.07453 34.4565 1.87716 33.7031C2.13013 34.0673 3.15592 35.5991 5.97477 37.4727C7.43423 38.4429 12.6104 40.0469 15.4765 40.5723C17.3308 40.9115 23.8802 37.9898 23.3243 36.9557C23.0491 36.4442 20.1663 33.7004 7.40643 33.314C7.34527 33.2695 5.99145 31.7739 5.37986 30.8676C4.1011 28.9801 -0.146623 19.7952 0.00905223 19.7368C0.00905223 19.7368 2.36087 25.0326 8.68797 28.8411C9.60257 29.3915 24.1527 31.2763 24.1277 30.4312C25.1813 32.1408 26.7074 35.752 28.5199 37.1975V37.1947Z" fill="#D42F55"/>
</g>
<g style="mix-blend-mode:multiply" opacity="0.5">
<path d="M6.76121 28.0711C7.63411 29.0274 10.806 33.2056 10.6392 33.2307C9.41326 33.4225 7.75365 33.0305 7.44785 32.8081C5.55195 31.4376 2.99998 26.6534 2.0409 24.3599C1.48492 23.0283 5.95226 27.1871 6.76121 28.0739V28.0711Z" fill="#D42F55"/>
</g>
<g style="mix-blend-mode:multiply" opacity="0.5">
<path d="M7.06027 38.9071C7.4161 39.3186 9.77904 44.795 9.08128 44.5143C8.38352 44.2335 4.21641 39.1629 3.17394 36.0605C2.91263 35.2821 6.44591 38.1983 7.06305 38.9099L7.06027 38.9071Z" fill="#D42F55"/>
</g>
<g style="mix-blend-mode:multiply" opacity="0.5">
<path d="M8.2517 47.7362C8.28506 48.0198 12.6217 53.3711 19.9413 56.0816C20.8086 56.404 20.1776 53.0737 19.4548 52.1257C17.8758 50.0519 8.1544 46.8689 8.2517 47.7362Z" fill="#D42F55"/>
</g>
<g style="mix-blend-mode:soft-light">
<path d="M8.68838 28.8383C11.8408 29.7446 22.8132 30.8093 23.6888 30.6091C24.4283 30.4396 3.29255 24.371 4.64637 25.7943C5.51927 26.7117 8.09626 28.6687 8.68838 28.8411V28.8383Z" fill="white"/>
</g>
<g style="mix-blend-mode:multiply" opacity="0.2">
<path d="M24.1884 31.6737C21.4752 30.4311 8.21214 28.9716 8.25106 29.2579C8.34002 29.914 10.8753 33.0192 11.2367 33.1749C11.8149 33.4223 15.7291 32.7189 27.0711 36.8388C27.4853 36.9889 25.4171 32.2408 24.1884 31.6765V31.6737Z" fill="#DA0553"/>
</g>
<g style="mix-blend-mode:multiply" opacity="0.3">
<path d="M28.5201 37.1948L23.911 39.6328L20.5361 56.3735C19.3825 56.4569 16.2717 54.7166 13.5641 52.9986C13.5641 52.9986 12.947 49.1401 12.8385 47.9725C12.7301 46.8078 14.0395 42.9075 14.0395 42.9075C14.0395 42.9075 11.8127 40.2166 11.885 39.6467C12.1324 37.6785 17.5616 34.1396 17.5616 34.1396C17.5616 34.1396 26.9383 35.9355 28.5229 37.1948H28.5201Z" fill="#DA0553"/>
</g>
<path d="M61.4847 37.1947L66.0938 39.6327L69.4687 56.3734C70.6223 56.4568 73.7331 54.7166 76.4407 52.9986C78.8453 51.4752 82.7011 47.0051 82.7178 46.5853C81.7726 45.6401 80.9275 45.1537 80.9275 45.1537C80.9275 45.1537 85.7423 38.8766 86.0592 38.0843C86.2816 37.5283 87.9301 34.4565 88.1275 33.7031C88.2109 33.3835 82.5954 33.3167 82.5954 33.3167C82.6566 33.2723 84.0104 31.7767 84.622 30.8704C85.9008 28.9828 90.1596 19.7368 89.9928 19.7368C78.5507 19.7368 66.433 29.5221 65.8742 30.4312C65.7408 30.648 65.599 30.8926 65.4517 31.1623C64.4287 33.0193 63.0637 35.9354 61.4819 37.1975L61.4847 37.1947Z" fill="url(#paint1_linear_327_2398)"/>
<g style="mix-blend-mode:multiply" opacity="0.4">
<path d="M61.4844 37.1948L66.0935 39.6328L69.4683 56.3735C71.645 56.532 79.6845 51.6393 82.7174 46.5854C82.6841 46.8134 79.6845 48.5036 77.1687 47.9726C75.6703 47.6557 67.7336 41.8373 68.4648 41.3091C68.9151 40.9839 75.7454 42.1348 80.9299 45.1537C80.9299 45.1537 85.7448 38.8767 86.0617 38.0844C86.2841 37.5284 87.9326 34.4566 88.1299 33.7032C87.877 34.0674 86.8512 35.5991 84.0323 37.4728C82.5729 38.443 77.3967 40.047 74.5306 40.5724C72.6763 40.9116 66.1268 37.9899 66.6828 36.9558C66.958 36.4442 69.8408 33.7005 82.6007 33.3141C82.6618 33.2696 84.0157 31.774 84.6272 30.8677C85.906 28.9802 90.1537 19.7953 89.998 19.7341C89.998 19.7341 87.6462 25.0299 81.3191 28.8384C80.4045 29.3888 65.8516 31.2736 65.8794 30.4285C64.8258 32.1381 63.2997 35.7493 61.4872 37.1948H61.4844Z" fill="#D42F55"/>
</g>
<g style="mix-blend-mode:multiply" opacity="0.5">
<path d="M83.2432 28.0711C82.3703 29.0274 79.1984 33.2056 79.3652 33.2307C80.5912 33.4225 82.2508 33.0305 82.5594 32.8081C84.4553 31.4376 87.0072 26.6534 87.9663 24.3599C88.5223 23.0283 84.055 27.1871 83.246 28.0739L83.2432 28.0711Z" fill="#D42F55"/>
</g>
<g style="mix-blend-mode:multiply" opacity="0.5">
<path d="M82.945 38.9073C82.5892 39.3187 80.2263 44.7951 80.924 44.5144C81.6246 44.2336 85.7889 39.163 86.8314 36.0606C87.0927 35.2823 83.5594 38.1984 82.9422 38.9101L82.945 38.9073Z" fill="#D42F55"/>
</g>
<g style="mix-blend-mode:multiply" opacity="0.5">
<path d="M81.7531 47.7364C81.7197 48.02 77.3608 51.9758 76.8854 52.4011C76.196 53.021 70.0774 57.2576 70.2803 56.0817C70.6445 53.9551 71.1977 51.4031 72.0928 50.5831C72.7572 49.9742 81.7948 47.3667 81.7531 47.7364Z" fill="#D42F55"/>
</g>
<g style="mix-blend-mode:multiply" opacity="0.2">
<path d="M81.3202 28.8384C78.1678 29.7447 67.1954 30.8094 66.3197 30.6092C65.5803 30.4397 86.716 24.3711 85.3622 25.7944C84.4893 26.7118 81.9123 28.6689 81.3202 28.8412V28.8384Z" fill="#DA0553"/>
</g>
<g style="mix-blend-mode:multiply" opacity="0.2">
<path d="M65.8161 31.6738C68.5293 30.4312 81.7923 28.9717 81.7534 29.2581C81.6645 29.9141 79.1292 33.0193 78.7678 33.175C78.1896 33.4224 74.2754 32.7191 62.9333 36.8389C62.5191 36.989 64.5874 32.2409 65.8161 31.6766V31.6738Z" fill="#DA0553"/>
</g>
<g style="mix-blend-mode:multiply" opacity="0.3">
<path d="M61.4847 37.1948L66.0938 39.6328L69.4687 56.3735C70.6223 56.4569 73.7331 54.7166 76.4407 52.9986C76.4407 52.9986 77.0578 49.1401 77.1663 47.9725C77.2747 46.8078 75.9653 42.9075 75.9653 42.9075C75.9653 42.9075 78.1921 40.2166 78.1198 39.6467C77.8724 37.6785 72.4432 34.1396 72.4432 34.1396C72.4432 34.1396 63.0665 35.9355 61.4819 37.1948H61.4847Z" fill="#DA0553"/>
</g>
<path d="M72.8096 42.902C70.569 51.3307 68.9455 60.7435 65.0703 68.43C62.7435 73.0502 57.7452 76.8087 53.8506 80.1863C50.99 82.666 48.0683 85.079 45.0632 87.3863C38.2747 82.2156 30.1656 76.4973 25.4314 69.3001C25.2368 68.9971 25.0645 68.7052 24.9282 68.43C21.0947 60.6323 19.4296 51.3224 17.1889 42.8992C16.9916 40.1804 17.453 37.3894 18.0313 34.7401C36.0591 34.1397 54.0896 34.1424 72.1174 34.7457C72.6206 37.4088 73.0098 40.186 72.8096 42.8992V42.902Z" fill="url(#paint2_linear_327_2398)"/>
<g style="mix-blend-mode:multiply" opacity="0.7">
<path d="M72.8103 42.9018C70.5697 51.3305 68.8823 60.5571 65.071 68.4298C64.9709 62.5975 66.9808 56.2426 68.229 50.5966C69.4021 45.2842 70.6948 39.9968 72.1181 34.7455C72.6213 37.4086 73.0104 40.1858 72.8103 42.899V42.9018Z" fill="#D42F55"/>
</g>
<g style="mix-blend-mode:multiply" opacity="0.3">
<path d="M45.0672 87.3863C44.7864 87.2639 44.5529 80.2669 46.2486 78.2181C48.4476 75.5605 52.7231 73.5283 55.9756 71.6297C57.4156 70.7901 64.6184 67.0039 64.9686 68.063C65.28 69.0082 62.3305 72.3886 61.1323 73.6312C58.9918 75.8496 56.3592 77.9651 54.0574 80.0139C50.8522 82.8661 45.07 87.3863 45.07 87.3863H45.0672Z" fill="#B30053"/>
</g>
<g style="mix-blend-mode:multiply" opacity="0.7">
<path d="M25.4334 69.3029C25.2388 68.9999 25.0664 68.708 24.9302 68.4328C21.0967 60.6351 19.4315 51.3251 17.1909 42.9019C16.9935 40.1832 17.455 37.3921 18.0332 34.7429C18.9895 34.7095 19.4676 34.6928 20.4267 34.665C21.7861 46.1378 22.5172 58.097 25.4334 69.3029Z" fill="#D42F55"/>
</g>
<path d="M66.7096 36.4023C64.8665 34.7677 62.9734 33.2749 60.9524 31.8682C60.9524 31.8682 60.9524 31.8682 60.9496 31.8654C56.4267 28.9632 51.6369 26.6225 46.4745 25.1019C46.0242 24.9685 45.6211 24.86 45.268 24.7683C45.193 24.7488 45.1541 24.7377 45.079 24.7183C45.004 24.7377 44.965 24.7488 44.89 24.7683C36.906 26.8449 29.5921 30.9369 23.4429 36.3995C23.3456 36.4912 23.2955 36.5357 23.1982 36.6247C23.2149 36.7609 23.2233 36.8276 23.2399 36.961C23.2816 37.2891 23.3289 37.6421 23.3789 38.0174C23.7959 41.1504 24.263 44.3028 24.7995 47.408C25.778 53.0735 26.6009 59.7953 29.5476 64.9159C29.5531 64.9243 29.5559 64.9298 29.5615 64.9382C29.567 64.9465 29.5698 64.9521 29.5754 64.9576C31.8021 67.7932 35.2464 69.8809 38.1403 71.8991C39.1939 72.633 40.2503 73.3363 41.2288 73.9841C42.3964 74.7541 43.5723 75.513 44.7565 76.2553C44.8816 76.3331 44.9428 76.372 45.0651 76.4498C45.1902 76.372 45.2514 76.3331 45.3765 76.2553C45.4237 76.2247 45.471 76.1941 45.521 76.1635C47.681 74.7791 49.8827 73.3614 51.9955 71.8991C54.8949 69.8892 58.3365 67.7987 60.5632 64.9576C60.5687 64.9493 60.5715 64.9465 60.5771 64.9354C60.5826 64.9271 60.5854 64.9215 60.591 64.9132C63.5405 59.787 64.3633 53.0763 65.3447 47.408C65.8228 44.6559 66.2481 41.8676 66.6262 39.0905C66.7318 38.3065 66.8291 37.5921 66.907 36.9638C66.9236 36.8276 66.9348 36.7609 66.9514 36.6275C66.8541 36.5357 66.8041 36.4912 66.7068 36.4023H66.7096ZM62.6843 47.0716C61.8058 52.3896 61.0608 58.5277 58.4894 63.4092C56.2932 65.8528 53.3326 67.7292 50.6694 69.5612C48.8375 70.8205 46.9555 72.0548 45.0651 73.2502C43.1748 72.0548 41.2955 70.8205 39.4636 69.5612C36.8004 67.7292 33.8592 65.8389 31.6464 63.4092C29.0722 58.5193 28.3383 52.4035 27.4599 47.0688C26.9539 43.997 26.5119 40.8835 26.1366 37.7756C31.6853 33.0997 38.0653 29.5525 45.0762 27.6094C52.0844 29.5525 58.4643 33.1025 64.0131 37.7783C63.6322 40.8835 63.193 43.997 62.687 47.0688L62.6843 47.0716Z" fill="url(#paint3_linear_327_2398)"/>
<path d="M64.0118 37.7813C63.631 40.8864 63.1918 43.9999 62.6858 47.0718C61.8074 52.3898 61.0624 58.5278 58.4909 63.4094C56.456 66.42 53.5677 68.7524 50.6571 70.7873C48.8502 72.0522 46.9542 73.2809 45.0667 74.479C43.1819 73.2837 41.286 72.0522 39.479 70.7901C36.5657 68.7524 33.6829 66.4228 31.648 63.4122C29.3295 59.0004 28.6151 53.574 27.745 48.7564C27.6505 48.2143 27.5559 47.6528 27.4614 47.0718C26.961 43.9888 26.5135 40.8864 26.1382 37.7785C27.2196 36.8166 28.3788 35.8826 29.5547 35.0597C33.644 32.1992 38.153 29.8418 42.9317 28.2656C43.7462 27.9959 44.4718 27.7791 45.0778 27.6123C47.4185 28.2684 49.6952 29.119 51.9025 30.0837C56.2948 32.0046 60.3229 34.6622 64.0146 37.7813H64.0118Z" fill="url(#paint4_linear_327_2398)"/>
<path style="mix-blend-mode:multiply" opacity="0.5" d="M66.2155 36.9139C65.3315 37.2587 64.8895 37.4338 64.011 37.7813C58.4651 33.1054 52.0852 29.5555 45.0742 27.6123C45.0742 26.745 45.0742 26.3085 45.0742 25.4412C45.633 25.305 45.911 25.2383 46.4697 25.1021C51.6321 26.6199 56.4219 28.9634 60.9448 31.8656C60.9448 31.8656 60.9448 31.8656 60.9476 31.8684C62.7128 33.5391 64.467 35.221 66.21 36.9139H66.2155Z" fill="url(#paint5_linear_327_2398)"/>
<path d="M66.6265 39.0934C66.2484 41.8734 65.8231 44.6588 65.345 47.411C64.3609 53.0792 63.538 59.79 60.5913 64.9161C60.5857 64.9245 60.583 64.93 60.5774 64.9384C60.5718 64.9467 60.5691 64.9495 60.5635 64.9606C58.3368 67.8017 54.8952 69.8922 51.9958 71.9021C49.883 73.3643 47.7091 74.7876 45.5213 76.1665C45.3406 75.9608 45.2489 75.8579 45.0654 75.655C45.0654 75.1852 45.0654 74.9489 45.0654 74.4791C46.953 73.2837 48.8489 72.0522 50.6559 70.7901C53.5664 68.7552 56.4548 66.4229 58.4897 63.4122C61.0611 58.5334 61.8033 52.3954 62.6846 47.0746C63.1933 44.0028 63.6298 40.8893 64.0106 37.7841C64.8891 37.4338 65.3311 37.2615 66.2151 36.9167C66.3791 37.7896 66.4625 38.2233 66.6265 39.0962V39.0934Z" fill="url(#paint6_linear_327_2398)"/>
<path d="M72.1042 34.7317C71.6649 34.2619 71.1868 33.8004 70.7142 33.3528C70.6503 33.2917 70.5835 33.2305 70.514 33.1666C68.3624 31.1789 65.9772 29.4304 63.5531 27.7874C63.5531 27.7874 62.7469 27.6012 61.5432 26.8339C60.3757 26.0889 59.9837 25.6608 59.9615 25.633C55.5998 23.3229 51.0518 21.3269 46.3176 20.0203C46.2815 20.0092 46.2425 19.9981 46.2064 19.9897C45.6671 19.8452 45.3029 19.7479 45.1556 19.7145C45.1417 19.7145 45.125 19.7062 45.1111 19.7034C45.1 19.7006 45.0917 19.6978 45.0805 19.6951C45.0805 19.6951 45.075 19.6951 45.0694 19.6978C45.0611 19.6978 45.05 19.7034 45.0333 19.7062C35.3202 22.0969 25.5822 27.1175 18.5351 34.2285C18.3683 34.3981 18.1987 34.5704 18.0347 34.7428C18.0402 34.7873 18.043 34.8067 18.0486 34.8512C18.0819 35.1236 18.1848 35.8965 18.346 37.039C18.346 37.0501 18.346 37.0529 18.3488 37.064C19.066 42.0734 19.9028 47.0745 20.9452 52.0284C22.0239 57.1601 23.0663 62.9701 25.8212 67.3958C28.1341 71.1097 32.949 73.8869 36.5156 76.3749C39.315 78.3292 42.1644 80.2168 45.0666 82.0182C47.9689 80.2168 50.8183 78.3264 53.6177 76.3721C57.1788 73.8897 62.0075 71.0958 64.3148 67.393C67.0753 62.9646 68.1178 57.1656 69.1964 52.0284C70.2361 47.0745 71.0784 42.079 71.7984 37.0696C71.7984 37.0585 71.7984 37.0557 71.8012 37.0446C71.9652 35.9048 72.068 35.1292 72.1014 34.8568C72.1069 34.8123 72.1097 34.7928 72.1153 34.7484C72.1153 34.7484 72.1097 34.7428 72.0986 34.7317H72.1042ZM64.6846 47.3275C63.731 52.8985 62.9499 59.5258 60.056 64.5686C57.8237 67.3068 54.5156 69.3501 51.6662 71.321C49.5145 72.8083 47.2989 74.2566 45.0694 75.6577C42.8371 74.2622 40.6243 72.8111 38.4754 71.3238C35.6483 69.3695 32.304 67.3068 30.0884 64.5741C27.1945 59.5369 26.4161 52.8985 25.4654 47.3303C24.8788 43.886 24.3729 40.3972 23.9364 36.9167C29.9967 31.5403 37.2161 27.4983 45.0805 25.4467C52.9449 27.5122 60.1533 31.5375 66.2191 36.9195C65.7826 40.3999 65.2739 43.8887 64.6846 47.3303V47.3275Z" fill="url(#paint7_linear_327_2398)"/>
<g style="mix-blend-mode:soft-light">
<path d="M71.6172 34.7705C71.0306 32.7717 64.5423 28.8493 60.9756 26.6781C56.2247 23.7842 47.468 19.695 45.2552 20.0063C45.2079 20.0147 45.0383 20.0147 44.9911 20.0063C42.781 19.695 33.902 23.32 29.1511 26.2139C25.5844 28.385 19.2184 32.7717 18.6291 34.7705C18.1426 36.4301 19.1851 41.7564 19.691 41.7592C20.1636 41.7592 22.5098 40.9614 23.783 40.3081C24.0805 40.158 23.5412 37.2585 23.9276 36.9082C31.122 30.3727 38.4833 27.3759 44.2572 25.4383C44.9911 25.1909 45.2329 25.2715 45.4803 25.366C50.0172 27.0951 59.1186 30.3754 66.3131 36.9082C66.6967 37.2585 66.1602 40.158 66.4576 40.3081C67.7308 40.9586 70.0771 41.7592 70.5497 41.7592C71.0584 41.7564 72.1009 36.4301 71.6116 34.7705H71.6172Z" fill="white"/>
</g>
<g style="mix-blend-mode:soft-light" opacity="0.7">
<path d="M26.1366 37.7814C26.5174 40.8865 26.9566 44 27.4626 47.0719C28.341 52.3898 29.0861 58.5279 31.6575 63.4095C33.6924 66.4201 36.5807 68.7525 39.4913 70.7874C41.2983 72.0522 43.1942 73.281 45.0817 74.4763C45.0428 66.6731 45.0067 58.8643 45.0762 51.061C45.1457 43.2522 45.3014 35.4212 45.0706 27.6096C38.0624 29.5528 31.6825 33.1027 26.1338 37.7786L26.1366 37.7814Z" fill="#FFF5F2"/>
</g>
<g style="mix-blend-mode:multiply" opacity="0.3">
<path d="M64.0118 37.7813C63.631 40.8864 63.1918 43.9999 62.6858 47.0718C61.8074 52.3897 61.0624 58.5278 58.4909 63.4094C56.456 66.42 53.5677 68.7524 50.6571 70.7873C48.8502 72.0521 46.9542 73.2809 45.0667 74.479C43.1819 73.2836 41.286 72.0521 39.479 70.7901C36.5657 68.7524 33.6829 66.4228 31.648 63.4121C29.3295 59.0004 28.6151 53.574 27.745 48.7564C27.6505 48.2143 27.5559 47.6528 27.4614 47.0718C26.961 43.9888 26.5135 40.8864 26.1382 37.7785C27.2196 36.8166 28.376 35.8992 29.5547 35.0597C29.5769 35.0486 29.5881 35.043 29.6131 35.0319C28.4761 35.9076 27.442 36.9862 27.0528 38.1454C26.1799 40.7391 28.4956 50.8719 29.1794 53.9521C30.0996 58.0858 41.1664 52.1674 44.5802 51.9867C47.9189 51.8087 58.0823 59.662 59.7808 56.543C64.0925 48.6257 61.0012 35.7436 51.8858 30.0864C51.8858 30.0864 51.8914 30.0864 51.9025 30.0864C56.3198 32.0657 60.3229 34.665 64.0146 37.784L64.0118 37.7813Z" fill="#B30053"/>
</g>
<g style="mix-blend-mode:multiply" opacity="0.8">
<path d="M24.0572 37.823C24.8912 38.4819 26.334 39.3603 26.334 39.3603C28.5524 34.8179 34.2317 32.6969 38.7074 31.7016C43.8447 30.5591 49.766 33.3807 54.2083 35.8715C57.2217 37.5617 61.361 39.7384 63.3542 42.6962C64.2716 42.0207 64.7331 41.6843 65.6643 41.0144C65.8812 39.3742 65.9896 38.5514 66.2148 36.9112C55.6455 27.6207 45.0762 25.4385 45.0762 25.4385C45.0762 25.4385 32.8251 28.5742 23.9321 36.9084C23.9822 37.2726 24.0072 37.4561 24.0572 37.823Z" fill="#D42F55"/>
</g>
<g style="mix-blend-mode:multiply" opacity="0.2">
<path d="M70.2467 42.1902C69.3932 41.7538 66.3603 41.1005 65.885 42.3181C65.5958 43.0603 64.8592 47.3414 64.3643 50.0685C63.4025 55.3782 62.5935 56.2844 61.943 59.1589C61.6984 60.2375 66.288 60.1735 66.9552 59.7121C67.4695 59.3562 67.6947 58.3416 68.5175 54.3857C69.2097 51.0554 70.0354 47.7028 70.5107 44.328C70.647 43.3633 70.7971 42.4738 70.2467 42.193V42.1902Z" fill="#DA0553"/>
</g>
<g style="mix-blend-mode:multiply" opacity="0.2">
<path d="M23.9341 41.1143C23.5588 40.828 20.0839 41.6759 19.6947 42.3458C19.2749 43.0686 20.2785 48.3171 20.8289 50.9608C21.9214 56.1982 22.7665 59.2533 23.1974 59.9622C24.1509 61.5301 28.8379 61.683 28.4125 60.2596C27.6592 57.7216 26.903 56.6958 26.1386 51.981C25.6298 48.8536 24.604 41.6286 23.9341 41.1115V41.1143Z" fill="#DA0553"/>
</g>
<g style="mix-blend-mode:multiply" opacity="0.3">
<path d="M45.7273 86.2742C45.3937 86.3354 45.352 82.4629 45.5104 82.2489C47.1172 80.0916 53.7585 77.2811 51.8848 81.4232C51.3316 82.6492 46.9087 86.0546 45.7273 86.2742Z" fill="#B30053"/>
</g>
<g style="mix-blend-mode:soft-light">
<path d="M60.7859 70.9986C61.3391 70.4064 60.2633 65.6444 59.7629 65.9558C58.9984 66.4311 45.3434 75.6382 45.0766 75.9913C44.4789 76.7808 45.0043 81.3816 45.2628 81.426C45.8577 81.5261 59.0012 72.9111 60.7887 70.9986H60.7859Z" fill="white"/>
</g>
<g style="mix-blend-mode:soft-light">
<path d="M38.2912 27.6122C39.1113 27.2508 38.4886 21.8355 37.5963 22.1496C30.3045 24.7183 22.8432 30.4727 22.8599 30.7201C22.8849 31.0593 27.3022 33.2749 29.1425 32.4326C30.4936 31.8154 34.7218 29.18 38.2912 27.6122Z" fill="white"/>
</g>
<g style="mix-blend-mode:multiply" opacity="0.8">
<path d="M72.1181 34.7483C72.1125 34.7927 72.1097 34.8122 72.1042 34.8567C71.9818 35.7323 71.9235 36.1688 71.8039 37.0445C71.8039 37.0556 71.8039 37.0584 71.8012 37.0695C72.6768 33.0303 66.4081 30.5673 63.1306 28.1598C62.1771 27.4593 61.1485 26.7727 60.1227 26.1416C55.8166 23.4979 50.8544 21.2267 45.7783 20.6624C41.9948 20.2426 34.4334 23.4201 29.7937 25.9192C26.0464 27.9374 19.0744 32.8579 18.1459 35.5628C18.1459 35.5517 18.3488 37.05 18.346 37.0417C18.2293 36.166 18.1681 35.7296 18.0486 34.8539C18.043 34.8094 18.0402 34.79 18.0347 34.7455C18.2015 34.5703 18.3683 34.398 18.5351 34.2312C25.6322 27.1952 35.1784 22.044 45.0333 19.7089C45.0472 19.7061 45.0611 19.7033 45.0694 19.7005C45.0778 19.7005 45.0805 19.6978 45.0805 19.6978C45.0917 19.7005 45.1 19.7033 45.1111 19.7061C45.125 19.7061 45.1417 19.7144 45.1556 19.7172C45.5086 19.8062 45.8617 19.9007 46.2064 19.9924C46.2453 20.0035 46.2815 20.0147 46.3176 20.023C51.049 21.324 55.597 23.3228 59.9615 25.6357C59.9837 25.6607 60.3757 26.0916 61.5432 26.8366C62.7497 27.6039 63.5531 27.7901 63.5531 27.7901C65.9883 29.4386 68.3485 31.1733 70.514 33.1693C70.5835 33.2332 70.6503 33.2944 70.7142 33.3555C71.5426 34.1367 72.018 34.6398 72.1042 34.7344C72.1153 34.7455 72.1208 34.751 72.1208 34.751L72.1181 34.7483Z" fill="#D42F55"/>
</g>
<path d="M35.103 68.9081C35.103 68.9081 43.5707 76.1665 44.9968 76.1665C46.3423 76.1665 54.0565 69.6892 54.0565 69.6892C54.051 69.6837 46.0726 74.796 45.108 74.9266C43.087 75.1963 35.1058 68.9081 35.1058 68.9081H35.103Z" fill="white"/>
<path d="M64.4917 48.459C64.5863 48.4812 60.0522 64.5631 60.0522 64.5631C59.9855 64.5325 62.2873 60.7101 63.5243 56.0204C64.097 53.8548 64.489 48.459 64.489 48.459H64.4917Z" fill="white"/>
<path d="M25.6161 48.2393C25.5215 48.2615 29.7331 63.9291 29.7331 63.9291C29.7998 63.8986 27.2924 59.2783 26.4306 56.023C25.8579 53.8575 25.6133 48.2393 25.6133 48.2393H25.6161Z" fill="white"/>
<g style="mix-blend-mode:multiply" opacity="0.2">
<path d="M40.3187 76.1469C42.9541 76.2748 41.2778 74.4734 40.2298 73.7923C39.2429 73.1502 36.3184 72.1689 36.1322 72.5108C35.8319 73.0557 38.5646 76.0608 40.3187 76.1469Z" fill="#EE9C50"/>
</g>
<g style="mix-blend-mode:multiply" opacity="0.2">
<path d="M40.9159 77.2062C39.2674 76.539 38.6892 76.3083 39.4759 77.6148C40.2626 78.9214 41.9778 77.6371 40.9159 77.2062Z" fill="#EE9C50"/>
</g>
<path d="M31.8391 72.9779C31.4527 73.659 33.5182 77.0755 35.2279 75.2713C35.5253 74.9572 32.131 72.4664 31.8391 72.9779Z" fill="#ED4800"/>
<g style="mix-blend-mode:multiply" opacity="0.8">
<path d="M31.8929 73.2169C31.7928 73.7312 32.5434 75.1128 33.0299 75.1907C33.5136 75.2685 34.506 74.4095 33.5219 73.7813C32.421 73.0835 31.9707 72.8278 31.8956 73.2169H31.8929Z" fill="#D42F55"/>
</g>
<path d="M33.2661 75.5493C34.6255 76.3249 35.6235 75.9468 35.465 75.4131C35.3094 74.8793 34.8924 74.7264 34.8924 74.7264C34.8924 74.7264 35.301 75.0434 35.0814 75.363C34.8618 75.68 33.2661 75.5493 33.2661 75.5493Z" fill="white"/>
<path d="M63.5526 27.7874C63.4053 27.9319 63.2635 28.0598 63.1301 28.1599C61.6095 29.2635 59.7914 28.0209 59.7803 26.2529C59.7803 25.8609 59.961 25.6329 59.961 25.6329C59.9832 25.658 60.3752 26.0888 61.5427 26.8339C62.7492 27.6011 63.5526 27.7874 63.5526 27.7874Z" fill="#ED4800"/>
<g style="mix-blend-mode:multiply" opacity="0.8">
<path d="M59.8885 25.7582C59.73 26.2391 59.8913 27.693 60.475 27.907C61.056 28.1211 61.4063 27.1064 61.2479 26.859C61.0894 26.6144 59.9719 25.5052 59.8885 25.7554V25.7582Z" fill="#D42F55"/>
</g>
<path d="M60.4355 28.0237C60.4355 28.0237 61.5725 29.119 63.3378 27.9875C63.3378 27.9875 63.1376 29.0634 61.8867 29.0662C61.2111 29.0662 60.4355 28.0237 60.4355 28.0237Z" fill="white"/>
<g style="mix-blend-mode:multiply" opacity="0.2">
<path d="M45.1929 20.4374C44.9427 21.9524 44.8481 24.5989 45.4097 25.1021C45.9712 25.6053 53.4214 28.2267 53.6466 28.2267C53.8718 28.2267 54.5473 23.398 53.4214 22.7225C52.2956 22.0497 45.3485 19.5033 45.1929 20.4374Z" fill="#DA0553"/>
</g>
<path d="M69.9612 69.9202C68.6658 71.2684 68.3933 71.5075 68.0097 71.7744C65.9192 73.2283 61.2017 73.6314 61.2017 73.6314L61.8911 70.2788L69.9612 69.9202Z" fill="url(#paint8_linear_327_2398)"/>
<path d="M66.0918 63.8404C69.7502 65.3527 70.3951 69.5838 69.9615 69.9201C66.67 72.4582 61.8914 70.2787 61.8914 70.2787C61.8914 70.2787 60.2873 65.5501 60.9406 64.566C61.5188 63.6931 66.0918 63.8404 66.0918 63.8404Z" fill="url(#paint9_linear_327_2398)"/>
<g style="mix-blend-mode:multiply" opacity="0.2">
<path d="M69.4031 70.0312C69.9647 69.5947 61.3692 64.5825 60.9383 64.8466C60.5074 65.1107 61.1996 69.7004 62.2865 70.3286C62.634 70.5288 66.8484 72.0188 69.4031 70.0312Z" fill="#DA0553"/>
</g>
<g style="mix-blend-mode:soft-light">
<path d="M69.8203 69.6228C70.115 69.4115 70.0177 66.4425 66.9515 64.3604C65.6588 63.4819 61.0942 64.2381 61.197 64.3465C61.2999 64.4549 69.5257 69.834 69.8176 69.6228H69.8203Z" fill="white"/>
</g>
<path d="M20.0112 69.9202C21.3067 71.2684 21.5791 71.5075 21.9627 71.7744C24.0532 73.2283 28.7708 73.6314 28.7708 73.6314L28.0813 70.2788L20.0112 69.9202Z" fill="url(#paint10_linear_327_2398)"/>
<path d="M23.8802 63.8404C20.2246 65.3527 19.5769 69.5838 20.0106 69.9201C23.302 72.4582 28.0807 70.2787 28.0807 70.2787C28.0807 70.2787 29.6847 65.5501 29.0314 64.566C28.4532 63.6931 23.8802 63.8404 23.8802 63.8404Z" fill="url(#paint11_linear_327_2398)"/>
<g style="mix-blend-mode:multiply" opacity="0.2">
<path d="M20.5693 70.0312C20.0078 69.5947 28.6033 64.5825 29.0342 64.8466C29.4651 65.1107 28.7729 69.7004 27.6859 70.3286C27.3384 70.5288 23.1241 72.0188 20.5693 70.0312Z" fill="#DA0553"/>
</g>
<g style="mix-blend-mode:soft-light">
<path d="M20.1502 69.6228C19.8555 69.4115 19.9528 66.4425 23.0191 64.3604C24.3117 63.4819 28.8764 64.2381 28.7735 64.3465C28.6706 64.4549 20.4448 69.834 20.153 69.6228H20.1502Z" fill="white"/>
</g>
<path d="M78.1039 38.7708C77.4589 40.5278 77.306 40.8558 77.0614 41.2533C75.7326 43.4272 72.0103 45.6901 72.0103 45.6901L70.8594 42.343L78.1066 38.7681L78.1039 38.7708Z" fill="url(#paint12_linear_327_2398)"/>
<path d="M72.1167 34.7624C76.0725 34.6762 78.366 38.2901 78.1046 38.771C76.1114 42.4183 70.8574 42.346 70.8574 42.346C70.8574 42.346 67.4881 38.6598 67.6883 37.4978C67.8662 36.4665 72.1139 34.7624 72.1139 34.7624H72.1167Z" fill="url(#paint13_linear_327_2398)"/>
<g style="mix-blend-mode:multiply" opacity="0.2">
<path d="M77.6369 39.0964C77.9733 38.4709 68.0907 37.3367 67.8016 37.7509C67.5125 38.1651 69.9921 42.0904 71.2403 42.2294C71.6379 42.2739 76.0996 41.9431 77.6342 39.0964H77.6369Z" fill="#DA0553"/>
</g>
<g style="mix-blend-mode:soft-light">
<path d="M77.8576 38.5569C78.0411 38.2455 76.7595 35.5657 73.115 34.8929C71.5805 34.6094 67.7025 37.1363 67.8415 37.1947C67.9805 37.2531 77.6741 38.8682 77.8576 38.5596V38.5569Z" fill="white"/>
</g>
<path d="M11.9492 38.7708C12.5942 40.5278 12.7471 40.8558 12.9917 41.2533C14.3205 43.4272 17.6786 45.3676 17.6786 45.3676L19.1965 42.343L11.9492 38.7681V38.7708Z" fill="url(#paint14_linear_327_2398)"/>
<path d="M17.9378 34.7624C13.982 34.6762 11.6885 38.2901 11.9499 38.771C13.9431 42.4183 19.1971 42.346 19.1971 42.346C19.1971 42.346 22.5664 38.6598 22.3662 37.4978C22.1883 36.4665 17.9406 34.7624 17.9406 34.7624H17.9378Z" fill="url(#paint15_linear_327_2398)"/>
<g style="mix-blend-mode:multiply" opacity="0.2">
<path d="M12.4146 39.0964C12.0783 38.4709 21.9609 37.3367 22.25 37.7509C22.5391 38.1651 20.0594 42.0904 18.8112 42.2294C18.4137 42.2739 13.9547 41.9431 12.4174 39.0964H12.4146Z" fill="#DA0553"/>
</g>
<g style="mix-blend-mode:soft-light">
<path d="M12.1972 38.5569C12.0137 38.2455 13.2953 35.5657 16.9397 34.8929C18.4743 34.6094 22.3523 37.1363 22.2133 37.1947C22.0743 37.2531 12.3807 38.8682 12.1972 38.5596V38.5569Z" fill="white"/>
</g>
<path d="M43.1125 22.2556C42.4871 23.5482 44.458 26.2114 46.2455 24.1876C48.2276 21.947 44.4636 19.4645 43.1125 22.2556Z" fill="url(#paint16_linear_327_2398)"/>
<path d="M43.6285 22.247C43.2421 23.0226 43.5312 23.8094 44.2345 24.2903C45.0435 24.8435 46.0359 24.1902 46.3806 23.5091C46.8699 22.5389 45.9386 21.5326 45.3576 21.3686C44.7794 21.2046 43.9037 21.6938 43.6285 22.247Z" fill="url(#paint17_linear_327_2398)"/>
<g style="mix-blend-mode:multiply" opacity="0.4">
<path d="M43.4917 22.9281C43.4639 23.0504 43.4917 23.7315 44.0087 24.0845C44.5258 24.4376 44.8928 24.4987 44.9317 24.4404C44.9706 24.382 44.9706 23.9122 44.9456 23.8872C44.9206 23.8621 44.5175 23.6648 44.3229 23.3979C44.1283 23.1282 44.0616 23.0365 44.006 23.0309C43.9504 23.0254 43.5111 22.8447 43.4917 22.9281Z" fill="#B82774"/>
</g>
<g style="mix-blend-mode:soft-light">
<path d="M44.1125 23.0005C44.0403 23.3146 44.9382 23.8984 45.0216 23.8872C45.408 23.8317 45.8778 22.9782 45.8861 22.7002C45.8917 22.5112 45.1689 21.9079 44.9354 21.9802C44.7047 22.0525 44.1709 22.7586 44.1125 23.0032V23.0005Z" fill="white"/>
</g>
<g style="mix-blend-mode:multiply" opacity="0.8">
<path d="M45.0217 23.8873C44.916 23.9317 44.9522 24.4182 44.9911 24.4238C45.3997 24.4711 45.8167 24.2459 46.2254 23.7149C46.5562 23.284 46.5284 22.703 46.3866 22.5251C46.3338 22.4612 45.889 22.6252 45.8862 22.7002C45.8751 23.1645 45.3747 23.7399 45.0217 23.8873Z" fill="#B82774"/>
</g>
<path opacity="0.75" d="M43.46 22.82C43.4544 22.8922 43.991 23.0674 44.0327 23.0229C44.0966 22.9506 44.9056 21.9971 44.9111 21.9387C44.9167 21.8442 44.9389 21.3827 44.8027 21.3744C44.7582 21.3744 44.1717 21.5467 43.8214 21.9665C43.4683 22.3891 43.4683 22.7254 43.4628 22.8172L43.46 22.82Z" fill="white"/>
<path d="M43.627 22.247C43.627 22.247 43.8771 21.8217 44.3192 21.577C44.3192 21.577 44.5582 21.6493 44.372 21.9495C44.1857 22.2498 43.6297 22.247 43.6297 22.247H43.627Z" fill="white"/>
<path d="M44.7492 23.7428C44.7325 23.7679 44.9049 24.107 44.9521 24.0959C44.9994 24.0875 45.1801 23.8235 45.1578 23.8235C45.1356 23.8235 44.7853 23.6845 44.7492 23.7428Z" fill="white"/>
<path d="M45.8099 22.5444C45.7404 22.6306 45.8016 22.9253 45.8405 22.9336C45.8794 22.9447 46.0573 22.6084 46.0379 22.5889C46.0156 22.5667 45.8739 22.4666 45.8099 22.5444Z" fill="white"/>
<path d="M44.3457 24.8213C44.3457 24.8213 45.3215 25.1215 46.2472 24.1874C47.095 23.3312 46.7476 22.3749 46.7114 22.2832C46.7114 22.2832 47.3425 23.4091 46.2388 24.4404C45.2909 25.3272 44.3485 24.8241 44.3485 24.8241L44.3457 24.8213Z" fill="#FFF7C4"/>
<g style="mix-blend-mode:multiply" opacity="0.5">
<path d="M44.0089 24.6462C43.4807 23.9762 43.0387 22.7975 43.9533 21.8496C44.8679 20.9016 46.0272 21.5994 46.4275 21.7829C46.4275 21.7829 45.0431 19.8925 43.4446 21.0184C42.6634 21.5688 42.5828 22.4862 42.8191 23.1256C43.1638 24.0541 44.0061 24.649 44.0061 24.649L44.0089 24.6462Z" fill="#E54136"/>
</g>
<path d="M43.1125 78.0375C42.4871 79.3302 44.458 81.9934 46.2455 79.9696C48.2276 77.729 44.4636 75.2465 43.1125 78.0375Z" fill="url(#paint18_linear_327_2398)"/>
<path d="M43.6285 78.0263C43.2421 78.8019 43.5312 79.5887 44.2345 80.0696C45.0435 80.6228 46.0359 79.9695 46.3806 79.2884C46.8699 78.3182 45.9386 77.3119 45.3576 77.1479C44.7794 76.9839 43.9037 77.4731 43.6285 78.0263Z" fill="url(#paint19_linear_327_2398)"/>
<g style="mix-blend-mode:multiply" opacity="0.4">
<path d="M43.4917 78.7073C43.4639 78.8296 43.4917 79.5107 44.0087 79.8637C44.5258 80.2168 44.8928 80.2779 44.9317 80.2195C44.9706 80.1612 44.9706 79.6913 44.9456 79.6663C44.9206 79.6413 44.5175 79.4439 44.3229 79.1771C44.1283 78.9102 44.0616 78.8157 44.006 78.8101C43.9504 78.8046 43.5111 78.6239 43.4917 78.7073Z" fill="#B82774"/>
</g>
<g style="mix-blend-mode:soft-light">
<path d="M44.1125 78.7796C44.0403 79.0938 44.9382 79.6775 45.0216 79.6664C45.408 79.6108 45.8778 78.7574 45.8861 78.4794C45.8917 78.2904 45.1689 77.6871 44.9354 77.7594C44.7047 77.8317 44.1709 78.5378 44.1125 78.7824V78.7796Z" fill="white"/>
</g>
<g style="mix-blend-mode:multiply" opacity="0.8">
<path d="M45.0217 79.6693C44.916 79.7138 44.9522 80.2003 44.9911 80.2059C45.3997 80.2531 45.8167 80.0279 46.2254 79.497C46.5562 79.0661 46.5284 78.4851 46.3866 78.3072C46.3338 78.2405 45.889 78.4073 45.8862 78.4823C45.8751 78.9466 45.3747 79.522 45.0217 79.6693Z" fill="#B82774"/>
</g>
<path opacity="0.75" d="M43.46 78.6019C43.4544 78.6742 43.991 78.8493 44.0327 78.8049C44.0966 78.7326 44.9056 77.7791 44.9111 77.7207C44.9167 77.6262 44.9389 77.1647 44.8027 77.1564C44.7582 77.1564 44.1717 77.3287 43.8214 77.7485C43.4683 78.171 43.4683 78.5074 43.4628 78.5992L43.46 78.6019Z" fill="white"/>
<path d="M43.627 78.0263C43.627 78.0263 43.8771 77.601 44.3192 77.3563C44.3192 77.3563 44.5582 77.4286 44.372 77.7288C44.1857 78.0291 43.6297 78.0263 43.6297 78.0263H43.627Z" fill="white"/>
<path d="M44.7492 79.5248C44.7325 79.5498 44.9049 79.889 44.9521 79.8779C44.9994 79.8695 45.1801 79.6054 45.1578 79.6054C45.1356 79.6054 44.7853 79.4664 44.7492 79.5248Z" fill="white"/>
<path d="M45.8099 78.3264C45.7404 78.4126 45.8016 78.7073 45.8405 78.7156C45.8794 78.7267 46.0573 78.3904 46.0379 78.3709C46.0156 78.3487 45.8739 78.2486 45.8099 78.3264Z" fill="white"/>
<path d="M44.3457 80.6032C44.3457 80.6032 45.3215 80.9035 46.2472 79.9694C47.095 79.1132 46.7476 78.1569 46.7114 78.0652C46.7114 78.0652 47.3425 79.191 46.2388 80.2224C45.2909 81.1092 44.3485 80.606 44.3485 80.606L44.3457 80.6032Z" fill="#FFF7C4"/>
<g style="mix-blend-mode:multiply" opacity="0.5">
<path d="M44.0089 80.4282C43.4807 79.7582 43.0387 78.5795 43.9533 77.6316C44.8679 76.6836 46.0272 77.3814 46.4275 77.5649C46.4275 77.5649 45.0431 75.6745 43.4446 76.8004C42.6634 77.3508 42.5828 78.2682 42.8191 78.9076C43.1638 79.8361 44.0061 80.431 44.0061 80.431L44.0089 80.4282Z" fill="#E54136"/>
</g>
<path d="M22.0217 32.7305C21.3962 34.0232 23.3672 36.6864 25.1547 34.6626C27.1368 32.422 23.3728 29.9395 22.0217 32.7305Z" fill="url(#paint20_linear_327_2398)"/>
<path d="M22.5377 32.722C22.1513 33.4976 22.4404 34.2843 23.1437 34.7653C23.9527 35.3185 24.9451 34.6652 25.2898 33.9841C25.7791 33.0139 24.8478 32.0076 24.2668 31.8436C23.6886 31.6795 22.8129 32.1688 22.5377 32.722Z" fill="url(#paint21_linear_327_2398)"/>
<g style="mix-blend-mode:multiply" opacity="0.4">
<path d="M22.4009 33.4031C22.3731 33.5254 22.4009 34.2065 22.9179 34.5595C23.435 34.9126 23.7992 34.9737 23.8409 34.9153C23.8798 34.857 23.8798 34.3871 23.8548 34.3621C23.8297 34.3371 23.4267 34.1397 23.2321 33.8729C23.0375 33.6032 22.9707 33.5115 22.9151 33.5059C22.8595 33.5004 22.4203 33.3197 22.4009 33.4031Z" fill="#B82774"/>
</g>
<g style="mix-blend-mode:soft-light">
<path d="M23.0217 33.4754C22.9494 33.7895 23.8474 34.3733 23.9307 34.3622C24.3172 34.3066 24.787 33.4504 24.7953 33.1724C24.8009 32.9834 24.0781 32.3801 23.8446 32.4524C23.6138 32.5247 23.0801 33.2308 23.0217 33.4754Z" fill="white"/>
</g>
<g style="mix-blend-mode:multiply" opacity="0.8">
<path d="M23.93 34.3622C23.8215 34.4067 23.8605 34.8932 23.8994 34.8988C24.3052 34.946 24.725 34.7209 25.1337 34.1899C25.4645 33.759 25.4367 33.178 25.2949 33.0001C25.2421 32.9361 24.7973 33.1002 24.7945 33.1752C24.7834 33.6395 24.283 34.2149 23.93 34.365V34.3622Z" fill="#B82774"/>
</g>
<path opacity="0.75" d="M22.3692 33.2976C22.3636 33.3699 22.9001 33.545 22.9418 33.5005C23.0058 33.4283 23.8147 32.4748 23.8175 32.4164C23.8231 32.3219 23.8453 31.8604 23.7091 31.8521C23.6646 31.8521 23.0781 32.0244 22.7278 32.4442C22.3747 32.8667 22.3747 33.2031 22.3692 33.2948V33.2976Z" fill="white"/>
<path d="M22.5361 32.722C22.5361 32.722 22.7863 32.2966 23.2283 32.052C23.2283 32.052 23.4674 32.1243 23.2812 32.4245C23.0949 32.7247 22.5389 32.722 22.5389 32.722H22.5361Z" fill="white"/>
<path d="M23.6584 34.2205C23.6417 34.2455 23.814 34.5847 23.8613 34.5735C23.9086 34.5652 24.0892 34.3011 24.067 34.3011C24.0448 34.3011 23.6945 34.1621 23.6584 34.2205Z" fill="white"/>
<path d="M24.7191 33.0221C24.6496 33.1083 24.7108 33.4029 24.7497 33.4113C24.7886 33.4224 24.9665 33.086 24.9471 33.0666C24.9248 33.0443 24.7831 32.9443 24.7191 33.0221Z" fill="white"/>
<path d="M23.2549 35.2989C23.2549 35.2989 24.2306 35.5992 25.1564 34.6651C26.0042 33.8089 25.6567 32.8526 25.6206 32.7609C25.6206 32.7609 26.2516 33.8867 25.148 34.9181C24.2001 35.8049 23.2577 35.3017 23.2577 35.3017L23.2549 35.2989Z" fill="#FFF7C4"/>
<g style="mix-blend-mode:multiply" opacity="0.5">
<path d="M22.9181 35.1239C22.3899 34.4539 21.9479 33.2752 22.8625 32.3273C23.7771 31.3793 24.9363 32.0771 25.3366 32.2605C25.3366 32.2605 23.9522 30.3702 22.3538 31.4961C21.5726 32.0465 21.492 32.9639 21.7283 33.6032C22.073 34.5317 22.9153 35.1266 22.9153 35.1266L22.9181 35.1239Z" fill="#E54136"/>
</g>
<path d="M21.9709 32.7164C21.3455 34.009 23.3164 36.6722 25.1039 34.6484C27.086 32.4078 23.322 29.9253 21.9709 32.7164Z" fill="url(#paint22_linear_327_2398)"/>
<path d="M22.4889 32.7079C22.1025 33.4835 22.3916 34.2702 23.0949 34.7511C23.9038 35.3071 24.8963 34.651 25.241 33.9699C25.7303 32.9998 24.799 31.9934 24.218 31.8294C23.6398 31.6654 22.7641 32.1547 22.4889 32.7079Z" fill="url(#paint23_linear_327_2398)"/>
<g style="mix-blend-mode:multiply" opacity="0.4">
<path d="M22.3501 33.3889C22.3223 33.5112 22.3501 34.1923 22.8671 34.5453C23.3842 34.8984 23.7484 34.9596 23.7901 34.9012C23.829 34.8428 23.829 34.373 23.804 34.348C23.779 34.323 23.3759 34.1256 23.1813 33.8587C22.9867 33.5918 22.92 33.4973 22.8644 33.4918C22.8088 33.4862 22.3695 33.3055 22.3501 33.3889Z" fill="#B82774"/>
</g>
<g style="mix-blend-mode:soft-light">
<path d="M22.9729 33.4614C22.9006 33.7756 23.7985 34.3594 23.8819 34.3482C24.2683 34.2926 24.7381 33.4364 24.7465 33.1612C24.752 32.9722 24.0293 32.3662 23.7957 32.4412C23.565 32.5135 23.0313 33.2196 22.9729 33.4642V33.4614Z" fill="white"/>
</g>
<g style="mix-blend-mode:multiply" opacity="0.8">
<path d="M23.882 34.3481C23.7764 34.3926 23.8125 34.879 23.8514 34.8846C24.2573 34.9319 24.6771 34.7067 25.0857 34.1757C25.4165 33.7448 25.3887 33.1638 25.247 32.9859C25.1941 32.922 24.7494 33.086 24.7466 33.1611C24.7355 33.6253 24.2351 34.2007 23.882 34.3481Z" fill="#B82774"/>
</g>
<path opacity="0.75" d="M22.3233 33.2808C22.3177 33.353 22.8542 33.5282 22.8959 33.4837C22.9599 33.4114 23.7688 32.4579 23.7716 32.3995C23.7772 32.305 23.7994 31.8435 23.6632 31.8352C23.6187 31.8352 23.0322 32.0076 22.6819 32.4273C22.3288 32.8499 22.3288 33.1862 22.3233 33.278V33.2808Z" fill="white"/>
<path d="M22.4902 32.7078C22.4902 32.7078 22.7404 32.2825 23.1824 32.0378C23.1824 32.0378 23.4215 32.1101 23.2353 32.4104C23.049 32.7106 22.493 32.7078 22.493 32.7078H22.4902Z" fill="white"/>
<path d="M23.6095 34.2035C23.5929 34.2285 23.7652 34.5677 23.8125 34.5566C23.8597 34.5482 24.0404 34.2841 24.0182 34.2841C23.9959 34.2841 23.6457 34.1451 23.6095 34.2035Z" fill="white"/>
<path d="M24.6683 33.0083C24.5988 33.0945 24.66 33.3891 24.6989 33.3975C24.7378 33.4086 24.9157 33.0722 24.8963 33.0528C24.874 33.0305 24.7323 32.9305 24.6683 33.0083Z" fill="white"/>
<path d="M23.2061 35.2849C23.2061 35.2849 24.1818 35.5851 25.1075 34.6511C25.9554 33.7949 25.6079 32.8386 25.5718 32.7468C25.5718 32.7468 26.2028 33.8727 25.0992 34.904C24.1512 35.7908 23.2088 35.2877 23.2088 35.2877L23.2061 35.2849Z" fill="#FFF7C4"/>
<g style="mix-blend-mode:multiply" opacity="0.5">
<path d="M22.8673 35.107C22.3391 34.4371 21.8971 33.2584 22.8117 32.3104C23.7263 31.3625 24.8856 32.0602 25.2859 32.2437C25.2859 32.2437 23.9015 30.3533 22.303 31.4792C21.5218 32.0296 21.4412 32.947 21.6775 33.5864C22.0222 34.5149 22.8645 35.1098 22.8645 35.1098L22.8673 35.107Z" fill="#E54136"/>
</g>
<path d="M64.5344 32.7164C63.9089 34.009 65.8799 36.6722 67.6674 34.6484C69.6495 32.4078 65.8855 29.9253 64.5344 32.7164Z" fill="url(#paint24_linear_327_2398)"/>
<path d="M65.0499 32.7079C64.6635 33.4835 64.9526 34.2702 65.6559 34.7511C66.4649 35.3071 67.4573 34.651 67.802 33.9699C68.2913 32.9998 67.3572 31.9934 66.779 31.8294C66.2008 31.6654 65.3251 32.1547 65.0499 32.7079Z" fill="url(#paint25_linear_327_2398)"/>
<g style="mix-blend-mode:multiply" opacity="0.4">
<path d="M64.9136 33.3889C64.8858 33.5112 64.9136 34.1923 65.4306 34.5453C65.9477 34.8984 66.3146 34.9596 66.3536 34.9012C66.3925 34.8428 66.3925 34.373 66.3675 34.348C66.3424 34.323 65.9393 34.1256 65.7447 33.8587C65.5502 33.5918 65.4834 33.4973 65.4278 33.4918C65.3722 33.4862 64.933 33.3055 64.9136 33.3889Z" fill="#B82774"/>
</g>
<g style="mix-blend-mode:soft-light">
<path d="M65.532 33.4614C65.4597 33.7756 66.3576 34.3594 66.441 34.3482C66.8274 34.2926 67.2972 33.4364 67.3056 33.1612C67.3111 32.9722 66.5883 32.3662 66.3548 32.4412C66.1241 32.5135 65.5903 33.2196 65.532 33.4642V33.4614Z" fill="white"/>
</g>
<g style="mix-blend-mode:multiply" opacity="0.8">
<path d="M66.4422 34.3481C66.3337 34.3926 66.3727 34.879 66.4116 34.8846C66.8202 34.9319 67.2372 34.7067 67.6459 34.1757C67.9767 33.7448 67.9489 33.1638 67.8071 32.9859C67.7543 32.922 67.3095 33.086 67.3067 33.1611C67.2956 33.6253 66.7952 34.2007 66.4422 34.3481Z" fill="#B82774"/>
</g>
<path opacity="0.75" d="M64.8819 33.2808C64.8763 33.353 65.4128 33.5282 65.4545 33.4837C65.5185 33.4114 66.3274 32.4579 66.3302 32.3995C66.3358 32.305 66.358 31.8435 66.2218 31.8352C66.1773 31.8352 65.5908 32.0076 65.2405 32.4273C64.8874 32.8499 64.8874 33.1862 64.8819 33.278V33.2808Z" fill="white"/>
<path d="M65.0488 32.7078C65.0488 32.7078 65.299 32.2825 65.741 32.0378C65.741 32.0378 65.9801 32.1101 65.7938 32.4104C65.6076 32.7106 65.0516 32.7078 65.0516 32.7078H65.0488Z" fill="white"/>
<path d="M66.1681 34.2035C66.1514 34.2285 66.3238 34.5677 66.3711 34.5566C66.4183 34.5482 66.599 34.2841 66.5768 34.2841C66.5545 34.2841 66.2043 34.1451 66.1681 34.2035Z" fill="white"/>
<path d="M67.2318 33.0083C67.1623 33.0945 67.2235 33.3891 67.2624 33.3975C67.3013 33.4086 67.4792 33.0722 67.4598 33.0528C67.4375 33.0305 67.2957 32.9305 67.2318 33.0083Z" fill="white"/>
<path d="M65.7651 35.2849C65.7651 35.2849 66.7409 35.5851 67.6666 34.6511C68.5145 33.7949 68.167 32.8386 68.1309 32.7468C68.1309 32.7468 68.7619 33.8727 67.6583 34.904C66.7103 35.7908 65.7679 35.2877 65.7679 35.2877L65.7651 35.2849Z" fill="#FFF7C4"/>
<g style="mix-blend-mode:multiply" opacity="0.5">
<path d="M65.43 35.107C64.9018 34.4371 64.4598 33.2584 65.3744 32.3104C66.289 31.3625 67.4482 32.0602 67.8513 32.2437C67.8513 32.2437 66.4669 30.3533 64.8684 31.4792C64.0873 32.0296 64.0067 32.947 64.243 33.5864C64.5877 34.5149 65.43 35.1098 65.43 35.1098V35.107Z" fill="#E54136"/>
</g>
<path d="M36.8179 63.351C36.5427 63.351 36.3148 63.2815 36.148 63.1453C35.1528 62.3447 35.8172 59.056 36.7206 55.1586C36.9069 54.3496 37.1015 53.5184 37.1154 53.2821C36.9541 53.0319 36.0451 52.2814 35.2417 51.6142C32.4674 49.3152 30.3657 47.4637 30.6159 46.2712C30.8244 45.2732 33.0539 44.8895 37.6658 44.4531C38.6888 44.3558 39.8453 44.2474 40.1149 44.1529C40.2595 43.9444 40.6209 43.0409 40.9406 42.2403C42.3583 38.7014 43.6399 35.7742 44.9909 35.7742C45.1355 35.7742 45.2856 35.8159 45.4357 35.8937L45.4746 35.9132C46.6672 36.5915 48.1545 39.9719 49.4582 43.0854C49.6584 43.5635 49.8641 44.0556 49.9531 44.2335C50.245 44.3252 51.3041 44.4058 52.2493 44.4753C55.7603 44.7394 58.7154 45.048 59.3325 46.1655C59.3798 46.2461 59.4104 46.349 59.4131 46.4574C59.4715 47.2858 58.0399 48.5396 55.6741 50.5022C54.5483 51.4363 53.0054 52.7178 52.9276 53.0903C52.9109 53.3461 53.1472 54.4108 53.3779 55.4421C54.1952 59.1144 54.8013 62.2279 53.9145 63.1147C53.7643 63.2648 53.5475 63.3427 53.2751 63.3427C52.0797 63.3427 49.5055 61.8359 46.745 60.1541C45.9972 59.701 45.2272 59.2312 44.9714 59.12C44.7296 59.2284 44.0235 59.6759 43.3396 60.1096C40.6709 61.8026 38.1634 63.3232 36.8513 63.3427H36.8207L36.8179 63.351Z" fill="url(#paint26_linear_327_2398)"/>
<path d="M58.6496 46.313C58.7386 47.5918 52.4226 51.6949 52.3531 52.6985C52.2864 53.6798 54.5632 61.0438 53.4095 62.1975C52.4699 63.1371 45.4895 58.2417 44.9752 58.2139H44.9696C44.5276 58.2139 38.99 62.2892 37.0802 62.3198C36.8884 62.3226 36.7327 62.2864 36.6243 62.1975C35.3956 61.2106 37.7752 53.4824 37.689 52.8375C37.6056 52.1925 31.0339 47.803 31.373 46.1851C31.6538 44.8424 39.9741 44.7284 40.4717 44.342C40.9693 43.9529 43.2794 36.2914 44.9947 36.2914C45.0864 36.2914 45.1865 36.322 45.2866 36.3803H45.2921C46.81 37.2449 49.2646 43.9807 49.5537 44.3949C49.8651 44.8369 57.7601 44.6423 58.6135 46.1879C58.6357 46.2268 58.6469 46.2685 58.6496 46.3158V46.313Z" fill="url(#paint27_linear_327_2398)"/>
<g style="mix-blend-mode:multiply" opacity="0.2">
<path d="M44.9835 50.1603L37.689 52.8374C37.6056 52.1925 31.0339 47.803 31.373 46.1851L44.9835 50.1603Z" fill="#DA0553"/>
</g>
<g style="mix-blend-mode:multiply" opacity="0.2">
<path d="M49.5536 44.3918L44.9834 50.1601L44.9945 36.2883L45.2864 36.3773H45.292C46.8098 37.2418 49.2645 43.9776 49.5536 44.3918Z" fill="#DA0553"/>
</g>
<g style="mix-blend-mode:multiply" opacity="0.2">
<path d="M58.6495 46.3129C58.7385 47.5917 52.4225 51.6949 52.353 52.6984L44.9834 50.1603L58.6134 46.1851L58.6495 46.3129Z" fill="#DA0553"/>
</g>
<g style="mix-blend-mode:multiply" opacity="0.2">
<path d="M53.4076 62.1972C52.468 63.1369 45.4876 58.2414 44.9733 58.2136V58.2192L44.9678 58.2136L44.9789 50.163L53.4076 62.2V62.1972Z" fill="#DA0553"/>
</g>
<g style="mix-blend-mode:multiply" opacity="0.2">
<path d="M44.9814 50.1602L44.9759 58.2109V58.2165L44.9703 58.2109C44.5283 58.2109 38.9907 62.2863 37.0809 62.3169L36.625 62.1945L44.9842 50.1575L44.9814 50.1602Z" fill="#DA0553"/>
</g>
<g style="mix-blend-mode:soft-light">
<path d="M44.9816 50.1602L31.3711 46.1849C31.6519 44.8422 39.9722 44.7282 40.4698 44.3418L44.9816 50.163V50.1602Z" fill="white"/>
</g>
<g style="mix-blend-mode:multiply" opacity="0.5">
<path d="M31.3696 46.185C29.0845 46.855 35.395 59.0866 36.5181 58.489C37.6384 57.894 44.0711 51.5086 44.9801 50.1603C44.9801 50.1603 32.8819 45.7402 31.3696 46.185Z" fill="#D42F55"/>
</g>
<g style="mix-blend-mode:multiply" opacity="0.5">
<path d="M58.6159 46.185C60.901 46.855 54.5905 59.0866 53.4675 58.489C52.3471 57.894 45.9144 51.5086 45.0054 50.1603C45.0054 50.1603 57.1036 45.7402 58.6159 46.185Z" fill="#D42F55"/>
</g>
<g style="mix-blend-mode:multiply" opacity="0.3">
<path d="M44.9903 36.2884C44.7123 36.3524 44.9737 58.2109 44.9737 58.2109C45.7687 58.5084 52.574 62.9396 53.4079 62.1945C54.7367 61.0103 52.1876 53.6852 52.3516 52.6955C52.5128 51.7059 59.0512 47.3414 58.6147 46.1822C58.017 44.5948 49.9191 44.7477 49.5522 44.3891C48.8822 43.7386 46.472 35.9465 44.9903 36.2857V36.2884Z" fill="#DA0553"/>
</g>
<g style="mix-blend-mode:multiply" opacity="0.5">
<path d="M44.9823 50.1603C42.8918 53.1126 36.623 61.4913 36.623 62.1974C36.623 63.1982 53.0913 63.3066 53.411 62.1974C53.7335 61.0882 45.3742 49.6071 44.9823 50.1603Z" fill="#D42F55"/>
</g>
<g style="mix-blend-mode:multiply" opacity="0.5">
<path d="M49.2548 48.6674C50.6782 50.3214 48.9212 53.2959 48.4236 54.1271C47.926 54.9583 45.7494 56.5234 45.0016 56.5651C44.2565 56.6068 42.3829 55.5949 41.7463 54.0604C41.1097 52.5259 40.6232 49.9878 41.7463 49.2178C42.8694 48.445 48.4459 47.7333 49.2521 48.6701L49.2548 48.6674Z" fill="#7E527C"/>
</g>
<path d="M48.4351 48.1281C50.0974 50.9247 48.1737 53.8936 45.5634 54.3579C42.953 54.8193 39.9285 52.4008 40.9237 49.0176C41.9189 45.6372 46.9756 45.6706 48.4351 48.1281Z" fill="url(#paint28_linear_327_2398)"/>
<path d="M45.5629 54.3577C47.5311 54.0074 49.1101 52.2311 49.0545 50.1795C48.7738 52.5257 47.0669 54.5718 43.6531 53.7656C43.2361 53.6683 40.9233 52.598 40.7342 50.1711C40.6341 52.9316 43.2612 54.7691 45.5657 54.3605L45.5629 54.3577Z" fill="url(#paint29_linear_327_2398)"/>
<path style="mix-blend-mode:color-dodge" opacity="0.5" d="M41.0654 48.6228C41.21 48.9703 43.0225 47.2022 42.7862 46.8325C42.0412 47.1995 41.4213 47.7888 41.0682 48.6228H41.0654Z" fill="url(#paint30_linear_327_2398)"/>
<path d="M41.6517 48.8868C40.5147 51.2358 44.0981 56.084 47.3533 52.4034C50.9589 48.3252 44.112 43.8079 41.6517 48.8868Z" fill="url(#paint31_linear_327_2398)"/>
<path d="M42.5899 48.8702C41.8866 50.2796 42.412 51.714 43.6936 52.5897C45.1669 53.5988 46.9739 52.4062 47.5966 51.1692C48.4889 49.4039 46.7904 47.5719 45.7368 47.2717C44.6832 46.9715 43.0931 47.8611 42.5927 48.8674L42.5899 48.8702Z" fill="url(#paint32_linear_327_2398)"/>
<g style="mix-blend-mode:multiply" opacity="0.4">
<path d="M42.3417 50.11C42.2917 50.3324 42.3417 51.5695 43.2841 52.2144C44.2265 52.8594 44.8909 52.9678 44.9604 52.8622C45.0327 52.7565 45.0299 51.9003 44.9854 51.8558C44.9409 51.8113 44.207 51.4527 43.854 50.9663C43.5009 50.477 43.3786 50.3074 43.2786 50.2991C43.1785 50.2907 42.3779 49.9599 42.3445 50.1128L42.3417 50.11Z" fill="#B82774"/>
</g>
<g style="mix-blend-mode:soft-light">
<path d="M43.4701 50.2407C43.3367 50.8134 44.9741 51.8753 45.1214 51.8559C45.8247 51.7558 46.6782 50.199 46.6921 49.6931C46.7032 49.3511 45.3855 48.2503 44.9657 48.381C44.546 48.5144 43.573 49.7959 43.4701 50.2407Z" fill="white"/>
</g>
<g style="mix-blend-mode:multiply" opacity="0.8">
<path d="M45.1253 51.8558C44.9307 51.9364 45.0002 52.8232 45.0669 52.8316C45.8091 52.9205 46.5708 52.5063 47.3131 51.5389C47.9163 50.755 47.8663 49.6986 47.6077 49.3733C47.5132 49.2538 46.7015 49.554 46.6959 49.693C46.6737 50.5381 45.7647 51.5862 45.1253 51.8558Z" fill="#B82774"/>
</g>
<path opacity="0.75" d="M42.2872 49.9127C42.2788 50.0461 43.2546 50.3658 43.3269 50.2824C43.4464 50.149 44.917 48.4171 44.9225 48.3086C44.9336 48.1363 44.9753 47.2968 44.7252 47.2829C44.6418 47.2801 43.5798 47.5942 42.9377 48.3615C42.2955 49.1287 42.2955 49.7431 42.2872 49.9099V49.9127Z" fill="white"/>
<path d="M42.5898 48.8702C42.5898 48.8702 43.0458 48.0946 43.8464 47.6526C43.8464 47.6526 44.28 47.7832 43.9409 48.3309C43.6017 48.8785 42.5898 48.8702 42.5898 48.8702Z" fill="white"/>
<path d="M44.629 51.5944C44.5985 51.6417 44.9126 52.2561 44.9988 52.2366C45.0849 52.2199 45.4158 51.739 45.3741 51.7418C45.3324 51.7446 44.6958 51.4888 44.629 51.5944Z" fill="white"/>
<path d="M46.5601 49.4122C46.435 49.5679 46.5462 50.1044 46.6157 50.1211C46.6879 50.1378 47.0132 49.529 46.9715 49.4928C46.9326 49.4539 46.674 49.2704 46.5573 49.4122H46.5601Z" fill="white"/>
<path d="M43.8955 53.557C43.8955 53.557 45.6719 54.1019 47.3537 52.4033C48.8994 50.8438 48.2655 49.1091 48.196 48.9368C48.196 48.9368 49.3442 50.9883 47.3343 52.862C45.6079 54.4744 43.8955 53.557 43.8955 53.557Z" fill="#FFD2FF"/>
<g style="mix-blend-mode:multiply" opacity="0.5">
<path d="M43.2818 53.2374C42.3227 52.0198 41.1051 49.5179 42.7703 47.7944C44.4354 46.0708 46.954 47.6971 47.6852 48.0307C47.6852 48.0307 46.1201 45.2869 42.9009 46.8019C41.6694 47.3802 41.3497 48.2503 41.4554 50.2129C41.5499 52.0143 43.2845 53.2374 43.2845 53.2374H43.2818Z" fill="#D42F55"/>
</g>
<path style="mix-blend-mode:color-dodge" opacity="0.5" d="M50.893 50.1602C50.893 53.4239 48.2465 56.0704 44.9829 56.0704C41.7192 56.0704 39.0728 53.4239 39.0728 50.1602C39.0728 46.8966 41.7192 44.2501 44.9829 44.2501C48.2465 44.2501 50.893 46.8966 50.893 50.1602Z" fill="url(#paint33_radial_327_2398)"/>
<path d="M36.6597 63.351C36.3845 63.351 36.1566 63.2815 35.9898 63.1453C34.9946 62.3447 35.659 59.056 36.5624 55.1586C36.7487 54.3496 36.9433 53.5184 36.9572 53.2821C36.7959 53.0319 35.8869 52.2814 35.0835 51.6142C32.3092 49.3152 30.2075 47.4637 30.4577 46.2712C30.6662 45.2732 32.8957 44.8895 37.5076 44.4531C38.5306 44.3558 39.6871 44.2474 39.9567 44.1529C40.1013 43.9444 40.4627 43.0409 40.7824 42.2403C42.2001 38.7014 43.4817 35.7742 44.8327 35.7742C44.9773 35.7742 45.1274 35.8159 45.2775 35.8937L45.3164 35.9132C46.509 36.5915 47.9963 39.9719 49.3 43.0854C49.5002 43.5635 49.7059 44.0556 49.7949 44.2335C50.0868 44.3252 51.1459 44.4058 52.0911 44.4753C55.6021 44.7394 58.5572 45.048 59.1743 46.1655C59.2216 46.2461 59.2522 46.349 59.2549 46.4574C59.3133 47.2858 57.8817 48.5396 55.5159 50.5022C54.3901 51.4363 52.8472 52.7178 52.7694 53.0903C52.7527 53.3461 52.989 54.4108 53.2197 55.4421C54.037 59.1144 54.6431 62.2279 53.7563 63.1147C53.6061 63.2648 53.3893 63.3427 53.1169 63.3427C51.9215 63.3427 49.3473 61.8359 46.5868 60.1541C45.839 59.701 45.069 59.2312 44.8132 59.12C44.5714 59.2284 43.8653 59.6759 43.1814 60.1096C40.5127 61.8026 38.0052 63.3232 36.6931 63.3427H36.6625L36.6597 63.351Z" fill="url(#paint34_linear_327_2398)"/>
<path d="M58.4914 46.313C58.5804 47.5918 52.2644 51.6949 52.1949 52.6985C52.1282 53.6798 54.405 61.0438 53.2513 62.1975C52.3117 63.1371 45.3313 58.2417 44.817 58.2139H44.8114C44.3694 58.2139 38.8318 62.2892 36.922 62.3198C36.7302 62.3226 36.5745 62.2864 36.4661 62.1975C35.2374 61.2106 37.617 53.4824 37.5308 52.8375C37.4474 52.1925 30.8757 47.803 31.2148 46.1851C31.4956 44.8424 39.8159 44.7284 40.3135 44.342C40.8111 43.9529 43.1212 36.2914 44.8365 36.2914C44.931 36.2914 45.0283 36.322 45.1284 36.3803H45.1339C46.6517 37.2449 49.1064 43.9807 49.3955 44.3949C49.7069 44.8369 57.6019 44.6423 58.4553 46.1879C58.4775 46.2268 58.4887 46.2685 58.4914 46.3158V46.313Z" fill="url(#paint35_linear_327_2398)"/>
<g style="mix-blend-mode:multiply" opacity="0.2">
<path d="M44.8253 50.1603L37.5308 52.8374C37.4474 52.1925 30.8757 47.803 31.2148 46.1851L44.8253 50.1603Z" fill="#DA0553"/>
</g>
<g style="mix-blend-mode:multiply" opacity="0.2">
<path d="M49.3954 44.3918L44.8252 50.1601L44.8363 36.2883L45.1282 36.3773H45.1338C46.6516 37.2418 49.1063 43.9776 49.3954 44.3918Z" fill="#DA0553"/>
</g>
<g style="mix-blend-mode:multiply" opacity="0.2">
<path d="M58.4913 46.3129C58.5803 47.5917 52.2643 51.6949 52.1948 52.6984L44.8252 50.1603L58.4552 46.1851L58.4913 46.3129Z" fill="#DA0553"/>
</g>
<g style="mix-blend-mode:multiply" opacity="0.2">
<path d="M53.2494 62.1972C52.3098 63.1369 45.3294 58.2414 44.8151 58.2136V58.2192L44.8096 58.2136L44.8207 50.163L53.2494 62.2V62.1972Z" fill="#DA0553"/>
</g>
<g style="mix-blend-mode:multiply" opacity="0.2">
<path d="M44.8232 50.1602L44.8177 58.2109V58.2165L44.8121 58.2109C44.3701 58.2109 38.8325 62.2863 36.9227 62.3169L36.4668 62.1945L44.826 50.1575L44.8232 50.1602Z" fill="#DA0553"/>
</g>
<g style="mix-blend-mode:soft-light">
<path d="M44.8234 50.1602L31.2129 46.1849C31.4937 44.8422 39.814 44.7282 40.3116 44.3418L44.8234 50.163V50.1602Z" fill="white"/>
</g>
<g style="mix-blend-mode:multiply" opacity="0.5">
<path d="M31.2134 46.185C28.9283 46.855 35.2387 59.0866 36.3618 58.489C37.4821 57.894 43.9149 51.5086 44.8239 50.1603C44.8239 50.1603 32.7257 45.7402 31.2134 46.185Z" fill="#D42F55"/>
</g>
<g style="mix-blend-mode:multiply" opacity="0.5">
<path d="M58.4577 46.185C60.7428 46.855 54.4323 59.0866 53.3093 58.489C52.1889 57.894 45.7562 51.5086 44.8472 50.1603C44.8472 50.1603 56.9454 45.7402 58.4577 46.185Z" fill="#D42F55"/>
</g>
<g style="mix-blend-mode:multiply" opacity="0.3">
<path d="M44.8321 36.2884C44.5541 36.3524 44.8155 58.2109 44.8155 58.2109C45.6105 58.5084 52.4158 62.9396 53.2497 62.1945C54.5785 61.0103 52.0294 53.6852 52.1934 52.6955C52.3546 51.7059 58.893 47.3414 58.4565 46.1822C57.8589 44.5948 49.7609 44.7477 49.394 44.3891C48.724 43.7386 46.3138 35.9465 44.8321 36.2857V36.2884Z" fill="#DA0553"/>
</g>
<g style="mix-blend-mode:multiply" opacity="0.5">
<path d="M44.8241 50.1603C42.7336 53.1126 36.4648 61.4913 36.4648 62.1974C36.4648 63.1982 52.9331 63.3066 53.2528 62.1974C53.5753 61.0882 45.216 49.6071 44.8241 50.1603Z" fill="#D42F55"/>
</g>
<g style="mix-blend-mode:multiply" opacity="0.5">
<path d="M49.0963 48.6674C50.5196 50.3214 48.7627 53.2959 48.2651 54.1271C47.7675 54.9583 45.5908 56.5234 44.8458 56.5651C44.1008 56.6068 42.2271 55.5949 41.5905 54.0604C40.9539 52.5259 40.4674 49.9878 41.5905 49.2178C42.7136 48.445 48.2901 47.7333 49.0963 48.6701V48.6674Z" fill="#7E527C"/>
</g>
<path d="M48.2768 48.1281C49.9392 50.9247 48.0155 53.8936 45.4052 54.3579C42.7948 54.8193 39.7703 52.4008 40.7655 49.0176C41.7607 45.6372 46.8174 45.6706 48.2768 48.1281Z" fill="url(#paint36_linear_327_2398)"/>
<path d="M45.4047 54.3577C47.3729 54.0074 48.9519 52.2311 48.8963 50.1795C48.6156 52.5257 46.9087 54.5718 43.4949 53.7656C43.0779 53.6683 40.7651 52.598 40.576 50.1711C40.4759 52.9316 43.103 54.7691 45.4075 54.3605L45.4047 54.3577Z" fill="url(#paint37_linear_327_2398)"/>
<path style="mix-blend-mode:color-dodge" opacity="0.5" d="M40.9072 48.6228C41.0518 48.9703 42.8643 47.2022 42.628 46.8325C41.883 47.1995 41.2631 47.7888 40.91 48.6228H40.9072Z" fill="url(#paint38_linear_327_2398)"/>
<path d="M41.4935 48.8868C40.3565 51.2358 43.9399 56.084 47.1951 52.4034C50.8007 48.3252 43.9538 43.8079 41.4935 48.8868Z" fill="url(#paint39_linear_327_2398)"/>
<path d="M42.4342 48.8702C41.7308 50.2796 42.2562 51.714 43.5378 52.5897C45.0111 53.5988 46.8153 52.4062 47.4408 51.1692C48.3332 49.4039 46.6346 47.5719 45.581 47.2717C44.5274 46.9715 42.9373 47.8611 42.4369 48.8674L42.4342 48.8702Z" fill="url(#paint40_linear_327_2398)"/>
<g style="mix-blend-mode:multiply" opacity="0.4">
<path d="M42.1835 50.11C42.1335 50.3324 42.1835 51.5695 43.1259 52.2144C44.0683 52.8594 44.7327 52.9678 44.8022 52.8622C44.8745 52.7565 44.8717 51.9003 44.8272 51.8558C44.7827 51.8113 44.0488 51.4527 43.6958 50.9663C43.3427 50.477 43.2204 50.3074 43.1203 50.2991C43.0203 50.2907 42.2197 49.9599 42.1863 50.1128L42.1835 50.11Z" fill="#B82774"/>
</g>
<g style="mix-blend-mode:soft-light">
<path d="M43.3119 50.2407C43.1785 50.8134 44.8159 51.8753 44.9632 51.8559C45.6665 51.7558 46.52 50.199 46.5339 49.6931C46.545 49.3511 45.2273 48.2503 44.8075 48.381C44.3878 48.5144 43.4148 49.7959 43.3119 50.2407Z" fill="white"/>
</g>
<g style="mix-blend-mode:multiply" opacity="0.8">
<path d="M44.9671 51.8558C44.7725 51.9364 44.842 52.8232 44.9087 52.8316C45.6509 52.9205 46.4126 52.5063 47.1549 51.5389C47.7581 50.755 47.7081 49.6986 47.4495 49.3733C47.355 49.2538 46.5433 49.554 46.5377 49.693C46.5155 50.5381 45.6065 51.5862 44.9671 51.8558Z" fill="#B82774"/>
</g>
<path opacity="0.75" d="M42.1309 49.9127C42.1226 50.0461 43.0983 50.3658 43.1706 50.2824C43.2901 50.149 44.7607 48.4171 44.7663 48.3086C44.7774 48.1363 44.8191 47.2968 44.5689 47.2829C44.4855 47.2801 43.4236 47.5942 42.7814 48.3615C42.1393 49.1287 42.1393 49.7431 42.1309 49.9099V49.9127Z" fill="white"/>
<path d="M42.4341 48.8702C42.4341 48.8702 42.89 48.0946 43.6906 47.6526C43.6906 47.6526 44.1243 47.7832 43.7851 48.3309C43.446 48.8785 42.4341 48.8702 42.4341 48.8702Z" fill="white"/>
<path d="M44.4708 51.5944C44.4403 51.6417 44.7544 52.2561 44.8406 52.2366C44.9267 52.2199 45.2576 51.739 45.2159 51.7418C45.1742 51.7446 44.5376 51.4888 44.4708 51.5944Z" fill="white"/>
<path d="M46.4019 49.4122C46.2768 49.5679 46.388 50.1044 46.4575 50.1211C46.5297 50.1378 46.855 49.529 46.8133 49.4928C46.7744 49.4539 46.5158 49.2704 46.3991 49.4122H46.4019Z" fill="white"/>
<path d="M43.7373 53.557C43.7373 53.557 45.5137 54.1019 47.1955 52.4033C48.7412 50.8438 48.1073 49.1091 48.0378 48.9368C48.0378 48.9368 49.186 50.9883 47.1761 52.862C45.4497 54.4744 43.7373 53.557 43.7373 53.557Z" fill="#FFD2FF"/>
<g style="mix-blend-mode:multiply" opacity="0.5">
<path d="M43.1236 53.2374C42.1645 52.0198 40.9469 49.5179 42.6121 47.7944C44.2772 46.0708 46.7958 47.6971 47.527 48.0307C47.527 48.0307 45.9619 45.2869 42.7427 46.8019C41.5112 47.3802 41.1915 48.2503 41.2972 50.2129C41.3917 52.0143 43.1263 53.2374 43.1263 53.2374H43.1236Z" fill="#D42F55"/>
</g>
<path style="mix-blend-mode:color-dodge" opacity="0.5" d="M50.7348 50.1602C50.7348 53.4239 48.0883 56.0704 44.8247 56.0704C41.561 56.0704 38.9146 53.4239 38.9146 50.1602C38.9146 46.8966 41.561 44.2501 44.8247 44.2501C48.0883 44.2501 50.7348 46.8966 50.7348 50.1602Z" fill="url(#paint41_radial_327_2398)"/>
<g style="mix-blend-mode:multiply" opacity="0.5">
<path d="M21.7422 33.236C23.4796 39.6159 25.9482 34.5954 25.4423 32.7996L21.7422 33.236Z" fill="#DB1D00"/>
</g>
<path d="M25.4431 32.7995C25.5209 34.0366 24.6147 34.651 23.5917 34.651C22.5687 34.651 21.7402 33.8226 21.7402 32.7995C21.7402 31.7765 22.3741 30.9481 23.5917 30.9481C24.6147 30.9481 25.3792 31.7793 25.4431 32.7995Z" fill="#C91A00"/>
<path d="M21.9672 32.7996C22.6399 33.1832 25.2169 32.8163 25.2002 32.3882C25.1835 31.96 24.1633 30.8953 23.0847 31.1149C22.1061 31.3151 21.5418 32.5549 21.9672 32.7968V32.7996Z" fill="white"/>
<g style="mix-blend-mode:soft-light">
<path d="M22.3183 34.0004C23.4331 34.8066 24.7897 34.5925 25.3429 33.4C25.7737 32.4715 21.4176 33.3471 22.3183 34.0004Z" fill="white"/>
</g>
<g style="mix-blend-mode:multiply" opacity="0.5">
<path d="M64.2539 33.1613C65.9914 39.5412 68.4599 34.5207 67.954 32.7249L64.2539 33.1613Z" fill="#DB1D00"/>
</g>
<path d="M67.9548 32.7248C68.0326 33.9619 67.1264 34.5763 66.1034 34.5763C65.0804 34.5763 64.252 33.7479 64.252 32.7248C64.252 31.7018 64.8858 30.8734 66.1034 30.8734C67.1264 30.8734 67.8909 31.7046 67.9548 32.7248Z" fill="#C91A00"/>
<path d="M64.4789 32.7249C65.1516 33.1085 67.7286 32.7416 67.7119 32.3134C67.6952 31.8853 66.675 30.8206 65.5964 31.0402C64.6179 31.2404 64.0535 32.4802 64.4789 32.7221V32.7249Z" fill="white"/>
<g style="mix-blend-mode:soft-light">
<path d="M64.83 33.923C65.9448 34.7292 67.3014 34.5152 67.8546 33.3226C68.2855 32.3941 63.9293 33.2697 64.83 33.923Z" fill="white"/>
</g>
<g style="mix-blend-mode:multiply" opacity="0.5">
<path d="M42.6914 23.0644C44.4289 29.4443 46.8974 24.4238 46.3915 22.6279L42.6914 23.0644Z" fill="#6E5066"/>
</g>
<path d="M46.3943 22.6251C46.4721 23.8622 45.5658 24.4765 44.5428 24.4765C43.5198 24.4765 42.6914 23.6481 42.6914 22.6251C42.6914 21.6021 43.3252 20.7737 44.5428 20.7737C45.5658 20.7737 46.3303 21.6049 46.3943 22.6251Z" fill="#63495F"/>
<path d="M42.9183 22.6251C43.5911 23.0116 46.168 22.6418 46.1514 22.2137C46.1347 21.7856 45.1145 20.7209 44.0358 20.9405C43.0573 21.1407 42.493 22.3805 42.9183 22.6224V22.6251Z" fill="white"/>
<g style="mix-blend-mode:soft-light">
<path d="M43.2695 23.826C44.3842 24.6322 45.7408 24.4181 46.294 23.2255C46.7249 22.297 42.3688 23.1727 43.2695 23.826Z" fill="white"/>
</g>
<g style="mix-blend-mode:multiply" opacity="0.5">
<path d="M42.6914 79.0297C44.4289 85.4096 46.8974 80.3891 46.3915 78.5933L42.6914 79.0297Z" fill="#DB1D00"/>
</g>
<path d="M46.3943 78.5933C46.4721 79.8303 45.5658 80.4447 44.5428 80.4447C43.5198 80.4447 42.6914 79.6163 42.6914 78.5933C42.6914 77.5702 43.3252 76.7418 44.5428 76.7418C45.5658 76.7418 46.3303 77.573 46.3943 78.5933Z" fill="#C91A00"/>
<path d="M42.9183 78.5933C43.5911 78.9797 46.168 78.61 46.1514 78.1818C46.1347 77.7537 45.1145 76.689 44.0358 76.9086C43.0573 77.1088 42.493 78.3486 42.9183 78.5905V78.5933Z" fill="white"/>
<g style="mix-blend-mode:soft-light">
<path d="M43.2695 79.7941C44.3842 80.6003 45.7408 80.3862 46.294 79.1937C46.7249 78.2652 42.3688 79.1408 43.2695 79.7941Z" fill="white"/>
</g>
<g style="mix-blend-mode:multiply" opacity="0.3">
<path d="M35.147 23.0811C37.6433 27.4372 46.6308 29.9892 50.9369 30.0837C55.2847 30.1782 54.4007 23.0811 54.4007 23.0811H35.1498H35.147Z" fill="#DA0553"/>
</g>
<path d="M36.5559 10.0125C36.5559 10.0125 35.9722 11.4413 36.2029 11.9723C36.4336 12.5033 36.795 12.9536 36.303 13.9294C36.303 13.9294 37.1008 14.035 36.795 11.5358C36.6783 10.5851 36.5559 10.0125 36.5559 10.0125Z" fill="url(#paint42_linear_327_2398)"/>
<path d="M45.2836 15.0276C45.1252 15.0693 44.9667 15.111 44.8083 15.1555C42.2813 15.8393 39.771 16.5732 37.2747 17.3655C36.2183 16.551 35.1119 15.8338 33.9721 15.1749C32.4237 14.2826 30.8114 13.4931 29.1768 12.7064C32.6127 12.7425 36.0515 13.9712 36.3017 13.924C36.9077 13.8155 36.9744 12.2449 36.4907 10.2628C36.1933 9.0452 40.9998 11.7306 43.8019 13.7961C44.18 14.0769 44.5219 14.3437 44.8083 14.5884C44.9917 14.744 45.1502 14.8886 45.2836 15.0248V15.0276Z" fill="url(#paint43_linear_327_2398)"/>
<path d="M53.0628 10.0125C53.0628 10.0125 53.6466 11.144 53.4158 11.6722C53.1851 12.2031 52.8237 12.9509 53.3158 13.9267C53.3158 13.9267 52.5179 14.0323 52.8237 11.5332C52.9405 10.5824 53.0628 10.0098 53.0628 10.0098V10.0125Z" fill="url(#paint44_linear_327_2398)"/>
<path d="M60.3686 12.709C59.0398 13.4374 57.7416 14.0851 56.4795 14.7634C55.0478 15.5335 53.6662 16.3424 52.3429 17.3682C49.8466 16.5759 47.3363 15.8392 44.8093 15.1582C44.6509 15.1137 44.4924 15.072 44.334 15.0303C44.4674 14.8968 44.6287 14.7495 44.8093 14.5938C45.1096 14.3353 45.471 14.0573 45.8713 13.7626C48.679 11.7027 53.4216 9.05901 53.1269 10.2683C52.6432 12.2476 52.7099 13.8182 53.3159 13.9294C53.5633 13.9739 56.9298 12.748 60.3686 12.7118V12.709Z" fill="url(#paint45_linear_327_2398)"/>
<g style="mix-blend-mode:multiply" opacity="0.8">
<path d="M56.4799 14.7636C55.0482 15.5336 53.6666 16.3426 52.3434 17.3684C49.847 16.5761 47.3367 15.8394 44.8098 15.1583C42.2828 15.8422 39.7726 16.5761 37.2762 17.3684C36.2198 16.5538 35.1134 15.8366 33.9736 15.1778C34.3434 14.9693 34.588 14.8331 34.588 14.8331C37.6737 14.1937 40.8595 13.899 43.8007 13.7989C44.504 13.7739 45.1962 13.7628 45.8689 13.76C51.6817 13.7322 56.1046 14.3883 56.1046 14.3883L56.4771 14.7608L56.4799 14.7636Z" fill="#D42F55"/>
</g>
<path d="M55.5575 18.6804C55.0766 19.3309 54.7458 19.8007 54.7458 19.8007C54.7458 19.8007 54.5596 22.8169 54.4011 23.081C54.2399 23.3451 53.2196 23.9706 52.7804 24.1902C43.9041 28.627 36.7681 24.1902 36.7681 24.1902C36.7681 24.1902 35.3086 23.3423 35.1474 23.081C34.9861 22.8169 34.8026 19.8007 34.8026 19.8007C34.8026 19.8007 34.8026 19.8007 34.8026 19.7979C34.7637 19.7423 34.2411 18.9779 33.5155 18.0633C32.1172 16.2424 29.1816 12.7091 29.1816 12.7091C29.2595 12.4617 36.3205 16.1868 36.9348 15.9867C37.6965 15.7392 38.3637 10.8911 39.2672 8.60318C40.3375 5.89275 42.0221 1.77847 44.727 0.268971C44.727 0.260631 44.727 0.257851 44.727 0.249512C44.7409 0.249512 44.7603 0.249512 44.777 0.255072C44.7965 0.252292 44.8131 0.249512 44.827 0.249512C44.827 0.257851 44.827 0.260631 44.827 0.268971C50.0728 3.41306 51.0124 14.9108 52.6275 15.7531C53.5282 16.2229 60.3696 12.7091 60.3696 12.7091C60.4363 12.8453 57.067 16.6427 55.5575 18.6804Z" fill="url(#paint46_linear_327_2398)"/>
<g style="mix-blend-mode:multiply" opacity="0.5">
<path d="M55.5567 18.6804C55.0646 19.3309 54.7449 19.8007 54.7449 19.8007C47.8451 23.4813 41.8822 22.6974 34.8018 19.8007C34.8018 19.8007 34.8018 19.8007 34.8018 19.7979C34.7628 19.7423 34.2402 18.9778 33.5146 18.0632C35.9916 20.2705 40.9732 22.0997 45.0763 22.0997C48.5179 22.0997 52.2013 20.3066 55.5567 18.6804Z" fill="#D42F55"/>
</g>
<g style="mix-blend-mode:multiply" opacity="0.5">
<path d="M36.7666 24.1901C36.7666 24.1901 39.7328 26.1638 44.5337 26.161C49.3902 26.161 52.779 24.1901 52.779 24.1901C52.779 24.1901 48.8954 25.6523 44.3336 25.6523C40.0247 25.6523 36.7666 24.1901 36.7666 24.1901Z" fill="#D42F55"/>
</g>
<path d="M53.3884 13.9101C53.3801 13.8934 57.0857 12.6397 60.3688 12.7092C60.7246 12.7175 53.9833 16.6539 52.6156 15.9867C51.6843 15.5336 50.9365 11.6722 50.9365 11.6722C50.9421 11.6722 52.4321 15.0526 53.3662 15.1972C54.3892 15.3529 58.0615 13.4764 58.0615 13.4764C57.8641 13.3263 53.3912 13.9129 53.3912 13.9129L53.3884 13.9101Z" fill="url(#paint47_linear_327_2398)"/>
<path d="M35.9803 13.8794C35.9887 13.8655 31.2767 12.47 29.1223 12.6368C28.8331 12.6591 35.6162 16.6761 36.9283 15.9894C37.8846 15.489 38.4545 11.3608 38.4545 11.3608C38.4489 11.3608 37.1201 15.0192 36.1805 15.1971C35.1436 15.3945 31.5213 13.3485 31.5213 13.3485C31.5575 13.2456 35.9803 13.8794 35.9803 13.8794Z" fill="url(#paint48_linear_327_2398)"/>
<path d="M48.796 5.43685C48.796 5.43685 46.5915 0.249512 44.7234 0.249512C42.9776 0.249512 40.5674 5.5397 40.5674 5.5397C40.5674 5.5397 43.136 2.11206 44.7734 1.99808C46.2495 1.89523 48.796 5.43685 48.796 5.43685Z" fill="url(#paint49_linear_327_2398)"/>
<g style="mix-blend-mode:multiply" opacity="0.2">
<path d="M44.8559 20.3318C43.7967 20.4874 38.3231 16.3203 38.4565 14.2048C38.6511 11.1302 41.3893 4.39724 44.6112 3.56048C47.3828 2.84048 50.299 10.3213 50.6381 13.5988C50.9856 16.9458 46.3376 20.1121 44.8559 20.3318Z" fill="#D42F55"/>
</g>
<g style="mix-blend-mode:soft-light">
<path d="M37.117 23.9316C36.2024 22.4332 36.5971 21.0933 36.8501 20.946C37.231 20.7236 41.9707 22.2053 42.3988 22.6056C42.763 22.9447 44.6589 25.3382 43.4775 25.3271C42.1598 25.316 37.4812 24.5293 37.117 23.9316Z" fill="white"/>
</g>
<g style="mix-blend-mode:multiply" opacity="0.2">
<path d="M33.3644 15.4167C32.2524 14.9831 30.2926 13.6987 30.2926 13.6987C30.2147 13.7932 33.1114 17.7824 34.7238 18.8499C35.2686 19.2085 33.9537 15.6475 33.3644 15.4167Z" fill="#DA0553"/>
</g>
<g style="mix-blend-mode:multiply" opacity="0.4">
<path d="M48.5568 22.4804C47.6673 23.42 48.0926 25.3688 48.2705 25.3271C49.6549 24.9962 51.7955 24.4681 52.7795 23.5118C53.4634 22.8474 53.2938 20.8708 53.0659 20.9376C51.6759 21.3407 49.4325 21.5603 48.5596 22.4832L48.5568 22.4804Z" fill="#DA0553"/>
</g>
<g style="mix-blend-mode:multiply" opacity="0.4">
<path d="M49.1678 21.035C49.418 21.3686 53.0541 19.8341 54.0771 18.9278C54.5108 18.5442 55.2864 16.4231 54.8889 16.4092C54.4914 16.3953 51.1999 16.2174 50.694 16.8568C49.7933 17.991 48.9927 20.8015 49.1678 21.035Z" fill="#DA0553"/>
</g>
<g style="mix-blend-mode:soft-light">
<path d="M54.5005 19.0112C54.5894 19.0696 59.1986 14.2742 59.1986 14.0991C59.1986 13.7683 56.1128 15.3417 55.7904 15.8866C54.8952 17.3905 54.5005 19.0112 54.5005 19.0112Z" fill="white"/>
</g>
<g style="mix-blend-mode:soft-light">
<path d="M54.5073 20.251C54.0319 20.4567 53.8929 20.2899 53.7928 20.6513C53.6928 21.0127 53.1618 23.9622 54.0764 23.0809C54.2849 22.8808 54.7964 20.1259 54.5073 20.251Z" fill="white"/>
</g>
<g style="mix-blend-mode:multiply" opacity="0.2">
<path d="M34.8837 20.2705C34.8031 20.3122 34.9616 22.6056 35.3452 23.0699C35.7316 23.5341 36.8769 24.1374 36.788 23.8594C36.4266 22.7641 34.8837 20.2677 34.8837 20.2677V20.2705Z" fill="#DA0553"/>
</g>
<g style="mix-blend-mode:soft-light">
<path d="M35.2165 16.8818C34.8274 17.3377 34.8941 18.4858 35.9894 19.0418C37.0847 19.5978 42.0135 21.3297 41.8745 20.5986C41.7355 19.8675 39.3559 16.5872 38.7832 16.387C38.2077 16.1868 35.6113 16.4176 35.2165 16.8818Z" fill="white"/>
</g>
<path d="M36.794 21.6076C37.9838 24.7267 42.0119 23.2922 41.8785 22.8919C41.7478 22.4916 36.263 20.2176 36.794 21.6076Z" fill="white"/>
<path d="M43.9981 1.38376C41.8187 1.84245 41.3489 4.27488 41.5963 4.30546C41.8437 4.33604 45.124 1.14469 43.9981 1.38376Z" fill="white"/>
<path d="M31.3146 13.6016C29.8774 13.5321 33.6581 15.3279 33.9388 15.2945C34.7228 15.1973 32.6434 13.6683 31.3146 13.6016Z" fill="white"/>
<path d="M58.8592 13.6653C58.2865 13.4512 57.3108 13.7793 56.6881 14.3353C56.3378 14.6494 55.8485 15.2443 56.0014 15.1748C56.1543 15.1081 59.1789 13.782 58.8592 13.6625V13.6653Z" fill="white"/>
</g>
<defs>
<linearGradient id="paint0_linear_327_2398" x1="14.2623" y1="19.7368" x2="14.2623" y2="56.3734" gradientUnits="userSpaceOnUse">
<stop stop-color="#FFEA34"/>
<stop offset="0.76" stop-color="#FF8100"/>
<stop offset="1" stop-color="#FFA400"/>
</linearGradient>
<linearGradient id="paint1_linear_327_2398" x1="75.7429" y1="0.249559" x2="75.7429" y2="0.249559" gradientUnits="userSpaceOnUse">
<stop stop-color="#FFEA34"/>
<stop offset="0.76" stop-color="#FF8100"/>
<stop offset="1" stop-color="#FFA400"/>
</linearGradient>
<linearGradient id="paint2_linear_327_2398" x1="45.0048" y1="87.3863" x2="45.0048" y2="34.2953" gradientUnits="userSpaceOnUse">
<stop stop-color="#FF5900"/>
<stop offset="0.63" stop-color="#FE6800"/>
<stop offset="0.91" stop-color="#FA9300"/>
<stop offset="1" stop-color="#F63F00"/>
</linearGradient>
<linearGradient id="paint3_linear_327_2398" x1="45.0735" y1="76.4526" x2="45.0735" y2="24.7183" gradientUnits="userSpaceOnUse">
<stop stop-color="#FFBA00"/>
<stop offset="0.21" stop-color="#FE6800"/>
<stop offset="1" stop-color="#D41B00"/>
</linearGradient>
<linearGradient id="paint4_linear_327_2398" x1="26.1382" y1="51.0443" x2="64.0119" y2="51.0443" gradientUnits="userSpaceOnUse">
<stop stop-color="#F23113"/>
<stop offset="1" stop-color="#AD0C1F"/>
</linearGradient>
<linearGradient id="paint5_linear_327_2398" x1="55.6463" y1="37.7813" x2="55.6463" y2="25.1021" gradientUnits="userSpaceOnUse">
<stop stop-color="#662D87"/>
<stop offset="1" stop-color="#D01C5C"/>
</linearGradient>
<linearGradient id="paint6_linear_327_2398" x1="45.0654" y1="56.5402" x2="66.6265" y2="56.5402" gradientUnits="userSpaceOnUse">
<stop stop-color="#FFAB00"/>
<stop offset="1" stop-color="#FFBA00"/>
</linearGradient>
<linearGradient id="paint7_linear_327_2398" x1="45.0778" y1="82.0182" x2="45.0778" y2="19.6951" gradientUnits="userSpaceOnUse">
<stop stop-color="#FFEA34"/>
<stop offset="0.63" stop-color="#FF8100"/>
<stop offset="0.7" stop-color="#FFA400"/>
<stop offset="1" stop-color="#FFBA00"/>
</linearGradient>
<linearGradient id="paint8_linear_327_2398" x1="65.58" y1="69.9202" x2="65.58" y2="73.6314" gradientUnits="userSpaceOnUse">
<stop stop-color="#FF5900"/>
<stop offset="1" stop-color="#F63F00"/>
</linearGradient>
<linearGradient id="paint9_linear_327_2398" x1="65.419" y1="63.8376" x2="65.4167" y2="71.1544" gradientUnits="userSpaceOnUse">
<stop stop-color="#FFEA34"/>
<stop offset="0.76" stop-color="#FF8100"/>
<stop offset="1" stop-color="#FFA400"/>
</linearGradient>
<linearGradient id="paint10_linear_327_2398" x1="24.3924" y1="0.249712" x2="24.3924" y2="0.249712" gradientUnits="userSpaceOnUse">
<stop stop-color="#FF5900"/>
<stop offset="1" stop-color="#F63F00"/>
</linearGradient>
<linearGradient id="paint11_linear_327_2398" x1="24.529" y1="63.8518" x2="24.5293" y2="71.1706" gradientUnits="userSpaceOnUse">
<stop stop-color="#FFEA34"/>
<stop offset="0.76" stop-color="#FF8100"/>
<stop offset="1" stop-color="#FFA400"/>
</linearGradient>
<linearGradient id="paint12_linear_327_2398" x1="72.2955" y1="45.8178" x2="75.6793" y2="37.7563" gradientUnits="userSpaceOnUse">
<stop stop-color="#DA2700"/>
<stop offset="1" stop-color="#D41B00"/>
</linearGradient>
<linearGradient id="paint13_linear_327_2398" x1="72.8947" y1="34.7604" x2="72.8945" y2="42.3457" gradientUnits="userSpaceOnUse">
<stop stop-color="#FFEA34"/>
<stop offset="0.76" stop-color="#FF8100"/>
<stop offset="1" stop-color="#FFA400"/>
</linearGradient>
<linearGradient id="paint14_linear_327_2398" x1="17.6034" y1="45.4502" x2="14.3907" y2="37.7963" gradientUnits="userSpaceOnUse">
<stop stop-color="#DA2700"/>
<stop offset="1" stop-color="#D41B00"/>
</linearGradient>
<linearGradient id="paint15_linear_327_2398" x1="17.1756" y1="34.7977" x2="17.1758" y2="42.3831" gradientUnits="userSpaceOnUse">
<stop stop-color="#FFEA34"/>
<stop offset="0.76" stop-color="#FF8100"/>
<stop offset="1" stop-color="#FFA400"/>
</linearGradient>
<linearGradient id="paint16_linear_327_2398" x1="43.8846" y1="21.8265" x2="46.2631" y2="24.3897" gradientUnits="userSpaceOnUse">
<stop stop-color="#832645"/>
<stop offset="1" stop-color="#B41E2D"/>
</linearGradient>
<linearGradient id="paint17_linear_327_2398" x1="46.023" y1="23.9827" x2="43.9099" y2="21.8695" gradientUnits="userSpaceOnUse">
<stop stop-color="#EB175A"/>
<stop offset="1" stop-color="#FF1F19"/>
</linearGradient>
<linearGradient id="paint18_linear_327_2398" x1="43.8846" y1="77.6092" x2="46.2631" y2="80.1725" gradientUnits="userSpaceOnUse">
<stop stop-color="#832645"/>
<stop offset="1" stop-color="#B41E2D"/>
</linearGradient>
<linearGradient id="paint19_linear_327_2398" x1="46.023" y1="79.7655" x2="43.9079" y2="77.6504" gradientUnits="userSpaceOnUse">
<stop stop-color="#EB175A"/>
<stop offset="1" stop-color="#FF1F19"/>
</linearGradient>
<linearGradient id="paint20_linear_327_2398" x1="22.793" y1="32.3039" x2="25.1715" y2="34.8672" gradientUnits="userSpaceOnUse">
<stop stop-color="#832645"/>
<stop offset="1" stop-color="#B41E2D"/>
</linearGradient>
<linearGradient id="paint21_linear_327_2398" x1="24.9314" y1="34.4601" x2="22.8183" y2="32.347" gradientUnits="userSpaceOnUse">
<stop stop-color="#EB175A"/>
<stop offset="1" stop-color="#FF1F19"/>
</linearGradient>
<linearGradient id="paint22_linear_327_2398" x1="22.7451" y1="32.2879" x2="25.1217" y2="34.8531" gradientUnits="userSpaceOnUse">
<stop stop-color="#832645"/>
<stop offset="1" stop-color="#B41E2D"/>
</linearGradient>
<linearGradient id="paint23_linear_327_2398" x1="24.8807" y1="34.4461" x2="22.7676" y2="32.3329" gradientUnits="userSpaceOnUse">
<stop stop-color="#EB175A"/>
<stop offset="1" stop-color="#FF1F19"/>
</linearGradient>
<linearGradient id="paint24_linear_327_2398" x1="65.3074" y1="32.2899" x2="67.6859" y2="34.8531" gradientUnits="userSpaceOnUse">
<stop stop-color="#832645"/>
<stop offset="1" stop-color="#B41E2D"/>
</linearGradient>
<linearGradient id="paint25_linear_327_2398" x1="67.4434" y1="34.4441" x2="65.3302" y2="32.331" gradientUnits="userSpaceOnUse">
<stop stop-color="#EB175A"/>
<stop offset="1" stop-color="#FF1F19"/>
</linearGradient>
<linearGradient id="paint26_linear_327_2398" x1="45.0048" y1="63.351" x2="45.0048" y2="35.777" gradientUnits="userSpaceOnUse">
<stop stop-color="#832645"/>
<stop offset="1" stop-color="#B41E2D"/>
</linearGradient>
<linearGradient id="paint27_linear_327_2398" x1="45.003" y1="36.2886" x2="45.003" y2="62.3198" gradientUnits="userSpaceOnUse">
<stop stop-color="#FFAB00"/>
<stop offset="0.49" stop-color="#FFBA00"/>
<stop offset="1" stop-color="#EF6C00"/>
</linearGradient>
<linearGradient id="paint28_linear_327_2398" x1="44.8934" y1="54.4357" x2="44.8934" y2="46.8576" gradientUnits="userSpaceOnUse">
<stop stop-color="#FFEA34"/>
<stop offset="0.63" stop-color="#FF8100"/>
<stop offset="0.7" stop-color="#FFA400"/>
<stop offset="1" stop-color="#FFBA00"/>
</linearGradient>
<linearGradient id="paint29_linear_327_2398" x1="49.0545" y1="52.2922" x2="40.7314" y2="52.2922" gradientUnits="userSpaceOnUse">
<stop stop-color="#FF5900"/>
<stop offset="1" stop-color="#F63F00"/>
</linearGradient>
<linearGradient id="paint30_linear_327_2398" x1="42.8084" y1="47.7499" x2="41.0654" y2="47.7499" gradientUnits="userSpaceOnUse">
<stop stop-color="#EBBD38"/>
<stop offset="1" stop-color="#FFF29E"/>
</linearGradient>
<linearGradient id="paint31_linear_327_2398" x1="48.3819" y1="50.1822" x2="41.4377" y2="50.1822" gradientUnits="userSpaceOnUse">
<stop stop-color="#832645"/>
<stop offset="1" stop-color="#B41E2D"/>
</linearGradient>
<linearGradient id="paint32_linear_327_2398" x1="46.9534" y1="52.0291" x2="43.1066" y2="48.1822" gradientUnits="userSpaceOnUse">
<stop stop-color="#EB175A"/>
<stop offset="1" stop-color="#FF1F19"/>
</linearGradient>
<radialGradient id="paint33_radial_327_2398" cx="0" cy="0" r="1" gradientUnits="userSpaceOnUse" gradientTransform="translate(44.9829 50.1602) scale(5.91012)">
<stop offset="0.1" stop-color="#B41E2D"/>
<stop offset="0.34" stop-color="#7A141E"/>
<stop offset="0.66" stop-color="#38090E"/>
<stop offset="0.88" stop-color="#0F0203"/>
<stop offset="1"/>
</radialGradient>
<linearGradient id="paint34_linear_327_2398" x1="44.8466" y1="63.351" x2="44.8466" y2="35.777" gradientUnits="userSpaceOnUse">
<stop stop-color="#832645"/>
<stop offset="1" stop-color="#B41E2D"/>
</linearGradient>
<linearGradient id="paint35_linear_327_2398" x1="44.8476" y1="0.24968" x2="44.8476" y2="0.24968" gradientUnits="userSpaceOnUse">
<stop stop-color="#FFAB00"/>
<stop offset="0.49" stop-color="#FFBA00"/>
<stop offset="1" stop-color="#EF6C00"/>
</linearGradient>
<linearGradient id="paint36_linear_327_2398" x1="44.7352" y1="54.4357" x2="44.7352" y2="46.8576" gradientUnits="userSpaceOnUse">
<stop stop-color="#FFEA34"/>
<stop offset="0.63" stop-color="#FF8100"/>
<stop offset="0.7" stop-color="#FFA400"/>
<stop offset="1" stop-color="#FFBA00"/>
</linearGradient>
<linearGradient id="paint37_linear_327_2398" x1="48.8963" y1="52.2922" x2="40.5732" y2="52.2922" gradientUnits="userSpaceOnUse">
<stop stop-color="#FF5900"/>
<stop offset="1" stop-color="#F63F00"/>
</linearGradient>
<linearGradient id="paint38_linear_327_2398" x1="42.6502" y1="0.249443" x2="40.91" y2="0.249443" gradientUnits="userSpaceOnUse">
<stop stop-color="#EBBD38"/>
<stop offset="1" stop-color="#FFF29E"/>
</linearGradient>
<linearGradient id="paint39_linear_327_2398" x1="48.2237" y1="50.1822" x2="41.2795" y2="50.1822" gradientUnits="userSpaceOnUse">
<stop stop-color="#832645"/>
<stop offset="1" stop-color="#B41E2D"/>
</linearGradient>
<linearGradient id="paint40_linear_327_2398" x1="46.7941" y1="52.0271" x2="42.9492" y2="48.1822" gradientUnits="userSpaceOnUse">
<stop stop-color="#EB175A"/>
<stop offset="1" stop-color="#FF1F19"/>
</linearGradient>
<radialGradient id="paint41_radial_327_2398" cx="0" cy="0" r="1" gradientUnits="userSpaceOnUse" gradientTransform="translate(44.8247 0.388494) scale(5.91012)">
<stop offset="0.1" stop-color="#B41E2D"/>
<stop offset="0.34" stop-color="#7A141E"/>
<stop offset="0.66" stop-color="#38090E"/>
<stop offset="0.88" stop-color="#0F0203"/>
<stop offset="1"/>
</radialGradient>
<linearGradient id="paint42_linear_327_2398" x1="36.1473" y1="11.9695" x2="36.8645" y2="11.9695" gradientUnits="userSpaceOnUse">
<stop stop-color="#DA2700"/>
<stop offset="1" stop-color="#D41B00"/>
</linearGradient>
<linearGradient id="paint43_linear_327_2398" x1="37.2302" y1="17.3683" x2="37.2302" y2="9.96257" gradientUnits="userSpaceOnUse">
<stop offset="0.05" stop-color="#FF3F00"/>
<stop offset="1" stop-color="#FF7C04"/>
</linearGradient>
<linearGradient id="paint44_linear_327_2398" x1="52.7514" y1="11.9696" x2="53.4687" y2="11.9696" gradientUnits="userSpaceOnUse">
<stop stop-color="#DA2700"/>
<stop offset="1" stop-color="#D41B00"/>
</linearGradient>
<linearGradient id="paint45_linear_327_2398" x1="52.3513" y1="0.249434" x2="52.3513" y2="9.96249" gradientUnits="userSpaceOnUse">
<stop offset="0.05" stop-color="#FF3F00"/>
<stop offset="1" stop-color="#FF7C04"/>
</linearGradient>
<linearGradient id="paint46_linear_327_2398" x1="29.1789" y1="13.2067" x2="60.3696" y2="13.2067" gradientUnits="userSpaceOnUse">
<stop stop-color="#FFEA34"/>
<stop offset="0.71" stop-color="#FF8100"/>
<stop offset="0.8" stop-color="#FFA400"/>
<stop offset="1" stop-color="#FFBA00"/>
</linearGradient>
<linearGradient id="paint47_linear_327_2398" x1="50.9365" y1="13.8684" x2="60.3827" y2="13.8684" gradientUnits="userSpaceOnUse">
<stop stop-color="#FFDE00"/>
<stop offset="1" stop-color="#FFE834"/>
</linearGradient>
<linearGradient id="paint48_linear_327_2398" x1="38.4545" y1="13.7127" x2="29.1111" y2="13.7127" gradientUnits="userSpaceOnUse">
<stop stop-color="#FFDE00"/>
<stop offset="1" stop-color="#FFE834"/>
</linearGradient>
<linearGradient id="paint49_linear_327_2398" x1="40.5674" y1="2.896" x2="48.796" y2="2.896" gradientUnits="userSpaceOnUse">
<stop stop-color="#FFDE00"/>
<stop offset="1" stop-color="#FFE834"/>
</linearGradient>
<clipPath id="clip0_327_2398">
<rect width="90" height="87.1367" fill="white" transform="translate(0 0.25)"/>
</clipPath>
</defs>
</svg>
