<svg width="32" height="32" viewBox="0 0 32 32" fill="none" xmlns="http://www.w3.org/2000/svg">
<g clip-path="url(#clip0_327_2136)">
<g clip-path="url(#clip1_327_2136)">
<path d="M10.1409 13.936L8.50206 14.8028L7.30212 20.755C6.89192 20.7847 5.78589 20.1659 4.82317 19.5551C3.96819 19.0135 2.59725 17.4241 2.59132 17.2748C2.92739 16.9388 3.22786 16.7658 3.22786 16.7658C3.22786 16.7658 1.51593 14.534 1.40325 14.2523C1.32417 14.0546 0.738041 12.9624 0.667864 12.6945C0.638211 12.5808 2.63481 12.5571 2.63481 12.5571C2.61307 12.5413 2.13171 12.0095 1.91426 11.6873C1.4586 11.0152 -0.0556575 7.7287 0.0036475 7.7287C4.07197 7.7287 8.38048 11.2079 8.57915 11.5311C8.6266 11.6082 8.67701 11.6952 8.72939 11.7911C9.09313 12.4514 9.57844 13.4882 10.1409 13.9369V13.936Z" fill="url(#paint0_linear_327_2136)"/>
<g style="mix-blend-mode:multiply" opacity="0.4">
<path d="M10.1406 13.9359L8.50184 14.8027L7.30191 20.755C6.52798 20.8113 3.66947 19.0717 2.59111 17.2748C2.60297 17.3558 3.66947 17.9568 4.56399 17.768C5.09675 17.6553 7.91868 15.5866 7.65872 15.3988C7.4986 15.2831 5.07006 15.6923 3.22765 16.7657C3.22765 16.7657 1.51571 14.5339 1.40303 14.2522C1.32396 14.0545 0.737829 12.9623 0.667652 12.6944C0.757598 12.8239 1.12232 13.3685 2.12458 14.0347C2.6435 14.3797 4.48393 14.95 5.50299 15.1368C6.16226 15.2574 8.49097 14.2186 8.29329 13.8509C8.19544 13.669 7.17045 12.6935 2.63361 12.5561C2.61187 12.5403 2.13051 12.0085 1.91306 11.6863C1.45839 11.0151 -0.0519158 7.74939 0.00343558 7.72864C0.00343558 7.72864 0.839636 9.61157 3.08927 10.9657C3.41446 11.1614 8.58784 11.8316 8.57894 11.5311C8.95355 12.139 9.49619 13.4229 10.1406 13.9369V13.9359Z" fill="#D42F55"/>
</g>
<g style="mix-blend-mode:multiply" opacity="0.5">
<path d="M2.40429 10.6919C2.71465 11.032 3.84244 12.5176 3.78313 12.5264C3.34724 12.5946 2.75716 12.4553 2.64843 12.3762C1.97433 11.8889 1.06696 10.1879 0.725959 9.37241C0.528276 8.89896 2.11666 10.3776 2.40429 10.6929V10.6919Z" fill="#D42F55"/>
</g>
<g style="mix-blend-mode:multiply" opacity="0.5">
<path d="M2.51073 14.5448C2.63725 14.6911 3.4774 16.6382 3.22931 16.5384C2.98122 16.4386 1.49958 14.6357 1.12892 13.5326C1.03601 13.2559 2.29229 14.2927 2.51172 14.5458L2.51073 14.5448Z" fill="#D42F55"/>
</g>
<g style="mix-blend-mode:multiply" opacity="0.5">
<path d="M2.93483 17.684C2.94669 17.7848 4.48862 19.6875 7.09112 20.6512C7.39951 20.7659 7.17514 19.5818 6.91815 19.2447C6.35673 18.5074 2.90023 17.3756 2.93483 17.684Z" fill="#D42F55"/>
</g>
<g style="mix-blend-mode:soft-light">
<path d="M3.08922 10.9648C4.21009 11.287 8.11137 11.6656 8.42272 11.5944C8.68564 11.5341 1.17071 9.37641 1.65207 9.88248C1.96243 10.2087 2.87869 10.9045 3.08922 10.9658V10.9648Z" fill="white"/>
</g>
<g style="mix-blend-mode:multiply" opacity="0.2">
<path d="M8.6012 11.9729C7.6365 11.5311 2.92076 11.0122 2.9346 11.114C2.96623 11.3473 3.86767 12.4513 3.99616 12.5067C4.20175 12.5947 5.59344 12.3446 9.62618 13.8094C9.77346 13.8628 9.03808 12.1746 8.6012 11.9739V11.9729Z" fill="#DA0553"/>
</g>
<g style="mix-blend-mode:multiply" opacity="0.3">
<path d="M10.1409 13.9359L8.50209 14.8028L7.30215 20.755C6.89196 20.7847 5.78592 20.1659 4.8232 19.5551C4.8232 19.5551 4.60377 18.1832 4.56522 17.768C4.52668 17.3539 4.99222 15.9671 4.99222 15.9671C4.99222 15.9671 4.2005 15.0103 4.2262 14.8077C4.31417 14.1079 6.24455 12.8497 6.24455 12.8497C6.24455 12.8497 9.57848 13.4882 10.1419 13.9359H10.1409Z" fill="#DA0553"/>
</g>
<path d="M21.8623 13.936L23.5011 14.8028L24.701 20.755C25.1112 20.7847 26.2173 20.1659 27.18 19.5551C28.035 19.0135 29.4059 17.4241 29.4118 17.2748C29.0758 16.9388 28.7753 16.7658 28.7753 16.7658C28.7753 16.7658 30.4872 14.534 30.5999 14.2523C30.679 14.0546 31.2651 12.9624 31.3353 12.6945C31.365 12.5808 29.3684 12.5571 29.3684 12.5571C29.3901 12.5413 29.8715 12.0095 30.0889 11.6873C30.5436 11.0162 32.0578 7.7287 31.9985 7.7287C27.9302 7.7287 23.6217 11.2079 23.423 11.5311C23.3756 11.6082 23.3252 11.6952 23.2728 11.7911C22.909 12.4514 22.4237 13.4882 21.8613 13.9369L21.8623 13.936Z" fill="url(#paint1_linear_327_2136)"/>
<g style="mix-blend-mode:multiply" opacity="0.4">
<path d="M21.8623 13.936L23.5011 14.8028L24.701 20.7551C25.475 20.8114 28.3335 19.0718 29.4118 17.2748C29.4 17.3559 28.3335 17.9569 27.439 17.7681C26.9062 17.6554 24.0843 15.5866 24.3442 15.3988C24.5043 15.2832 26.9329 15.6924 28.7763 16.7658C28.7763 16.7658 30.4882 14.534 30.6009 14.2523C30.68 14.0546 31.2661 12.9624 31.3363 12.6945C31.2463 12.824 30.8816 13.3686 29.8794 14.0348C29.3604 14.3798 27.52 14.9501 26.5009 15.1369C25.8417 15.2575 23.513 14.2187 23.7106 13.851C23.8085 13.6691 24.8335 12.6935 29.3703 12.5561C29.3921 12.5403 29.8734 12.0086 30.0909 11.6863C30.5456 11.0152 32.0558 7.74947 32.0005 7.72772C32.0005 7.72772 31.1643 9.61066 28.9147 10.9648C28.5895 11.1605 23.4151 11.8306 23.425 11.5302C23.0504 12.138 22.5077 13.422 21.8633 13.936H21.8623Z" fill="#D42F55"/>
</g>
<g style="mix-blend-mode:multiply" opacity="0.5">
<path d="M29.5989 10.692C29.2885 11.032 28.1607 12.5176 28.22 12.5265C28.6559 12.5947 29.246 12.4553 29.3557 12.3763C30.0298 11.889 30.9372 10.1879 31.2782 9.37247C31.4759 8.89902 29.8875 10.3777 29.5999 10.693L29.5989 10.692Z" fill="#D42F55"/>
</g>
<g style="mix-blend-mode:multiply" opacity="0.5">
<path d="M29.4927 14.5448C29.3661 14.6911 28.526 16.6383 28.7741 16.5385C29.0232 16.4386 30.5038 14.6358 30.8745 13.5327C30.9674 13.2559 29.7111 14.2928 29.4917 14.5458L29.4927 14.5448Z" fill="#D42F55"/>
</g>
<g style="mix-blend-mode:multiply" opacity="0.5">
<path d="M29.0692 17.6841C29.0574 17.7849 27.5075 19.1914 27.3385 19.3427C27.0934 19.5631 24.9179 21.0694 24.99 20.6513C25.1195 19.8952 25.3162 18.9878 25.6345 18.6962C25.8707 18.4798 29.0841 17.5526 29.0692 17.6841Z" fill="#D42F55"/>
</g>
<g style="mix-blend-mode:multiply" opacity="0.2">
<path d="M28.9145 10.9648C27.7936 11.287 23.8923 11.6656 23.581 11.5944C23.318 11.5341 30.833 9.37641 30.3516 9.88248C30.0413 10.2087 29.125 10.9045 28.9145 10.9658V10.9648Z" fill="#DA0553"/>
</g>
<g style="mix-blend-mode:multiply" opacity="0.2">
<path d="M23.4026 11.973C24.3673 11.5312 29.083 11.0123 29.0692 11.1141C29.0375 11.3473 28.1361 12.4514 28.0076 12.5068C27.802 12.5947 26.4103 12.3447 22.3776 13.8095C22.2303 13.8629 22.9657 12.1746 23.4026 11.974V11.973Z" fill="#DA0553"/>
</g>
<g style="mix-blend-mode:multiply" opacity="0.3">
<path d="M21.8623 13.9359L23.5011 14.8028L24.701 20.755C25.1112 20.7847 26.2173 20.1659 27.18 19.5551C27.18 19.5551 27.3994 18.1832 27.438 17.768C27.4765 17.3539 27.011 15.9671 27.011 15.9671C27.011 15.9671 27.8027 15.0103 27.777 14.8077C27.689 14.1079 25.7587 12.8497 25.7587 12.8497C25.7587 12.8497 22.4247 13.4882 21.8613 13.9359H21.8623Z" fill="#DA0553"/>
</g>
<path d="M25.8884 15.9652C25.0918 18.9621 24.5145 22.3088 23.1367 25.0418C22.3094 26.6846 20.5322 28.0209 19.1474 29.2218C18.1303 30.1035 17.0915 30.9615 16.023 31.7818C13.6093 29.9434 10.7261 27.9102 9.04284 25.3512C8.97365 25.2435 8.91237 25.1397 8.86394 25.0418C7.50091 22.2693 6.90885 18.9591 6.11219 15.9642C6.04201 14.9975 6.20609 14.0052 6.41168 13.0632C12.8216 12.8497 19.2324 12.8507 25.6423 13.0652C25.8212 14.0121 25.9596 14.9995 25.8884 15.9642V15.9652Z" fill="url(#paint2_linear_327_2136)"/>
<g style="mix-blend-mode:multiply" opacity="0.7">
<path d="M25.8888 15.9651C25.0921 18.962 24.4921 22.2426 23.137 25.0418C23.1014 22.9681 23.8161 20.7086 24.2599 18.7011C24.677 16.8122 25.1366 14.9322 25.6427 13.0651C25.8216 14.012 25.9599 14.9995 25.8888 15.9642V15.9651Z" fill="#D42F55"/>
</g>
<g style="mix-blend-mode:multiply" opacity="0.3">
<path d="M16.0242 31.7819C15.9243 31.7384 15.8413 29.2505 16.4442 28.5221C17.2261 27.5772 18.7463 26.8546 19.9027 26.1795C20.4147 25.881 22.9757 24.5348 23.1002 24.9114C23.2109 25.2475 22.1622 26.4494 21.7362 26.8912C20.9751 27.68 20.0391 28.4321 19.2207 29.1606C18.0811 30.1747 16.0252 31.7819 16.0252 31.7819H16.0242Z" fill="#B30053"/>
</g>
<g style="mix-blend-mode:multiply" opacity="0.7">
<path d="M9.04382 25.3522C8.97463 25.2444 8.91335 25.1407 8.86492 25.0428C7.50189 22.2703 6.90983 18.9601 6.11316 15.9652C6.04299 14.9985 6.20706 14.0061 6.41265 13.0642C6.75267 13.0523 6.92268 13.0464 7.26368 13.0365C7.74702 17.1157 8.00697 21.3679 9.04382 25.3522Z" fill="#D42F55"/>
</g>
<path d="M23.7197 13.6543C23.0644 13.0731 22.3913 12.5423 21.6727 12.0421C21.6727 12.0421 21.6727 12.0421 21.6717 12.0412C20.0636 11.0093 18.3605 10.177 16.525 9.63634C16.3649 9.5889 16.2216 9.55035 16.0961 9.51773C16.0694 9.51081 16.0555 9.50686 16.0289 9.49994C16.0022 9.50686 15.9883 9.51081 15.9616 9.51773C13.1229 10.2561 10.5224 11.711 8.336 13.6533C8.30141 13.6859 8.28362 13.7017 8.24902 13.7333C8.25495 13.7818 8.25792 13.8055 8.26385 13.8529C8.27868 13.9696 8.29548 14.0951 8.31327 14.2285C8.46153 15.3425 8.62759 16.4633 8.81835 17.5674C9.16627 19.5818 9.45885 21.9718 10.5066 23.7924C10.5085 23.7954 10.5095 23.7974 10.5115 23.8004C10.5135 23.8033 10.5145 23.8053 10.5165 23.8073C11.3082 24.8155 12.5328 25.5578 13.5618 26.2754C13.9364 26.5363 14.312 26.7864 14.6599 27.0167C15.075 27.2905 15.4931 27.5603 15.9142 27.8242C15.9587 27.8519 15.9804 27.8657 16.0239 27.8934C16.0684 27.8657 16.0901 27.8519 16.1346 27.8242C16.1514 27.8133 16.1682 27.8025 16.186 27.7916C16.954 27.2994 17.7368 26.7953 18.488 26.2754C19.519 25.5607 20.7426 24.8174 21.5343 23.8073C21.5363 23.8043 21.5373 23.8033 21.5393 23.7994C21.5413 23.7964 21.5422 23.7944 21.5442 23.7915C22.5929 21.9688 22.8855 19.5828 23.2344 17.5674C23.4044 16.5889 23.5556 15.5975 23.6901 14.6101C23.7276 14.3313 23.7622 14.0773 23.7899 13.8539C23.7958 13.8055 23.7998 13.7818 23.8057 13.7343C23.7711 13.7017 23.7533 13.6859 23.7187 13.6543H23.7197ZM22.2885 17.4478C21.9762 19.3386 21.7113 21.5211 20.797 23.2567C20.0161 24.1255 18.9635 24.7927 18.0166 25.4441C17.3652 25.8918 16.696 26.3307 16.0239 26.7557C15.3518 26.3307 14.6836 25.8918 14.0323 25.4441C13.0853 24.7927 12.0396 24.1206 11.2528 23.2567C10.3375 21.5181 10.0766 19.3436 9.76427 17.4468C9.58437 16.3546 9.42722 15.2476 9.29378 14.1425C11.2667 12.48 13.5351 11.2188 16.0279 10.5279C18.5197 11.2188 20.7881 12.481 22.761 14.1435C22.6255 15.2476 22.4694 16.3546 22.2895 17.4468L22.2885 17.4478Z" fill="url(#paint3_linear_327_2136)"/>
<path d="M22.7601 14.1445C22.6247 15.2486 22.4686 16.3556 22.2887 17.4478C21.9763 19.3386 21.7114 21.5211 20.7971 23.2567C20.0736 24.3272 19.0467 25.1565 18.0118 25.88C17.3693 26.3297 16.6952 26.7666 16.0241 27.1926C15.3539 26.7676 14.6798 26.3297 14.0374 25.881C13.0015 25.1565 11.9765 24.3282 11.253 23.2577C10.4286 21.6891 10.1746 19.7597 9.86525 18.0468C9.83164 17.854 9.79804 17.6544 9.76443 17.4478C9.58652 16.3516 9.42738 15.2486 9.29395 14.1435C9.67844 13.8015 10.0906 13.4694 10.5087 13.1768C11.9627 12.1598 13.5659 11.3216 15.265 10.7611C15.5546 10.6653 15.8126 10.5882 16.028 10.5289C16.8603 10.7621 17.6698 11.0646 18.4546 11.4076C20.0163 12.0906 21.4485 13.0355 22.7611 14.1445H22.7601Z" fill="url(#paint4_linear_327_2136)"/>
<path style="mix-blend-mode:multiply" opacity="0.5" d="M23.5443 13.8361C23.2299 13.9587 23.0728 14.021 22.7604 14.1445C20.7885 12.482 18.5201 11.2198 16.0273 10.5289C16.0273 10.2205 16.0273 10.0653 16.0273 9.75694C16.226 9.70851 16.3249 9.68478 16.5235 9.63635C18.359 10.176 20.0621 11.0093 21.6702 12.0412C21.6702 12.0412 21.6702 12.0412 21.6712 12.0422C22.2988 12.6362 22.9225 13.2342 23.5423 13.8361H23.5443Z" fill="url(#paint5_linear_327_2136)"/>
<path d="M23.6896 14.611C23.5552 15.5994 23.4039 16.5898 23.2339 17.5684C22.884 19.5838 22.5915 21.9698 21.5437 23.7924C21.5418 23.7954 21.5408 23.7974 21.5388 23.8003C21.5368 23.8033 21.5358 23.8043 21.5339 23.8082C20.7421 24.8184 19.5185 25.5617 18.4876 26.2763C17.7364 26.7962 16.9634 27.3023 16.1855 27.7926C16.1213 27.7194 16.0887 27.6828 16.0234 27.6107C16.0234 27.4436 16.0234 27.3596 16.0234 27.1926C16.6946 26.7676 17.3687 26.3297 18.0111 25.881C19.046 25.1574 20.073 24.3282 20.7965 23.2577C21.7108 21.523 21.9747 19.3406 22.288 17.4488C22.4689 16.3566 22.6241 15.2495 22.7595 14.1455C23.0718 14.0209 23.229 13.9597 23.5433 13.8371C23.6016 14.1475 23.6313 14.3017 23.6896 14.612V14.611Z" fill="url(#paint6_linear_327_2136)"/>
<path d="M25.6378 13.0602C25.4816 12.8932 25.3116 12.7291 25.1436 12.57C25.1209 12.5482 25.0971 12.5265 25.0724 12.5037C24.3074 11.797 23.4593 11.1753 22.5974 10.5911C22.5974 10.5911 22.3108 10.5249 21.8828 10.2521C21.4677 9.98723 21.3283 9.83501 21.3204 9.82513C19.7696 9.00375 18.1525 8.29407 16.4692 7.82951C16.4564 7.82556 16.4426 7.82161 16.4297 7.81864C16.238 7.76724 16.1085 7.73265 16.0561 7.72079C16.0511 7.72079 16.0452 7.71782 16.0403 7.71683C16.0363 7.71584 16.0333 7.71486 16.0294 7.71387C16.0294 7.71387 16.0274 7.71387 16.0254 7.71486C16.0225 7.71486 16.0185 7.71683 16.0126 7.71782C12.5591 8.56786 9.09664 10.3529 6.591 12.8813C6.5317 12.9416 6.4714 13.0029 6.41309 13.0642C6.41506 13.08 6.41605 13.0869 6.41803 13.1027C6.42989 13.1996 6.46646 13.4744 6.52379 13.8806C6.52379 13.8846 6.52379 13.8855 6.52478 13.8895C6.77979 15.6706 7.0773 17.4488 7.44796 19.2101C7.83146 21.0348 8.20212 23.1006 9.18164 24.6741C10.004 25.9946 11.7159 26.9821 12.9841 27.8667C13.9794 28.5616 14.9925 29.2327 16.0245 29.8732C17.0564 29.2327 18.0695 28.5606 19.0648 27.8657C20.331 26.9831 22.0479 25.9897 22.8683 24.6731C23.8498 23.0986 24.2204 21.0367 24.6039 19.2101C24.9736 17.4488 25.2731 15.6726 25.5291 13.8915C25.5291 13.8875 25.5291 13.8865 25.5301 13.8826C25.5884 13.4773 25.6249 13.2016 25.6368 13.1047C25.6388 13.0889 25.6398 13.082 25.6418 13.0661C25.6418 13.0661 25.6398 13.0642 25.6358 13.0602H25.6378ZM22.9997 17.5387C22.6607 19.5195 22.3829 21.8759 21.354 23.6689C20.5603 24.6425 19.3841 25.369 18.371 26.0698C17.6059 26.5986 16.8182 27.1135 16.0254 27.6117C15.2317 27.1155 14.445 26.5995 13.6809 26.0707C12.6757 25.3759 11.4866 24.6425 10.6989 23.6709C9.66992 21.8799 9.39316 19.5195 9.05512 17.5397C8.84657 16.3151 8.66668 15.0746 8.51149 13.8371C10.6662 11.9255 13.2332 10.4884 16.0294 9.7589C18.8256 10.4933 21.3886 11.9245 23.5453 13.8381C23.3901 15.0756 23.2093 16.3161 22.9997 17.5397V17.5387Z" fill="url(#paint7_linear_327_2136)"/>
<g style="mix-blend-mode:soft-light">
<path d="M25.4642 13.0741C25.2556 12.3634 22.9486 10.9688 21.6805 10.1968C19.9913 9.16786 16.8778 7.7139 16.091 7.82461C16.0742 7.82757 16.0139 7.82757 15.9971 7.82461C15.2113 7.7139 12.0543 9.0028 10.3651 10.0317C9.09697 10.8037 6.8335 12.3634 6.62395 13.0741C6.45098 13.6642 6.82163 15.558 7.00153 15.559C7.16956 15.559 8.00378 15.2753 8.45648 15.043C8.56224 14.9896 8.37048 13.9587 8.50787 13.8342C11.0659 11.5104 13.6832 10.4449 15.7362 9.75597C15.9971 9.668 16.0831 9.69667 16.1711 9.73027C17.7842 10.3451 21.0202 11.5114 23.5783 13.8342C23.7147 13.9587 23.5239 14.9896 23.6297 15.043C24.0824 15.2743 24.9166 15.559 25.0846 15.559C25.2655 15.558 25.6362 13.6642 25.4622 13.0741H25.4642Z" fill="white"/>
</g>
<g style="mix-blend-mode:soft-light" opacity="0.7">
<path d="M9.29396 14.1445C9.42937 15.2486 9.58554 16.3556 9.76543 17.4478C10.0778 19.3386 10.3427 21.5211 11.257 23.2567C11.9805 24.3272 13.0074 25.1565 14.0423 25.88C14.6848 26.3297 15.3589 26.7666 16.03 27.1916C16.0162 24.4171 16.0033 21.6407 16.028 18.8662C16.0528 16.0897 16.1081 13.3053 16.0261 10.5279C13.5343 11.2188 11.2658 12.481 9.29297 14.1435L9.29396 14.1445Z" fill="#FFF5F2"/>
</g>
<g style="mix-blend-mode:multiply" opacity="0.3">
<path d="M22.7601 14.1445C22.6247 15.2486 22.4686 16.3556 22.2887 17.4478C21.9763 19.3386 21.7114 21.5211 20.7971 23.2567C20.0736 24.3272 19.0467 25.1565 18.0118 25.88C17.3693 26.3297 16.6952 26.7666 16.0241 27.1926C15.3539 26.7676 14.6798 26.3297 14.0374 25.881C13.0015 25.1565 11.9765 24.3282 11.253 23.2577C10.4286 21.6891 10.1746 19.7597 9.86525 18.0468C9.83164 17.854 9.79804 17.6544 9.76443 17.4478C9.58652 16.3516 9.42738 15.2486 9.29395 14.1435C9.67844 13.8015 10.0896 13.4753 10.5087 13.1768C10.5166 13.1729 10.5206 13.1709 10.5295 13.167C10.1252 13.4783 9.75751 13.8618 9.61913 14.274C9.30877 15.1962 10.1321 18.799 10.3753 19.8941C10.7024 21.3639 14.6373 19.2596 15.8511 19.1953C17.0382 19.1321 20.6518 21.9243 21.2558 20.8153C22.7888 18.0003 21.6897 13.42 18.4487 11.4086C18.4487 11.4086 18.4506 11.4086 18.4546 11.4086C20.0252 12.1123 21.4485 13.0365 22.7611 14.1455L22.7601 14.1445Z" fill="#B30053"/>
</g>
<g style="mix-blend-mode:multiply" opacity="0.8">
<path d="M8.55424 14.1594C8.85077 14.3936 9.36376 14.706 9.36376 14.706C10.1525 13.0909 12.1718 12.3367 13.7632 11.9829C15.5898 11.5766 17.6951 12.5799 19.2746 13.4655C20.3461 14.0665 21.8178 14.8404 22.5265 15.8921C22.8527 15.6519 23.0168 15.5323 23.3479 15.2941C23.425 14.7109 23.4635 14.4183 23.5436 13.8352C19.7856 10.5319 16.0277 9.75598 16.0277 9.75598C16.0277 9.75598 11.6717 10.8709 8.50977 13.8342C8.52756 13.9637 8.53645 14.0289 8.55424 14.1594Z" fill="#D42F55"/>
</g>
<g style="mix-blend-mode:multiply" opacity="0.2">
<path d="M24.9772 15.7121C24.6738 15.5569 23.5954 15.3246 23.4264 15.7575C23.3236 16.0215 23.0617 17.5436 22.8857 18.5133C22.5438 20.4011 22.2561 20.7234 22.0248 21.7454C21.9379 22.1289 23.5697 22.1061 23.807 21.9421C23.9898 21.8156 24.0699 21.4548 24.3624 20.0483C24.6086 18.8641 24.9021 17.6721 25.0711 16.4722C25.1196 16.1292 25.1729 15.8129 24.9772 15.7131V15.7121Z" fill="#DA0553"/>
</g>
<g style="mix-blend-mode:multiply" opacity="0.2">
<path d="M8.51065 15.3297C8.37722 15.2279 7.1417 15.5293 7.00332 15.7675C6.85407 16.0245 7.21088 17.8906 7.40659 18.8306C7.79504 20.6928 8.09552 21.7791 8.24872 22.0311C8.58775 22.5886 10.2542 22.643 10.103 22.1369C9.83513 21.2345 9.56628 20.8697 9.29447 19.1934C9.11359 18.0814 8.74886 15.5125 8.51065 15.3287V15.3297Z" fill="#DA0553"/>
</g>
<g style="mix-blend-mode:multiply" opacity="0.3">
<path d="M16.2591 31.3865C16.1405 31.4082 16.1257 30.0314 16.1821 29.9553C16.7534 29.1883 19.1147 28.189 18.4485 29.6617C18.2518 30.0976 16.6792 31.3084 16.2591 31.3865Z" fill="#B30053"/>
</g>
<g style="mix-blend-mode:soft-light">
<path d="M21.6129 25.9552C21.8096 25.7446 21.4271 24.0515 21.2492 24.1622C20.9774 24.3312 16.1223 27.6048 16.0274 27.7304C15.8149 28.0111 16.0017 29.6469 16.0936 29.6627C16.3051 29.6983 20.9784 26.6352 21.6139 25.9552H21.6129Z" fill="white"/>
</g>
<g style="mix-blend-mode:soft-light">
<path d="M13.6156 10.5289C13.9072 10.4004 13.6858 8.47495 13.3685 8.58665C10.7759 9.49994 8.12299 11.546 8.12892 11.6339C8.13781 11.7545 9.70841 12.5423 10.3627 12.2428C10.8431 12.0234 12.3465 11.0864 13.6156 10.5289Z" fill="white"/>
</g>
<g style="mix-blend-mode:multiply" opacity="0.8">
<path d="M25.6427 13.0661C25.6408 13.0819 25.6398 13.0889 25.6378 13.1047C25.5943 13.416 25.5735 13.5712 25.531 13.8826C25.531 13.8865 25.531 13.8875 25.5301 13.8915C25.8414 12.4553 23.6125 11.5796 22.4472 10.7236C22.1082 10.4745 21.7424 10.2304 21.3777 10.006C19.8467 9.06601 18.0823 8.25847 16.2775 8.05782C14.9323 7.90857 12.2438 9.03833 10.5941 9.92692C9.2617 10.6445 6.78275 12.394 6.45262 13.3557C6.45262 13.3518 6.52478 13.8845 6.52379 13.8816C6.48228 13.5702 6.46053 13.415 6.41803 13.1037C6.41605 13.0879 6.41506 13.081 6.41309 13.0651C6.47239 13.0029 6.5317 12.9416 6.591 12.8823C9.11443 10.3806 12.5087 8.54907 16.0126 7.7188C16.0175 7.71781 16.0225 7.71682 16.0254 7.71583C16.0284 7.71583 16.0294 7.71484 16.0294 7.71484C16.0333 7.71583 16.0363 7.71682 16.0403 7.71781C16.0452 7.71781 16.0511 7.72077 16.0561 7.72176C16.1816 7.75339 16.3071 7.787 16.4297 7.81962C16.4435 7.82357 16.4564 7.82752 16.4692 7.83049C18.1515 8.29307 19.7686 9.00374 21.3204 9.8261C21.3283 9.835 21.4677 9.9882 21.8828 10.2531C22.3118 10.5259 22.5974 10.5921 22.5974 10.5921C23.4633 11.1783 24.3024 11.795 25.0724 12.5047C25.0971 12.5274 25.1209 12.5492 25.1436 12.5709C25.4381 12.8487 25.6072 13.0276 25.6378 13.0612C25.6417 13.0651 25.6437 13.0671 25.6437 13.0671L25.6427 13.0661Z" fill="#D42F55"/>
</g>
<path d="M12.4814 25.2118C12.4814 25.2118 15.4922 27.7925 15.9992 27.7925C16.4776 27.7925 19.2205 25.4895 19.2205 25.4895C19.2185 25.4876 16.3817 27.3053 16.0388 27.3517C15.3202 27.4476 12.4824 25.2118 12.4824 25.2118H12.4814Z" fill="white"/>
<path d="M22.9306 17.941C22.9642 17.9489 21.3521 23.6669 21.3521 23.6669C21.3283 23.6561 22.1468 22.297 22.5866 20.6295C22.7902 19.8596 22.9296 17.941 22.9296 17.941H22.9306Z" fill="white"/>
<path d="M9.10841 17.8629C9.0748 17.8708 10.5723 23.4415 10.5723 23.4415C10.596 23.4307 9.70443 21.7879 9.39802 20.6305C9.1944 19.8605 9.10742 17.8629 9.10742 17.8629H9.10841Z" fill="white"/>
<g style="mix-blend-mode:multiply" opacity="0.2">
<path d="M14.3365 27.7856C15.2735 27.8311 14.6775 27.1906 14.3049 26.9485C13.954 26.7201 12.9142 26.3712 12.848 26.4928C12.7412 26.6865 13.7128 27.755 14.3365 27.7856Z" fill="#EE9C50"/>
</g>
<g style="mix-blend-mode:multiply" opacity="0.2">
<path d="M14.5486 28.1622C13.9625 27.925 13.7569 27.843 14.0366 28.3075C14.3164 28.7721 14.9262 28.3155 14.5486 28.1622Z" fill="#EE9C50"/>
</g>
<path d="M11.3215 26.6588C11.1841 26.901 11.9185 28.1157 12.5263 27.4742C12.6321 27.3626 11.4252 26.4769 11.3215 26.6588Z" fill="#ED4800"/>
<g style="mix-blend-mode:multiply" opacity="0.8">
<path d="M11.3401 26.7438C11.3046 26.9267 11.5714 27.4179 11.7444 27.4456C11.9164 27.4733 12.2693 27.1679 11.9194 26.9445C11.5279 26.6964 11.3678 26.6055 11.3411 26.7438H11.3401Z" fill="#D42F55"/>
</g>
<path d="M11.8281 27.5731C12.3115 27.8489 12.6663 27.7144 12.61 27.5247C12.5546 27.3349 12.4063 27.2805 12.4063 27.2805C12.4063 27.2805 12.5516 27.3932 12.4736 27.5069C12.3955 27.6195 11.8281 27.5731 11.8281 27.5731Z" fill="white"/>
<path d="M22.5971 10.5912C22.5448 10.6426 22.4943 10.688 22.4469 10.7236C21.9062 11.116 21.2598 10.6742 21.2559 10.0456C21.2559 9.90618 21.3201 9.82513 21.3201 9.82513C21.328 9.83403 21.4674 9.98723 21.8825 10.2521C22.3115 10.5249 22.5971 10.5912 22.5971 10.5912Z" fill="#ED4800"/>
<g style="mix-blend-mode:multiply" opacity="0.8">
<path d="M21.2939 9.86956C21.2375 10.0406 21.2948 10.5575 21.5024 10.6336C21.709 10.7097 21.8335 10.3489 21.7772 10.261C21.7209 10.174 21.3235 9.77961 21.2939 9.86857V9.86956Z" fill="#D42F55"/>
</g>
<path d="M21.4883 10.6751C21.4883 10.6751 21.8925 11.0646 22.5202 10.6623C22.5202 10.6623 22.449 11.0448 22.0042 11.0458C21.764 11.0458 21.4883 10.6751 21.4883 10.6751Z" fill="white"/>
<g style="mix-blend-mode:multiply" opacity="0.2">
<path d="M16.0693 7.97775C15.9804 8.51644 15.9468 9.45741 16.1464 9.63631C16.3461 9.81522 18.995 10.7473 19.0751 10.7473C19.1552 10.7473 19.3954 9.03041 18.995 8.79023C18.5947 8.55103 16.1247 7.64564 16.0693 7.97775Z" fill="#DA0553"/>
</g>
<path d="M24.8752 25.5717C24.4146 26.051 24.3178 26.136 24.1814 26.2309C23.4381 26.7479 21.7607 26.8912 21.7607 26.8912L22.0059 25.6992L24.8752 25.5717Z" fill="url(#paint8_linear_327_2136)"/>
<path d="M23.4995 23.41C24.8002 23.9477 25.0295 25.452 24.8753 25.5716C23.7051 26.474 22.006 25.6991 22.006 25.6991C22.006 25.6991 21.4356 24.0178 21.6679 23.6679C21.8735 23.3576 23.4995 23.41 23.4995 23.41Z" fill="url(#paint9_linear_327_2136)"/>
<g style="mix-blend-mode:multiply" opacity="0.2">
<path d="M24.6769 25.6111C24.8766 25.456 21.8204 23.6738 21.6672 23.7677C21.514 23.8616 21.7601 25.4935 22.1466 25.7169C22.2701 25.7881 23.7686 26.3179 24.6769 25.6111Z" fill="#DA0553"/>
</g>
<g style="mix-blend-mode:soft-light">
<path d="M24.8255 25.4659C24.9302 25.3907 24.8956 24.3351 23.8054 23.5948C23.3458 23.2824 21.7228 23.5513 21.7594 23.5898C21.796 23.6284 24.7207 25.541 24.8245 25.4659H24.8255Z" fill="white"/>
</g>
<path d="M7.11523 25.5717C7.57584 26.051 7.6727 26.136 7.8091 26.2309C8.55239 26.7479 10.2297 26.8912 10.2297 26.8912L9.98461 25.6992L7.11523 25.5717Z" fill="url(#paint10_linear_327_2136)"/>
<path d="M8.49108 23.41C7.19131 23.9477 6.96101 25.452 7.1152 25.5716C8.28549 26.474 9.98457 25.6991 9.98457 25.6991C9.98457 25.6991 10.5549 24.0178 10.3226 23.6679C10.117 23.3576 8.49108 23.41 8.49108 23.41Z" fill="url(#paint11_linear_327_2136)"/>
<g style="mix-blend-mode:multiply" opacity="0.2">
<path d="M7.31406 25.6111C7.1144 25.456 10.1706 23.6738 10.3238 23.7677C10.477 23.8616 10.2309 25.4935 9.8444 25.7169C9.72085 25.7881 8.22241 26.3179 7.31406 25.6111Z" fill="#DA0553"/>
</g>
<g style="mix-blend-mode:soft-light">
<path d="M7.16514 25.4659C7.06036 25.3907 7.09496 24.3351 8.18518 23.5948C8.6448 23.2824 10.2678 23.5513 10.2312 23.5898C10.1946 23.6284 7.26991 25.541 7.16612 25.4659H7.16514Z" fill="white"/>
</g>
<path d="M27.7711 14.4964C27.5418 15.121 27.4875 15.2377 27.4005 15.379C26.928 16.1519 25.6045 16.9565 25.6045 16.9565L25.1953 15.7665L27.7721 14.4954L27.7711 14.4964Z" fill="url(#paint12_linear_327_2136)"/>
<path d="M25.6421 13.0711C27.0486 13.0405 27.864 14.3254 27.7711 14.4964C27.0624 15.7932 25.1943 15.7675 25.1943 15.7675C25.1943 15.7675 23.9963 14.4569 24.0675 14.0437C24.1308 13.677 25.6411 13.0711 25.6411 13.0711H25.6421Z" fill="url(#paint13_linear_327_2136)"/>
<g style="mix-blend-mode:multiply" opacity="0.2">
<path d="M27.6049 14.612C27.7245 14.3896 24.2107 13.9864 24.1079 14.1336C24.0051 14.2809 24.8867 15.6766 25.3305 15.726C25.4719 15.7418 27.0583 15.6242 27.6039 14.612H27.6049Z" fill="#DA0553"/>
</g>
<g style="mix-blend-mode:soft-light">
<path d="M27.6837 14.4203C27.7489 14.3096 27.2932 13.3568 25.9974 13.1176C25.4518 13.0168 24.073 13.9152 24.1224 13.936C24.1718 13.9567 27.6184 14.531 27.6837 14.4213V14.4203Z" fill="white"/>
</g>
<path d="M4.24902 14.4964C4.47834 15.121 4.5327 15.2377 4.61968 15.379C5.09214 16.1519 6.28615 16.8419 6.28615 16.8419L6.82583 15.7665L4.24902 14.4954V14.4964Z" fill="url(#paint14_linear_327_2136)"/>
<path d="M6.37841 13.0711C4.97189 13.0405 4.15645 14.3254 4.24936 14.4964C4.95805 15.7932 6.82616 15.7675 6.82616 15.7675C6.82616 15.7675 8.02412 14.4569 7.95296 14.0437C7.8897 13.677 6.3794 13.0711 6.3794 13.0711H6.37841Z" fill="url(#paint15_linear_327_2136)"/>
<g style="mix-blend-mode:multiply" opacity="0.2">
<path d="M4.41412 14.612C4.29452 14.3896 7.80834 13.9864 7.91114 14.1336C8.01393 14.2809 7.13226 15.6766 6.68847 15.726C6.54712 15.7418 4.9617 15.6242 4.41511 14.612H4.41412Z" fill="#DA0553"/>
</g>
<g style="mix-blend-mode:soft-light">
<path d="M4.33711 14.4203C4.27187 14.3096 4.72753 13.3568 6.02335 13.1176C6.56895 13.0168 7.94779 13.9152 7.89837 13.936C7.84895 13.9567 4.40234 14.531 4.33711 14.4213V14.4203Z" fill="white"/>
</g>
<path d="M15.3292 8.62418C15.1068 9.0838 15.8076 10.0307 16.4432 9.31113C17.1479 8.51447 15.8096 7.63181 15.3292 8.62418Z" fill="url(#paint16_linear_327_2136)"/>
<path d="M15.5125 8.6212C15.3751 8.89697 15.4779 9.17669 15.728 9.34769C16.0156 9.54438 16.3685 9.3121 16.491 9.06994C16.665 8.72498 16.3339 8.36718 16.1273 8.30886C15.9217 8.25054 15.6103 8.4245 15.5125 8.6212Z" fill="url(#paint17_linear_327_2136)"/>
<g style="mix-blend-mode:multiply" opacity="0.4">
<path d="M15.4645 8.8634C15.4546 8.90689 15.4645 9.14905 15.6484 9.27458C15.8322 9.40011 15.9627 9.42185 15.9765 9.40109C15.9903 9.38034 15.9903 9.2133 15.9815 9.2044C15.9726 9.1955 15.8292 9.12533 15.76 9.03044C15.6909 8.93456 15.6671 8.90194 15.6474 8.89997C15.6276 8.89799 15.4714 8.83374 15.4645 8.8634Z" fill="#B82774"/>
</g>
<g style="mix-blend-mode:soft-light">
<path d="M15.6851 8.88911C15.6594 9.0008 15.9786 9.20836 16.0083 9.20441C16.1457 9.18464 16.3127 8.8812 16.3157 8.78236C16.3177 8.71514 16.0607 8.50066 15.9776 8.52636C15.8956 8.55206 15.7058 8.80311 15.6851 8.89009V8.88911Z" fill="white"/>
</g>
<g style="mix-blend-mode:multiply" opacity="0.8">
<path d="M16.0081 9.20438C15.9706 9.22019 15.9834 9.39317 15.9972 9.39514C16.1425 9.41195 16.2908 9.33189 16.4361 9.1431C16.5537 8.98989 16.5438 8.78331 16.4934 8.72005C16.4746 8.69732 16.3165 8.75564 16.3155 8.78233C16.3116 8.94739 16.1336 9.15199 16.0081 9.20438Z" fill="#B82774"/>
</g>
<path opacity="0.75" d="M15.4531 8.82483C15.4512 8.85053 15.6419 8.9128 15.6568 8.89698C15.6795 8.87128 15.9671 8.53226 15.9691 8.5115C15.9711 8.47789 15.979 8.31382 15.9305 8.31085C15.9147 8.31085 15.7062 8.37213 15.5816 8.52139C15.4561 8.67162 15.4561 8.79122 15.4541 8.82384L15.4531 8.82483Z" fill="white"/>
<path d="M15.5127 8.62126C15.5127 8.62126 15.6017 8.47004 15.7588 8.38306C15.7588 8.38306 15.8438 8.40876 15.7776 8.5155C15.7114 8.62225 15.5137 8.62126 15.5137 8.62126H15.5127Z" fill="white"/>
<path d="M15.9115 9.15304C15.9056 9.16194 15.9669 9.28252 15.9837 9.27857C16.0005 9.2756 16.0647 9.1817 16.0568 9.1817C16.0489 9.1817 15.9244 9.13228 15.9115 9.15304Z" fill="white"/>
<path d="M16.2886 8.72699C16.2639 8.75763 16.2856 8.8624 16.2995 8.86537C16.3133 8.86932 16.3766 8.74972 16.3696 8.7428C16.3617 8.73489 16.3113 8.69931 16.2886 8.72699Z" fill="white"/>
<path d="M15.7676 9.53652C15.7676 9.53652 16.1145 9.64327 16.4437 9.31116C16.7451 9.00673 16.6216 8.66671 16.6087 8.63409C16.6087 8.63409 16.8331 9.0344 16.4407 9.40111C16.1036 9.71641 15.7686 9.53751 15.7686 9.53751L15.7676 9.53652Z" fill="#FFF7C4"/>
<g style="mix-blend-mode:multiply" opacity="0.5">
<path d="M15.6482 9.47426C15.4604 9.23605 15.3033 8.81696 15.6285 8.47991C15.9536 8.14286 16.3658 8.39095 16.5081 8.45619C16.5081 8.45619 16.0159 7.78406 15.4476 8.18437C15.1698 8.38008 15.1412 8.70626 15.2252 8.93359C15.3477 9.26373 15.6472 9.47525 15.6472 9.47525L15.6482 9.47426Z" fill="#E54136"/>
</g>
<path d="M15.3292 28.4578C15.1068 28.9174 15.8076 29.8643 16.4432 29.1447C17.1479 28.3481 15.8096 27.4654 15.3292 28.4578Z" fill="url(#paint18_linear_327_2136)"/>
<path d="M15.5125 28.4539C15.3751 28.7297 15.4779 29.0094 15.728 29.1804C16.0156 29.3771 16.3685 29.1448 16.491 28.9026C16.665 28.5577 16.3339 28.1999 16.1273 28.1416C15.9217 28.0832 15.6103 28.2572 15.5125 28.4539Z" fill="url(#paint19_linear_327_2136)"/>
<g style="mix-blend-mode:multiply" opacity="0.4">
<path d="M15.4645 28.696C15.4546 28.7395 15.4645 28.9817 15.6484 29.1072C15.8322 29.2327 15.9627 29.2545 15.9765 29.2337C15.9903 29.213 15.9903 29.0459 15.9815 29.037C15.9726 29.0281 15.8292 28.958 15.76 28.8631C15.6909 28.7682 15.6671 28.7346 15.6474 28.7326C15.6276 28.7306 15.4714 28.6664 15.4645 28.696Z" fill="#B82774"/>
</g>
<g style="mix-blend-mode:soft-light">
<path d="M15.6851 28.7218C15.6594 28.8335 15.9786 29.0411 16.0083 29.0371C16.1457 29.0173 16.3127 28.7139 16.3157 28.6151C16.3177 28.5478 16.0607 28.3334 15.9776 28.3591C15.8956 28.3848 15.7058 28.6358 15.6851 28.7228V28.7218Z" fill="white"/>
</g>
<g style="mix-blend-mode:multiply" opacity="0.8">
<path d="M16.0081 29.038C15.9706 29.0538 15.9834 29.2268 15.9972 29.2288C16.1425 29.2456 16.2908 29.1655 16.4361 28.9767C16.5537 28.8235 16.5438 28.617 16.4934 28.5537C16.4746 28.53 16.3165 28.5893 16.3155 28.616C16.3116 28.781 16.1336 28.9856 16.0081 29.038Z" fill="#B82774"/>
</g>
<path opacity="0.75" d="M15.4531 28.6585C15.4512 28.6842 15.6419 28.7465 15.6568 28.7307C15.6795 28.705 15.9671 28.3659 15.9691 28.3452C15.9711 28.3116 15.979 28.1475 15.9305 28.1445C15.9147 28.1445 15.7062 28.2058 15.5816 28.3551C15.4561 28.5053 15.4561 28.6249 15.4541 28.6575L15.4531 28.6585Z" fill="white"/>
<path d="M15.5127 28.4539C15.5127 28.4539 15.6017 28.3027 15.7588 28.2157C15.7588 28.2157 15.8438 28.2414 15.7776 28.3481C15.7114 28.4549 15.5137 28.4539 15.5137 28.4539H15.5127Z" fill="white"/>
<path d="M15.9115 28.9867C15.9056 28.9956 15.9669 29.1161 15.9837 29.1122C16.0005 29.1092 16.0647 29.0153 16.0568 29.0153C16.0489 29.0153 15.9244 28.9659 15.9115 28.9867Z" fill="white"/>
<path d="M16.2886 28.5607C16.2639 28.5913 16.2856 28.6961 16.2995 28.699C16.3133 28.703 16.3766 28.5834 16.3696 28.5765C16.3617 28.5686 16.3113 28.533 16.2886 28.5607Z" fill="white"/>
<path d="M15.7676 29.3702C15.7676 29.3702 16.1145 29.4769 16.4437 29.1448C16.7451 28.8404 16.6216 28.5004 16.6087 28.4678C16.6087 28.4678 16.8331 28.8681 16.4407 29.2348C16.1036 29.5501 15.7686 29.3712 15.7686 29.3712L15.7676 29.3702Z" fill="#FFF7C4"/>
<g style="mix-blend-mode:multiply" opacity="0.5">
<path d="M15.6482 29.3079C15.4604 29.0697 15.3033 28.6506 15.6285 28.3135C15.9536 27.9765 16.3658 28.2246 16.5081 28.2898C16.5081 28.2898 16.0159 27.6177 15.4476 28.018C15.1698 28.2137 15.1412 28.5399 15.2252 28.7672C15.3477 29.0973 15.6472 29.3089 15.6472 29.3089L15.6482 29.3079Z" fill="#E54136"/>
</g>
<path d="M7.82921 12.3485C7.60682 12.8082 8.3076 13.7551 8.94316 13.0355C9.6479 12.2388 8.30958 11.3562 7.82921 12.3485Z" fill="url(#paint20_linear_327_2136)"/>
<path d="M8.01249 12.3456C7.8751 12.6214 7.9779 12.9011 8.22797 13.0721C8.5156 13.2688 8.86846 13.0365 8.99102 12.7944C9.16499 12.4494 8.83387 12.0916 8.62729 12.0333C8.4217 11.975 8.11034 12.1489 8.01249 12.3456Z" fill="url(#paint21_linear_327_2136)"/>
<g style="mix-blend-mode:multiply" opacity="0.4">
<path d="M7.96451 12.5878C7.95463 12.6313 7.96451 12.8734 8.14836 12.9989C8.3322 13.1245 8.46169 13.1462 8.47651 13.1255C8.49035 13.1047 8.49035 12.9377 8.48145 12.9288C8.47256 12.9199 8.32924 12.8497 8.26005 12.7548C8.19086 12.6589 8.16714 12.6263 8.14737 12.6243C8.1276 12.6224 7.97143 12.5581 7.96451 12.5878Z" fill="#B82774"/>
</g>
<g style="mix-blend-mode:soft-light">
<path d="M8.18506 12.6135C8.15937 12.7252 8.47862 12.9327 8.50828 12.9288C8.64567 12.909 8.81271 12.6046 8.81567 12.5057C8.81765 12.4385 8.56066 12.224 8.47764 12.2497C8.3956 12.2754 8.20582 12.5265 8.18506 12.6135Z" fill="white"/>
</g>
<g style="mix-blend-mode:multiply" opacity="0.8">
<path d="M8.50752 12.9288C8.46897 12.9446 8.48281 13.1176 8.49665 13.1196C8.64095 13.1364 8.79021 13.0563 8.9355 12.8675C9.05312 12.7143 9.04324 12.5077 8.99283 12.4445C8.97405 12.4217 8.8159 12.4801 8.81492 12.5068C8.81096 12.6718 8.63305 12.8764 8.50752 12.9298V12.9288Z" fill="#B82774"/>
</g>
<path opacity="0.75" d="M7.95314 12.5502C7.95116 12.5759 8.14193 12.6382 8.15675 12.6224C8.17949 12.5967 8.46712 12.2577 8.46811 12.2369C8.47008 12.2033 8.47799 12.0392 8.42956 12.0363C8.41374 12.0363 8.20519 12.0975 8.08065 12.2468C7.95512 12.397 7.95512 12.5166 7.95314 12.5492V12.5502Z" fill="white"/>
<path d="M8.0127 12.3456C8.0127 12.3456 8.10165 12.1944 8.25881 12.1074C8.25881 12.1074 8.34382 12.1331 8.27759 12.2399C8.21137 12.3466 8.01368 12.3456 8.01368 12.3456H8.0127Z" fill="white"/>
<path d="M8.41154 12.8784C8.4056 12.8873 8.46689 13.0079 8.48369 13.0039C8.50049 13.0009 8.56474 12.907 8.55683 12.907C8.54893 12.907 8.42438 12.8576 8.41154 12.8784Z" fill="white"/>
<path d="M8.78858 12.4524C8.76387 12.483 8.78562 12.5878 8.79946 12.5908C8.81329 12.5947 8.87655 12.4751 8.86963 12.4682C8.86173 12.4603 8.81132 12.4247 8.78858 12.4524Z" fill="white"/>
<path d="M8.26758 13.2619C8.26758 13.2619 8.61451 13.3686 8.94366 13.0365C9.24512 12.7321 9.12157 12.3921 9.10872 12.3594C9.10872 12.3594 9.33309 12.7597 8.94069 13.1264C8.60364 13.4418 8.26857 13.2628 8.26857 13.2628L8.26758 13.2619Z" fill="#FFF7C4"/>
<g style="mix-blend-mode:multiply" opacity="0.5">
<path d="M8.14823 13.1996C7.96043 12.9614 7.80327 12.5423 8.12846 12.2053C8.45365 11.8682 8.86582 12.1163 9.00815 12.1815C9.00815 12.1815 8.51592 11.5094 7.94758 11.9097C7.66983 12.1054 7.64117 12.4316 7.72518 12.6589C7.84775 12.9891 8.14724 13.2006 8.14724 13.2006L8.14823 13.1996Z" fill="#E54136"/>
</g>
<path d="M7.81261 12.3436C7.59021 12.8032 8.291 13.7501 8.92655 13.0306C9.6313 12.2339 8.29298 11.3512 7.81261 12.3436Z" fill="url(#paint22_linear_327_2136)"/>
<path d="M7.99589 12.3407C7.8585 12.6165 7.96129 12.8962 8.21136 13.0672C8.49899 13.2649 8.85186 13.0316 8.97442 12.7894C9.14838 12.4445 8.81726 12.0867 8.61068 12.0283C8.40509 11.97 8.09374 12.144 7.99589 12.3407Z" fill="url(#paint23_linear_327_2136)"/>
<g style="mix-blend-mode:multiply" opacity="0.4">
<path d="M7.94693 12.5828C7.93705 12.6263 7.94693 12.8685 8.13078 12.994C8.31462 13.1195 8.44411 13.1413 8.45893 13.1205C8.47277 13.0998 8.47277 12.9327 8.46388 12.9238C8.45498 12.9149 8.31166 12.8447 8.24247 12.7499C8.17328 12.655 8.14956 12.6214 8.12979 12.6194C8.11002 12.6174 7.95385 12.5532 7.94693 12.5828Z" fill="#B82774"/>
</g>
<g style="mix-blend-mode:soft-light">
<path d="M8.16846 12.6085C8.14276 12.7202 8.46202 12.9278 8.49168 12.9238C8.62907 12.904 8.79611 12.5996 8.79907 12.5017C8.80105 12.4345 8.54406 12.2191 8.46103 12.2457C8.379 12.2714 8.18922 12.5225 8.16846 12.6095V12.6085Z" fill="white"/>
</g>
<g style="mix-blend-mode:multiply" opacity="0.8">
<path d="M8.49151 12.9239C8.45395 12.9397 8.4668 13.1126 8.48064 13.1146C8.62495 13.1314 8.7742 13.0514 8.9195 12.8626C9.03712 12.7094 9.02724 12.5028 8.97683 12.4395C8.95805 12.4168 8.7999 12.4751 8.79891 12.5018C8.79496 12.6669 8.61704 12.8715 8.49151 12.9239Z" fill="#B82774"/>
</g>
<path opacity="0.75" d="M7.93752 12.5443C7.93554 12.57 8.1263 12.6323 8.14113 12.6165C8.16386 12.5908 8.45149 12.2517 8.45248 12.231C8.45446 12.1974 8.46236 12.0333 8.41393 12.0303C8.39812 12.0303 8.18956 12.0916 8.06502 12.2409C7.93949 12.3911 7.93949 12.5107 7.93752 12.5433V12.5443Z" fill="white"/>
<path d="M7.99707 12.3407C7.99707 12.3407 8.08603 12.1895 8.24319 12.1025C8.24319 12.1025 8.32819 12.1282 8.26197 12.2349C8.19574 12.3417 7.99806 12.3407 7.99806 12.3407H7.99707Z" fill="white"/>
<path d="M8.39493 12.8725C8.389 12.8814 8.45029 13.0019 8.46709 12.998C8.48389 12.995 8.54814 12.9011 8.54023 12.9011C8.53232 12.9011 8.40778 12.8517 8.39493 12.8725Z" fill="white"/>
<path d="M8.77101 12.4474C8.7463 12.4781 8.76804 12.5829 8.78188 12.5858C8.79572 12.5898 8.85897 12.4702 8.85206 12.4633C8.84415 12.4554 8.79374 12.4198 8.77101 12.4474Z" fill="white"/>
<path d="M8.25098 13.257C8.25098 13.257 8.59791 13.3637 8.92705 13.0316C9.22852 12.7272 9.10497 12.3872 9.09212 12.3546C9.09212 12.3546 9.31649 12.7549 8.92409 13.1216C8.58704 13.4369 8.25197 13.258 8.25197 13.258L8.25098 13.257Z" fill="#FFF7C4"/>
<g style="mix-blend-mode:multiply" opacity="0.5">
<path d="M8.13065 13.1937C7.94285 12.9555 7.78569 12.5364 8.11088 12.1993C8.43607 11.8623 8.84824 12.1104 8.99057 12.1756C8.99057 12.1756 8.49834 11.5035 7.93 11.9038C7.65225 12.0995 7.62359 12.4257 7.70761 12.653C7.83017 12.9831 8.12966 13.1947 8.12966 13.1947L8.13065 13.1937Z" fill="#E54136"/>
</g>
<path d="M22.9454 12.3436C22.723 12.8032 23.4238 13.7501 24.0594 13.0306C24.7641 12.2339 23.4258 11.3512 22.9454 12.3436Z" fill="url(#paint24_linear_327_2136)"/>
<path d="M23.1287 12.3407C22.9913 12.6165 23.0941 12.8962 23.3442 13.0672C23.6318 13.2649 23.9847 13.0316 24.1072 12.7894C24.2812 12.4445 23.9491 12.0867 23.7435 12.0283C23.5379 11.97 23.2266 12.144 23.1287 12.3407Z" fill="url(#paint25_linear_327_2136)"/>
<g style="mix-blend-mode:multiply" opacity="0.4">
<path d="M23.0807 12.5828C23.0708 12.6263 23.0807 12.8685 23.2646 12.994C23.4484 13.1195 23.5789 13.1413 23.5927 13.1205C23.6066 13.0998 23.6066 12.9327 23.5977 12.9238C23.5888 12.9149 23.4454 12.8447 23.3763 12.7499C23.3071 12.655 23.2833 12.6214 23.2636 12.6194C23.2438 12.6174 23.0876 12.5532 23.0807 12.5828Z" fill="#B82774"/>
</g>
<g style="mix-blend-mode:soft-light">
<path d="M23.3003 12.6085C23.2746 12.7202 23.5939 12.9278 23.6235 12.9238C23.7609 12.904 23.9279 12.5996 23.9309 12.5017C23.9329 12.4345 23.6759 12.2191 23.5929 12.2457C23.5108 12.2714 23.3211 12.5225 23.3003 12.6095V12.6085Z" fill="white"/>
</g>
<g style="mix-blend-mode:multiply" opacity="0.8">
<path d="M23.6237 12.9239C23.5852 12.9397 23.599 13.1126 23.6129 13.1146C23.7582 13.1314 23.9064 13.0514 24.0517 12.8626C24.1693 12.7094 24.1595 12.5028 24.109 12.4395C24.0903 12.4168 23.9321 12.4751 23.9311 12.5018C23.9272 12.6669 23.7493 12.8715 23.6237 12.9239Z" fill="#B82774"/>
</g>
<path opacity="0.75" d="M23.0694 12.5443C23.0674 12.57 23.2581 12.6323 23.273 12.6165C23.2957 12.5908 23.5833 12.2517 23.5843 12.231C23.5863 12.1974 23.5942 12.0333 23.5458 12.0303C23.53 12.0303 23.3214 12.0916 23.1969 12.2409C23.0713 12.3911 23.0713 12.5107 23.0694 12.5433V12.5443Z" fill="white"/>
<path d="M23.1289 12.3407C23.1289 12.3407 23.2179 12.1895 23.375 12.1025C23.375 12.1025 23.46 12.1282 23.3938 12.2349C23.3276 12.3417 23.1299 12.3407 23.1299 12.3407H23.1289Z" fill="white"/>
<path d="M23.5268 12.8725C23.5208 12.8814 23.5821 13.0019 23.5989 12.998C23.6157 12.995 23.68 12.9011 23.6721 12.9011C23.6642 12.9011 23.5396 12.8517 23.5268 12.8725Z" fill="white"/>
<path d="M23.9048 12.4474C23.8801 12.4781 23.9018 12.5829 23.9157 12.5858C23.9295 12.5898 23.9928 12.4702 23.9858 12.4633C23.9779 12.4554 23.9275 12.4198 23.9048 12.4474Z" fill="white"/>
<path d="M23.3838 13.257C23.3838 13.257 23.7307 13.3637 24.0599 13.0316C24.3613 12.7272 24.2378 12.3872 24.2249 12.3546C24.2249 12.3546 24.4493 12.7549 24.0569 13.1216C23.7199 13.4369 23.3848 13.258 23.3848 13.258L23.3838 13.257Z" fill="#FFF7C4"/>
<g style="mix-blend-mode:multiply" opacity="0.5">
<path d="M23.2644 13.1937C23.0766 12.9555 22.9195 12.5364 23.2447 12.1993C23.5698 11.8623 23.982 12.1104 24.1253 12.1756C24.1253 12.1756 23.6331 11.5035 23.0648 11.9038C22.787 12.0995 22.7584 12.4257 22.8424 12.653C22.9649 12.9831 23.2644 13.1947 23.2644 13.1947V13.1937Z" fill="#E54136"/>
</g>
<path d="M13.0913 23.236C12.9934 23.236 12.9124 23.2113 12.853 23.1629C12.4992 22.8782 12.7354 21.7089 13.0567 20.3231C13.1229 20.0355 13.1921 19.74 13.197 19.656C13.1397 19.567 12.8165 19.3001 12.5308 19.0629C11.5444 18.2455 10.7971 17.5872 10.8861 17.1632C10.9602 16.8083 11.7529 16.6719 13.3927 16.5167C13.7565 16.4822 14.1676 16.4436 14.2635 16.41C14.3149 16.3359 14.4434 16.0146 14.5571 15.73C15.0612 14.4717 15.5168 13.4309 15.9972 13.4309C16.0486 13.4309 16.102 13.4457 16.1553 13.4734L16.1692 13.4803C16.5932 13.7215 17.122 14.9234 17.5856 16.0304C17.6568 16.2005 17.7299 16.3754 17.7615 16.4387C17.8653 16.4713 18.2419 16.4999 18.578 16.5247C19.8263 16.6186 20.877 16.7283 21.0964 17.1256C21.1132 17.1543 21.1241 17.1908 21.1251 17.2294C21.1459 17.5239 20.6368 17.9697 19.7957 18.6675C19.3954 18.9997 18.8468 19.4553 18.8191 19.5878C18.8132 19.6787 18.8972 20.0573 18.9793 20.424C19.2698 21.7297 19.4853 22.8367 19.17 23.152C19.1166 23.2054 19.0395 23.233 18.9427 23.233C18.5177 23.233 17.6024 22.6973 16.6209 22.0993C16.355 21.9382 16.0812 21.7712 15.9903 21.7316C15.9043 21.7702 15.6532 21.9293 15.4101 22.0835C14.4612 22.6855 13.5696 23.2261 13.1031 23.233H13.0922L13.0913 23.236Z" fill="url(#paint26_linear_327_2136)"/>
<path d="M20.8533 17.178C20.8849 17.6327 18.6392 19.0916 18.6145 19.4484C18.5908 19.7973 19.4003 22.4156 18.9901 22.8258C18.656 23.1599 16.1741 21.4193 15.9912 21.4094H15.9893C15.8321 21.4094 13.8632 22.8584 13.1841 22.8693C13.1159 22.8703 13.0606 22.8574 13.022 22.8258C12.5851 22.4749 13.4312 19.7271 13.4006 19.4978C13.3709 19.2685 11.0343 17.7078 11.1549 17.1325C11.2547 16.6551 14.2131 16.6146 14.39 16.4772C14.5669 16.3388 15.3883 13.6147 15.9981 13.6147C16.0308 13.6147 16.0663 13.6256 16.1019 13.6464H16.1039C16.6436 13.9538 17.5164 16.3487 17.6192 16.496C17.7299 16.6531 20.537 16.584 20.8404 17.1335C20.8483 17.1473 20.8523 17.1622 20.8533 17.179V17.178Z" fill="url(#paint27_linear_327_2136)"/>
<g style="mix-blend-mode:multiply" opacity="0.2">
<path d="M15.9942 18.546L13.4006 19.4978C13.3709 19.2685 11.0343 17.7078 11.1549 17.1326L15.9942 18.546Z" fill="#DA0553"/>
</g>
<g style="mix-blend-mode:multiply" opacity="0.2">
<path d="M17.6191 16.495L15.9941 18.546L15.9981 13.6138L16.1019 13.6454H16.1039C16.6435 13.9528 17.5163 16.3477 17.6191 16.495Z" fill="#DA0553"/>
</g>
<g style="mix-blend-mode:multiply" opacity="0.2">
<path d="M20.8532 17.178C20.8848 17.6327 18.6391 19.0916 18.6144 19.4484L15.9941 18.546L20.8403 17.1326L20.8532 17.178Z" fill="#DA0553"/>
</g>
<g style="mix-blend-mode:multiply" opacity="0.2">
<path d="M18.9901 22.8257C18.656 23.1598 16.1741 21.4192 15.9912 21.4093V21.4113L15.9893 21.4093L15.9932 18.5469L18.9901 22.8267V22.8257Z" fill="#DA0553"/>
</g>
<g style="mix-blend-mode:multiply" opacity="0.2">
<path d="M15.9936 18.5459L15.9917 21.4084V21.4103L15.9897 21.4084C15.8325 21.4084 13.8636 22.8574 13.1846 22.8683L13.0225 22.8248L15.9946 18.5449L15.9936 18.5459Z" fill="#DA0553"/>
</g>
<g style="mix-blend-mode:soft-light">
<path d="M15.9936 18.5459L11.1543 17.1325C11.2541 16.6551 14.2125 16.6146 14.3894 16.4772L15.9936 18.5469V18.5459Z" fill="white"/>
</g>
<g style="mix-blend-mode:multiply" opacity="0.5">
<path d="M11.1534 17.1325C10.3409 17.3707 12.5846 21.7198 12.984 21.5073C13.3823 21.2957 15.6695 19.0253 15.9927 18.546C15.9927 18.546 11.6911 16.9744 11.1534 17.1325Z" fill="#D42F55"/>
</g>
<g style="mix-blend-mode:multiply" opacity="0.5">
<path d="M20.8412 17.1325C21.6537 17.3707 19.41 21.7198 19.0107 21.5073C18.6124 21.2957 16.3252 19.0253 16.002 18.546C16.002 18.546 20.3035 16.9744 20.8412 17.1325Z" fill="#D42F55"/>
</g>
<g style="mix-blend-mode:multiply" opacity="0.3">
<path d="M15.9967 13.6138C15.8979 13.6365 15.9908 21.4084 15.9908 21.4084C16.2735 21.5142 18.6931 23.0897 18.9896 22.8248C19.4621 22.4038 18.5557 19.7993 18.614 19.4474C18.6713 19.0955 20.9961 17.5437 20.8409 17.1315C20.6284 16.5671 17.7492 16.6215 17.6187 16.494C17.3805 16.2627 16.5235 13.4922 15.9967 13.6128V13.6138Z" fill="#DA0553"/>
</g>
<g style="mix-blend-mode:multiply" opacity="0.5">
<path d="M15.9937 18.5459C15.2504 19.5956 13.0215 22.5747 13.0215 22.8258C13.0215 23.1816 18.8769 23.2202 18.9905 22.8258C19.1052 22.4314 16.133 18.3492 15.9937 18.5459Z" fill="#D42F55"/>
</g>
<g style="mix-blend-mode:multiply" opacity="0.5">
<path d="M17.5132 18.0152C18.0192 18.6033 17.3945 19.6609 17.2176 19.9565C17.0407 20.252 16.2668 20.8085 16.0009 20.8233C15.736 20.8381 15.0698 20.4784 14.8434 19.9328C14.6171 19.3872 14.4441 18.4847 14.8434 18.2109C15.2428 17.9362 17.2255 17.6831 17.5122 18.0162L17.5132 18.0152Z" fill="#7E527C"/>
</g>
<path d="M17.2222 17.8234C17.8133 18.8178 17.1293 19.8734 16.2011 20.0385C15.273 20.2025 14.1976 19.3426 14.5515 18.1397C14.9053 16.9378 16.7033 16.9496 17.2222 17.8234Z" fill="url(#paint28_linear_327_2136)"/>
<path d="M16.2013 20.0384C16.9011 19.9138 17.4625 19.2822 17.4427 18.5528C17.3429 19.387 16.736 20.1145 15.5222 19.8278C15.374 19.7932 14.5516 19.4127 14.4844 18.5498C14.4488 19.5313 15.3829 20.1846 16.2023 20.0393L16.2013 20.0384Z" fill="url(#paint29_linear_327_2136)"/>
<path style="mix-blend-mode:color-dodge" opacity="0.5" d="M14.6016 17.9993C14.653 18.1229 15.2974 17.4943 15.2134 17.3628C14.9485 17.4933 14.7281 17.7028 14.6026 17.9993H14.6016Z" fill="url(#paint30_linear_327_2136)"/>
<path d="M14.8109 18.0932C14.4066 18.9284 15.6807 20.6522 16.8381 19.3435C18.1201 17.8935 15.6856 16.2873 14.8109 18.0932Z" fill="url(#paint31_linear_327_2136)"/>
<path d="M15.1449 18.0872C14.8948 18.5883 15.0816 19.0983 15.5373 19.4097C16.0611 19.7685 16.7036 19.3445 16.925 18.9046C17.2423 18.277 16.6384 17.6256 16.2638 17.5188C15.8891 17.4121 15.3238 17.7284 15.1459 18.0862L15.1449 18.0872Z" fill="url(#paint32_linear_327_2136)"/>
<g style="mix-blend-mode:multiply" opacity="0.4">
<path d="M15.0564 18.5281C15.0386 18.6072 15.0564 19.047 15.3915 19.2763C15.7266 19.5057 15.9628 19.5442 15.9875 19.5066C16.0132 19.4691 16.0122 19.1647 15.9964 19.1488C15.9806 19.133 15.7196 19.0055 15.5941 18.8325C15.4686 18.6586 15.4251 18.5983 15.3895 18.5953C15.3539 18.5924 15.0693 18.4747 15.0574 18.5291L15.0564 18.5281Z" fill="#B82774"/>
</g>
<g style="mix-blend-mode:soft-light">
<path d="M15.4578 18.5745C15.4104 18.7781 15.9926 19.1557 16.0449 19.1488C16.295 19.1132 16.5985 18.5597 16.6034 18.3798C16.6074 18.2582 16.1388 17.8668 15.9896 17.9132C15.8403 17.9607 15.4944 18.4163 15.4578 18.5745Z" fill="white"/>
</g>
<g style="mix-blend-mode:multiply" opacity="0.8">
<path d="M16.0462 19.1488C15.977 19.1775 16.0017 19.4928 16.0255 19.4957C16.2894 19.5274 16.5602 19.3801 16.8241 19.0361C17.0386 18.7574 17.0208 18.3818 16.9289 18.2661C16.8953 18.2236 16.6066 18.3304 16.6047 18.3798C16.5968 18.6803 16.2735 19.0529 16.0462 19.1488Z" fill="#B82774"/>
</g>
<path opacity="0.75" d="M15.0371 18.458C15.0342 18.5054 15.3811 18.6191 15.4068 18.5895C15.4493 18.542 15.9722 17.9262 15.9741 17.8877C15.9781 17.8264 15.9929 17.5279 15.904 17.523C15.8743 17.522 15.4967 17.6337 15.2684 17.9065C15.0401 18.1793 15.0401 18.3977 15.0371 18.457V18.458Z" fill="white"/>
<path d="M15.1445 18.0872C15.1445 18.0872 15.3066 17.8115 15.5913 17.6543C15.5913 17.6543 15.7455 17.7008 15.6249 17.8955C15.5043 18.0902 15.1445 18.0872 15.1445 18.0872Z" fill="white"/>
<path d="M15.8699 19.056C15.859 19.0728 15.9707 19.2912 16.0013 19.2843C16.032 19.2784 16.1496 19.1074 16.1348 19.1084C16.12 19.1093 15.8936 19.0184 15.8699 19.056Z" fill="white"/>
<path d="M16.5563 18.2799C16.5118 18.3353 16.5513 18.5261 16.576 18.532C16.6017 18.5379 16.7174 18.3214 16.7026 18.3086C16.6887 18.2948 16.5968 18.2295 16.5553 18.2799H16.5563Z" fill="white"/>
<path d="M15.6084 19.7537C15.6084 19.7537 16.24 19.9474 16.838 19.3435C17.3875 18.789 17.1622 18.1722 17.1375 18.111C17.1375 18.111 17.5457 18.8404 16.8311 19.5066C16.2173 20.0799 15.6084 19.7537 15.6084 19.7537Z" fill="#FFD2FF"/>
<g style="mix-blend-mode:multiply" opacity="0.5">
<path d="M15.3905 19.6401C15.0495 19.2072 14.6165 18.3176 15.2086 17.7048C15.8007 17.092 16.6962 17.6702 16.9561 17.7888C16.9561 17.7888 16.3996 16.8132 15.255 17.3519C14.8172 17.5575 14.7035 17.8669 14.7411 18.5647C14.7747 19.2052 15.3914 19.6401 15.3914 19.6401H15.3905Z" fill="#D42F55"/>
</g>
<path style="mix-blend-mode:color-dodge" opacity="0.5" d="M18.0953 18.546C18.0953 19.7064 17.1544 20.6473 15.994 20.6473C14.8336 20.6473 13.8926 19.7064 13.8926 18.546C13.8926 17.3856 14.8336 16.4446 15.994 16.4446C17.1544 16.4446 18.0953 17.3856 18.0953 18.546Z" fill="url(#paint33_radial_327_2136)"/>
<path d="M13.0346 23.236C12.9368 23.236 12.8557 23.2113 12.7964 23.1629C12.4426 22.8782 12.6788 21.7089 13 20.3231C13.0662 20.0355 13.1354 19.74 13.1404 19.656C13.083 19.567 12.7598 19.3001 12.4742 19.0629C11.4877 18.2455 10.7405 17.5872 10.8295 17.1632C10.9036 16.8083 11.6963 16.6719 13.3361 16.5167C13.6998 16.4822 14.111 16.4436 14.2069 16.41C14.2583 16.3359 14.3868 16.0146 14.5004 15.73C15.0045 14.4717 15.4602 13.4309 15.9406 13.4309C15.992 13.4309 16.0453 13.4457 16.0987 13.4734L16.1125 13.4803C16.5366 13.7215 17.0654 14.9234 17.5289 16.0304C17.6001 16.2005 17.6733 16.3754 17.7049 16.4387C17.8087 16.4713 18.1853 16.4999 18.5213 16.5247C19.7697 16.6186 20.8204 16.7283 21.0398 17.1256C21.0566 17.1543 21.0675 17.1908 21.0685 17.2294C21.0892 17.5239 20.5802 17.9697 19.739 18.6675C19.3387 18.9997 18.7902 19.4553 18.7625 19.5878C18.7566 19.6787 18.8406 20.0573 18.9226 20.424C19.2132 21.7297 19.4287 22.8367 19.1134 23.152C19.06 23.2054 18.9829 23.233 18.886 23.233C18.461 23.233 17.5457 22.6973 16.5643 22.0993C16.2984 21.9382 16.0246 21.7712 15.9336 21.7316C15.8476 21.7702 15.5966 21.9293 15.3534 22.0835C14.4046 22.6855 13.513 23.2261 13.0465 23.233H13.0356L13.0346 23.236Z" fill="url(#paint34_linear_327_2136)"/>
<path d="M20.7976 17.178C20.8292 17.6327 18.5835 19.0916 18.5588 19.4484C18.5351 19.7973 19.3446 22.4156 18.9344 22.8258C18.6003 23.1599 16.1184 21.4193 15.9356 21.4094H15.9336C15.7764 21.4094 13.8075 22.8584 13.1285 22.8693C13.0603 22.8703 13.0049 22.8574 12.9664 22.8258C12.5295 22.4749 13.3756 19.7271 13.3449 19.4978C13.3153 19.2685 10.9787 17.7078 11.0992 17.1325C11.1991 16.6551 14.1574 16.6146 14.3343 16.4772C14.5113 16.3388 15.3326 13.6147 15.9425 13.6147C15.9761 13.6147 16.0107 13.6256 16.0463 13.6464H16.0482C16.5879 13.9538 17.4607 16.3487 17.5635 16.496C17.6742 16.6531 20.4813 16.584 20.7847 17.1335C20.7926 17.1473 20.7966 17.1622 20.7976 17.179V17.178Z" fill="url(#paint35_linear_327_2136)"/>
<g style="mix-blend-mode:multiply" opacity="0.2">
<path d="M15.9385 18.546L13.3449 19.4978C13.3153 19.2685 10.9787 17.7078 11.0992 17.1326L15.9385 18.546Z" fill="#DA0553"/>
</g>
<g style="mix-blend-mode:multiply" opacity="0.2">
<path d="M17.5634 16.495L15.9385 18.546L15.9424 13.6138L16.0462 13.6454H16.0482C16.5879 13.9528 17.4606 16.3477 17.5634 16.495Z" fill="#DA0553"/>
</g>
<g style="mix-blend-mode:multiply" opacity="0.2">
<path d="M20.7975 17.178C20.8292 17.6327 18.5835 19.0916 18.5588 19.4484L15.9385 18.546L20.7847 17.1326L20.7975 17.178Z" fill="#DA0553"/>
</g>
<g style="mix-blend-mode:multiply" opacity="0.2">
<path d="M18.9335 22.8259C18.5994 23.1599 16.1175 21.4193 15.9346 21.4095V21.4114L15.9326 21.4095L15.9366 18.547L18.9335 22.8268V22.8259Z" fill="#DA0553"/>
</g>
<g style="mix-blend-mode:multiply" opacity="0.2">
<path d="M15.937 18.5459L15.935 21.4084V21.4103L15.933 21.4084C15.7759 21.4084 13.807 22.8574 13.1279 22.8683L12.9658 22.8248L15.938 18.5449L15.937 18.5459Z" fill="#DA0553"/>
</g>
<g style="mix-blend-mode:soft-light">
<path d="M15.9379 18.5459L11.0986 17.1325C11.1985 16.6551 14.1568 16.6146 14.3337 16.4772L15.9379 18.5469V18.5459Z" fill="white"/>
</g>
<g style="mix-blend-mode:multiply" opacity="0.5">
<path d="M11.0987 17.1325C10.2862 17.3707 12.53 21.7198 12.9293 21.5073C13.3276 21.2957 15.6148 19.0253 15.938 18.546C15.938 18.546 11.6364 16.9744 11.0987 17.1325Z" fill="#D42F55"/>
</g>
<g style="mix-blend-mode:multiply" opacity="0.5">
<path d="M20.7856 17.1325C21.5981 17.3707 19.3544 21.7198 18.955 21.5073C18.5567 21.2957 16.2695 19.0253 15.9463 18.546C15.9463 18.546 20.2479 16.9744 20.7856 17.1325Z" fill="#D42F55"/>
</g>
<g style="mix-blend-mode:multiply" opacity="0.3">
<path d="M15.941 13.6138C15.8422 13.6365 15.9351 21.4084 15.9351 21.4084C16.2178 21.5142 18.6374 23.0897 18.934 22.8248C19.4064 22.4038 18.5 19.7993 18.5584 19.4474C18.6157 19.0955 20.9404 17.5437 20.7853 17.1315C20.5728 16.5671 17.6935 16.6215 17.563 16.494C17.3248 16.2627 16.4679 13.4922 15.941 13.6128V13.6138Z" fill="#DA0553"/>
</g>
<g style="mix-blend-mode:multiply" opacity="0.5">
<path d="M15.938 18.5459C15.1947 19.5956 12.9658 22.5747 12.9658 22.8258C12.9658 23.1816 18.8212 23.2202 18.9349 22.8258C19.0495 22.4314 16.0774 18.3492 15.938 18.5459Z" fill="#D42F55"/>
</g>
<g style="mix-blend-mode:multiply" opacity="0.5">
<path d="M17.4565 18.0152C17.9626 18.6033 17.3379 19.6609 17.161 19.9565C16.984 20.252 16.2101 20.8085 15.9452 20.8233C15.6803 20.8381 15.0141 20.4784 14.7878 19.9328C14.5614 19.3872 14.3885 18.4847 14.7878 18.2109C15.1871 17.9362 17.1699 17.6831 17.4565 18.0162V18.0152Z" fill="#7E527C"/>
</g>
<path d="M17.1655 17.8233C17.7566 18.8176 17.0726 19.8733 16.1445 20.0383C15.2164 20.2024 14.141 19.3425 14.4948 18.1396C14.8487 16.9377 16.6466 16.9495 17.1655 17.8233Z" fill="url(#paint36_linear_327_2136)"/>
<path d="M16.1446 20.0384C16.8444 19.9138 17.4058 19.2822 17.3861 18.5528C17.2862 19.387 16.6794 20.1145 15.4656 19.8278C15.3173 19.7932 14.495 19.4127 14.4277 18.5498C14.3922 19.5313 15.3262 20.1846 16.1456 20.0393L16.1446 20.0384Z" fill="url(#paint37_linear_327_2136)"/>
<path style="mix-blend-mode:color-dodge" opacity="0.5" d="M14.5449 17.9993C14.5963 18.1229 15.2408 17.4943 15.1568 17.3628C14.8919 17.4933 14.6714 17.7028 14.5459 17.9993H14.5449Z" fill="url(#paint38_linear_327_2136)"/>
<path d="M14.7543 18.0932C14.35 18.9284 15.6241 20.6522 16.7815 19.3435C18.0635 17.8935 15.629 16.2873 14.7543 18.0932Z" fill="url(#paint39_linear_327_2136)"/>
<path d="M15.0882 18.0873C14.8382 18.5884 15.025 19.0985 15.4806 19.4098C16.0045 19.7686 16.646 19.3446 16.8684 18.9047C17.1856 18.2771 16.5817 17.6257 16.2071 17.519C15.8325 17.4122 15.2671 17.7285 15.0892 18.0863L15.0882 18.0873Z" fill="url(#paint40_linear_327_2136)"/>
<g style="mix-blend-mode:multiply" opacity="0.4">
<path d="M14.9998 18.5281C14.982 18.6072 14.9998 19.047 15.3348 19.2763C15.6699 19.5057 15.9062 19.5442 15.9309 19.5066C15.9566 19.4691 15.9556 19.1647 15.9398 19.1488C15.9239 19.133 15.663 19.0055 15.5375 18.8325C15.4119 18.6586 15.3685 18.5983 15.3329 18.5953C15.2973 18.5924 15.0126 18.4747 15.0008 18.5291L14.9998 18.5281Z" fill="#B82774"/>
</g>
<g style="mix-blend-mode:soft-light">
<path d="M15.4012 18.5746C15.3537 18.7782 15.9359 19.1558 15.9883 19.1489C16.2384 19.1133 16.5418 18.5598 16.5468 18.3799C16.5507 18.2583 16.0822 17.8669 15.933 17.9134C15.7837 17.9608 15.4378 18.4165 15.4012 18.5746Z" fill="white"/>
</g>
<g style="mix-blend-mode:multiply" opacity="0.8">
<path d="M15.9896 19.1488C15.9204 19.1775 15.9451 19.4928 15.9688 19.4957C16.2327 19.5274 16.5035 19.3801 16.7675 19.0361C16.9819 18.7574 16.9642 18.3818 16.8722 18.2661C16.8386 18.2236 16.55 18.3304 16.548 18.3798C16.5401 18.6803 16.2169 19.0529 15.9896 19.1488Z" fill="#B82774"/>
</g>
<path opacity="0.75" d="M14.9805 18.458C14.9775 18.5054 15.3245 18.6191 15.3502 18.5895C15.3927 18.542 15.9155 17.9262 15.9175 17.8877C15.9215 17.8264 15.9363 17.5279 15.8473 17.523C15.8177 17.522 15.4401 17.6337 15.2118 17.9065C14.9835 18.1793 14.9835 18.3977 14.9805 18.457V18.458Z" fill="white"/>
<path d="M15.0889 18.0872C15.0889 18.0872 15.251 17.8115 15.5356 17.6543C15.5356 17.6543 15.6898 17.7008 15.5692 17.8955C15.4487 18.0902 15.0889 18.0872 15.0889 18.0872Z" fill="white"/>
<path d="M15.8132 19.056C15.8024 19.0728 15.9141 19.2912 15.9447 19.2843C15.9753 19.2784 16.093 19.1074 16.0781 19.1084C16.0633 19.1093 15.837 19.0184 15.8132 19.056Z" fill="white"/>
<path d="M16.4996 18.2801C16.4552 18.3354 16.4947 18.5262 16.5194 18.5321C16.5451 18.538 16.6607 18.3216 16.6459 18.3087C16.6321 18.2949 16.5402 18.2296 16.4986 18.2801H16.4996Z" fill="white"/>
<path d="M15.5518 19.7538C15.5518 19.7538 16.1834 19.9476 16.7813 19.3436C17.3309 18.7891 17.1055 18.1724 17.0808 18.1111C17.0808 18.1111 17.4891 18.8405 16.7744 19.5067C16.1606 20.08 15.5518 19.7538 15.5518 19.7538Z" fill="#FFD2FF"/>
<g style="mix-blend-mode:multiply" opacity="0.5">
<path d="M15.3338 19.6401C14.9928 19.2072 14.5599 18.3176 15.152 17.7048C15.744 17.092 16.6395 17.6702 16.8995 17.7888C16.8995 17.7888 16.343 16.8132 15.1984 17.3519C14.7605 17.5575 14.6469 17.8669 14.6844 18.5647C14.718 19.2052 15.3348 19.6401 15.3348 19.6401H15.3338Z" fill="#D42F55"/>
</g>
<path style="mix-blend-mode:color-dodge" opacity="0.5" d="M18.0397 18.546C18.0397 19.7064 17.0987 20.6473 15.9383 20.6473C14.7779 20.6473 13.8369 19.7064 13.8369 18.546C13.8369 17.3856 14.7779 16.4446 15.9383 16.4446C17.0987 16.4446 18.0397 17.3856 18.0397 18.546Z" fill="url(#paint41_radial_327_2136)"/>
<g style="mix-blend-mode:multiply" opacity="0.5">
<path d="M7.73145 12.5285C8.34921 14.7969 9.22692 13.0118 9.04703 12.3733L7.73145 12.5285Z" fill="#DB1D00"/>
</g>
<path d="M9.04704 12.3733C9.07472 12.8131 8.75249 13.0315 8.38875 13.0315C8.02502 13.0315 7.73047 12.737 7.73047 12.3733C7.73047 12.0095 7.95583 11.715 8.38875 11.715C8.75249 11.715 9.02431 12.0105 9.04704 12.3733Z" fill="#C91A00"/>
<path d="M7.81076 12.3733C8.04996 12.5097 8.96622 12.3792 8.96029 12.227C8.95436 12.0748 8.59161 11.6962 8.2081 11.7743C7.86018 11.8454 7.65953 12.2863 7.81076 12.3723V12.3733Z" fill="white"/>
<g style="mix-blend-mode:soft-light">
<path d="M7.93533 12.8002C8.33169 13.0869 8.81403 13.0108 9.01073 12.5867C9.16393 12.2566 7.61508 12.568 7.93533 12.8002Z" fill="white"/>
</g>
<g style="mix-blend-mode:multiply" opacity="0.5">
<path d="M22.8467 12.5019C23.4644 14.7703 24.3422 12.9852 24.1623 12.3467L22.8467 12.5019Z" fill="#DB1D00"/>
</g>
<path d="M24.1623 12.3466C24.1899 12.7865 23.8677 13.0049 23.504 13.0049C23.1403 13.0049 22.8457 12.7104 22.8457 12.3466C22.8457 11.9829 23.0711 11.6884 23.504 11.6884C23.8677 11.6884 24.1395 11.9839 24.1623 12.3466Z" fill="#C91A00"/>
<path d="M22.926 12.3467C23.1652 12.4831 24.0815 12.3526 24.0755 12.2004C24.0696 12.0481 23.7068 11.6696 23.3233 11.7477C22.9754 11.8188 22.7748 12.2597 22.926 12.3457V12.3467Z" fill="white"/>
<g style="mix-blend-mode:soft-light">
<path d="M23.0515 12.7726C23.4479 13.0593 23.9302 12.9832 24.1269 12.5591C24.2801 12.229 22.7313 12.5404 23.0515 12.7726Z" fill="white"/>
</g>
<g style="mix-blend-mode:multiply" opacity="0.5">
<path d="M15.1797 8.91183C15.7974 11.1803 16.6752 9.39517 16.4953 8.75665L15.1797 8.91183Z" fill="#6E5066"/>
</g>
<path d="M16.4963 8.7557C16.5239 9.19554 16.2017 9.41398 15.838 9.41398C15.4742 9.41398 15.1797 9.11943 15.1797 8.7557C15.1797 8.39196 15.405 8.09741 15.838 8.09741C16.2017 8.09741 16.4735 8.39295 16.4963 8.7557Z" fill="#63495F"/>
<path d="M15.26 8.75571C15.4992 8.8931 16.4154 8.76164 16.4095 8.60942C16.4036 8.45721 16.0408 8.07864 15.6573 8.15673C15.3094 8.22789 15.1088 8.66873 15.26 8.75472V8.75571Z" fill="white"/>
<g style="mix-blend-mode:soft-light">
<path d="M15.3846 9.18267C15.7809 9.46931 16.2633 9.39321 16.4599 8.96918C16.6132 8.63905 15.0643 8.9504 15.3846 9.18267Z" fill="white"/>
</g>
<g style="mix-blend-mode:multiply" opacity="0.5">
<path d="M15.1797 28.8107C15.7974 31.0791 16.6752 29.294 16.4953 28.6555L15.1797 28.8107Z" fill="#DB1D00"/>
</g>
<path d="M16.4963 28.6555C16.5239 29.0953 16.2017 29.3138 15.838 29.3138C15.4742 29.3138 15.1797 29.0192 15.1797 28.6555C15.1797 28.2917 15.405 27.9972 15.838 27.9972C16.2017 27.9972 16.4735 28.2927 16.4963 28.6555Z" fill="#C91A00"/>
<path d="M15.26 28.6555C15.4992 28.7929 16.4154 28.6614 16.4095 28.5092C16.4036 28.357 16.0408 27.9784 15.6573 28.0565C15.3094 28.1277 15.1088 28.5685 15.26 28.6545V28.6555Z" fill="white"/>
<g style="mix-blend-mode:soft-light">
<path d="M15.3846 29.0824C15.7809 29.369 16.2633 29.2929 16.4599 28.8689C16.6132 28.5388 15.0643 28.8501 15.3846 29.0824Z" fill="white"/>
</g>
<g style="mix-blend-mode:multiply" opacity="0.3">
<path d="M12.4971 8.91779C13.3847 10.4666 16.5802 11.374 18.1113 11.4076C19.6572 11.4412 19.3428 8.91779 19.3428 8.91779H12.4981H12.4971Z" fill="#DA0553"/>
</g>
<path d="M12.9973 4.27124C12.9973 4.27124 12.7897 4.77929 12.8717 4.96807C12.9538 5.15686 13.0823 5.31699 12.9073 5.66392C12.9073 5.66392 13.191 5.70148 13.0823 4.81289C13.0407 4.47485 12.9973 4.27124 12.9973 4.27124Z" fill="url(#paint42_linear_327_2136)"/>
<path d="M16.1009 6.05433C16.0446 6.06916 15.9882 6.08398 15.9319 6.0998C15.0334 6.34295 14.1409 6.60389 13.2533 6.88559C12.8777 6.59598 12.4843 6.34097 12.079 6.10672C11.5285 5.78944 10.9552 5.50873 10.374 5.229C11.5957 5.24185 12.8184 5.67873 12.9073 5.66193C13.1228 5.62338 13.1465 5.06493 12.9745 4.36019C12.8688 3.92726 14.5778 4.88207 15.5741 5.61646C15.7085 5.71629 15.8301 5.81118 15.9319 5.89816C15.9971 5.95351 16.0535 6.00491 16.1009 6.05334V6.05433Z" fill="url(#paint43_linear_327_2136)"/>
<path d="M18.8667 4.27119C18.8667 4.27119 19.0742 4.67348 18.9922 4.86128C18.9102 5.05006 18.7817 5.31595 18.9566 5.66288C18.9566 5.66288 18.6729 5.70044 18.7817 4.81186C18.8232 4.47382 18.8667 4.2702 18.8667 4.2702V4.27119Z" fill="url(#paint44_linear_327_2136)"/>
<path d="M21.4639 5.23C20.9914 5.48896 20.5298 5.71926 20.0811 5.96044C19.5721 6.23423 19.0808 6.52186 18.6103 6.88658C17.7227 6.60488 16.8302 6.34295 15.9317 6.10079C15.8754 6.08498 15.819 6.07015 15.7627 6.05532C15.8101 6.00788 15.8675 5.95549 15.9317 5.90014C16.0385 5.80822 16.167 5.70938 16.3093 5.60461C17.3076 4.87219 18.9938 3.93221 18.8891 4.36217C18.7171 5.06592 18.7408 5.62437 18.9563 5.66391C19.0442 5.67973 20.2412 5.24383 21.4639 5.23099V5.23Z" fill="url(#paint45_linear_327_2136)"/>
<g style="mix-blend-mode:multiply" opacity="0.8">
<path d="M20.0813 5.96046C19.5723 6.23425 19.081 6.52188 18.6106 6.8866C17.723 6.6049 16.8304 6.34297 15.932 6.10081C15.0335 6.34396 14.1409 6.6049 13.2533 6.8866C12.8777 6.597 12.4844 6.34199 12.0791 6.10773C12.2106 6.0336 12.2975 5.98517 12.2975 5.98517C13.3947 5.75783 14.5274 5.65306 15.5732 5.61748C15.8232 5.60858 16.0693 5.60463 16.3085 5.60364C18.3753 5.59375 19.9479 5.82702 19.9479 5.82702L20.0803 5.95947L20.0813 5.96046Z" fill="#D42F55"/>
</g>
<path d="M19.7541 7.35307C19.5831 7.58436 19.4655 7.7514 19.4655 7.7514C19.4655 7.7514 19.3992 8.82384 19.3429 8.91774C19.2856 9.01163 18.9228 9.23403 18.7666 9.31211C15.6106 10.8896 13.0734 9.31211 13.0734 9.31211C13.0734 9.31211 12.5544 9.01065 12.4971 8.91774C12.4398 8.82384 12.3746 7.7514 12.3746 7.7514C12.3746 7.7514 12.3746 7.7514 12.3746 7.75041C12.3607 7.73065 12.1749 7.45883 11.9169 7.13364C11.4197 6.48623 10.376 5.22995 10.376 5.22995C10.4037 5.14198 12.9142 6.46646 13.1327 6.39529C13.4035 6.30733 13.6407 4.58353 13.962 3.77006C14.3425 2.80635 14.9415 1.3435 15.9032 0.806785C15.9032 0.803819 15.9032 0.802831 15.9032 0.799866C15.9081 0.799866 15.9151 0.799866 15.921 0.801843C15.9279 0.800854 15.9338 0.799866 15.9388 0.799866C15.9388 0.802831 15.9388 0.803819 15.9388 0.806785C17.8039 1.92468 18.138 6.01278 18.7123 6.31227C19.0325 6.47931 21.465 5.22995 21.465 5.22995C21.4887 5.27838 20.2908 6.62856 19.7541 7.35307Z" fill="url(#paint46_linear_327_2136)"/>
<g style="mix-blend-mode:multiply" opacity="0.5">
<path d="M19.7532 7.3531C19.5782 7.58439 19.4646 7.75143 19.4646 7.75143C17.0113 9.06009 14.8912 8.78136 12.3737 7.75143C12.3737 7.75143 12.3737 7.75143 12.3737 7.75044C12.3598 7.73067 12.174 7.45886 11.916 7.13367C12.7967 7.91847 14.5679 8.56885 16.0268 8.56885C17.2505 8.56885 18.5602 7.93132 19.7532 7.3531Z" fill="#D42F55"/>
</g>
<g style="mix-blend-mode:multiply" opacity="0.5">
<path d="M13.0723 9.31213C13.0723 9.31213 14.1269 10.0139 15.8339 10.0129C17.5607 10.0129 18.7655 9.31213 18.7655 9.31213C18.7655 9.31213 17.3847 9.83204 15.7627 9.83204C14.2307 9.83204 13.0723 9.31213 13.0723 9.31213Z" fill="#D42F55"/>
</g>
<path d="M18.9821 5.657C18.9792 5.65107 20.2967 5.2053 21.464 5.23001C21.5906 5.23297 19.1937 6.63257 18.7074 6.39535C18.3762 6.23424 18.1104 4.86133 18.1104 4.86133C18.1123 4.86133 18.6421 6.06324 18.9742 6.11464C19.338 6.16999 20.6437 5.50281 20.6437 5.50281C20.5735 5.44944 18.9831 5.65799 18.9831 5.65799L18.9821 5.657Z" fill="url(#paint47_linear_327_2136)"/>
<path d="M12.7932 5.64605C12.7961 5.64111 11.1208 5.14493 10.3548 5.20423C10.252 5.21214 12.6637 6.6404 13.1302 6.39626C13.4702 6.21835 13.6729 4.75055 13.6729 4.75055C13.6709 4.75055 13.1984 6.05131 12.8643 6.11456C12.4957 6.18474 11.2078 5.45727 11.2078 5.45727C11.2206 5.4207 12.7932 5.64605 12.7932 5.64605Z" fill="url(#paint48_linear_327_2136)"/>
<path d="M17.3495 2.64425C17.3495 2.64425 16.5657 0.799866 15.9015 0.799866C15.2808 0.799866 14.4238 2.68082 14.4238 2.68082C14.4238 2.68082 15.3371 1.46211 15.9193 1.42158C16.4442 1.38501 17.3495 2.64425 17.3495 2.64425Z" fill="url(#paint49_linear_327_2136)"/>
<g style="mix-blend-mode:multiply" opacity="0.2">
<path d="M15.949 7.94021C15.5725 7.99556 13.6263 6.51392 13.6737 5.76174C13.7429 4.66855 14.7165 2.2746 15.8621 1.97709C16.8475 1.72109 17.8844 4.38092 18.0049 5.54626C18.1285 6.73632 16.4759 7.86212 15.949 7.94021Z" fill="#D42F55"/>
</g>
<g style="mix-blend-mode:soft-light">
<path d="M13.1967 9.22023C12.8716 8.68748 13.0119 8.21106 13.1019 8.15867C13.2373 8.0796 14.9225 8.60643 15.0747 8.74876C15.2042 8.86935 15.8783 9.72037 15.4582 9.71642C14.9897 9.71247 13.3262 9.43274 13.1967 9.22023Z" fill="white"/>
</g>
<g style="mix-blend-mode:multiply" opacity="0.2">
<path d="M11.8633 6.19269C11.4679 6.0385 10.7711 5.58185 10.7711 5.58185C10.7434 5.61545 11.7733 7.03383 12.3466 7.41339C12.5403 7.54089 12.0728 6.27473 11.8633 6.19269Z" fill="#DA0553"/>
</g>
<g style="mix-blend-mode:multiply" opacity="0.4">
<path d="M17.2651 8.70425C16.9488 9.03833 17.1 9.73121 17.1633 9.71639C17.6555 9.59877 18.4166 9.41097 18.7665 9.07095C19.0097 8.83472 18.9494 8.13195 18.8683 8.15568C18.3741 8.299 17.5765 8.37708 17.2661 8.70524L17.2651 8.70425Z" fill="#DA0553"/>
</g>
<g style="mix-blend-mode:multiply" opacity="0.4">
<path d="M17.4823 8.19024C17.5712 8.30885 18.8641 7.76325 19.2278 7.44102C19.382 7.30462 19.6578 6.55046 19.5164 6.54552C19.3751 6.54057 18.2048 6.47732 18.0249 6.70465C17.7046 7.10793 17.42 8.10721 17.4823 8.19024Z" fill="#DA0553"/>
</g>
<g style="mix-blend-mode:soft-light">
<path d="M19.3779 7.47069C19.4096 7.49145 21.0484 5.78643 21.0484 5.72416C21.0484 5.60654 19.9512 6.16598 19.8366 6.35971C19.5183 6.89444 19.3779 7.47069 19.3779 7.47069Z" fill="white"/>
</g>
<g style="mix-blend-mode:soft-light">
<path d="M19.3808 7.91156C19.2118 7.98471 19.1624 7.9254 19.1268 8.0539C19.0912 8.18239 18.9024 9.2311 19.2276 8.91777C19.3018 8.84661 19.4836 7.86709 19.3808 7.91156Z" fill="white"/>
</g>
<g style="mix-blend-mode:multiply" opacity="0.2">
<path d="M12.4028 7.91847C12.3741 7.93329 12.4305 8.74874 12.5669 8.9138C12.7042 9.07887 13.1115 9.29336 13.0798 9.19451C12.9514 8.80508 12.4028 7.91748 12.4028 7.91748V7.91847Z" fill="#DA0553"/>
</g>
<g style="mix-blend-mode:soft-light">
<path d="M12.5213 6.71359C12.383 6.87569 12.4067 7.28391 12.7961 7.48159C13.1855 7.67927 14.938 8.29506 14.8886 8.0351C14.8392 7.77515 13.9931 6.60882 13.7895 6.53765C13.5849 6.46649 12.6617 6.54853 12.5213 6.71359Z" fill="white"/>
</g>
<path d="M13.0822 8.39387C13.5052 9.50288 14.9375 8.99285 14.89 8.85052C14.8436 8.70819 12.8934 7.89966 13.0822 8.39387Z" fill="white"/>
<path d="M15.6438 1.20316C14.8688 1.36625 14.7018 2.23111 14.7898 2.24198C14.8777 2.25286 16.0441 1.11815 15.6438 1.20316Z" fill="white"/>
<path d="M11.1341 5.54727C10.623 5.52256 11.9673 6.16108 12.0671 6.14922C12.3459 6.11462 11.6065 5.57099 11.1341 5.54727Z" fill="white"/>
<path d="M20.9277 5.56999C20.7241 5.49388 20.3771 5.61052 20.1557 5.8082C20.0312 5.91989 19.8572 6.13141 19.9116 6.1067C19.966 6.08298 21.0414 5.61151 20.9277 5.569V5.56999Z" fill="white"/>
</g>
</g>
<defs>
<linearGradient id="paint0_linear_327_2136" x1="5.07126" y1="7.7287" x2="5.07126" y2="20.755" gradientUnits="userSpaceOnUse">
<stop stop-color="#FFEA34"/>
<stop offset="0.76" stop-color="#FF8100"/>
<stop offset="1" stop-color="#FFA400"/>
</linearGradient>
<linearGradient id="paint1_linear_327_2136" x1="26.9319" y1="0.799896" x2="26.9319" y2="0.799896" gradientUnits="userSpaceOnUse">
<stop stop-color="#FFEA34"/>
<stop offset="0.76" stop-color="#FF8100"/>
<stop offset="1" stop-color="#FFA400"/>
</linearGradient>
<linearGradient id="paint2_linear_327_2136" x1="16.0023" y1="31.7818" x2="16.0023" y2="12.905" gradientUnits="userSpaceOnUse">
<stop stop-color="#FF5900"/>
<stop offset="0.63" stop-color="#FE6800"/>
<stop offset="0.91" stop-color="#FA9300"/>
<stop offset="1" stop-color="#F63F00"/>
</linearGradient>
<linearGradient id="paint3_linear_327_2136" x1="16.0269" y1="27.8944" x2="16.0269" y2="9.49994" gradientUnits="userSpaceOnUse">
<stop stop-color="#FFBA00"/>
<stop offset="0.21" stop-color="#FE6800"/>
<stop offset="1" stop-color="#D41B00"/>
</linearGradient>
<linearGradient id="paint4_linear_327_2136" x1="9.29395" y1="18.8602" x2="22.7601" y2="18.8602" gradientUnits="userSpaceOnUse">
<stop stop-color="#F23113"/>
<stop offset="1" stop-color="#AD0C1F"/>
</linearGradient>
<linearGradient id="paint5_linear_327_2136" x1="19.7863" y1="14.1445" x2="19.7863" y2="9.63635" gradientUnits="userSpaceOnUse">
<stop stop-color="#662D87"/>
<stop offset="1" stop-color="#D01C5C"/>
</linearGradient>
<linearGradient id="paint6_linear_327_2136" x1="16.0234" y1="20.8143" x2="23.6896" y2="20.8143" gradientUnits="userSpaceOnUse">
<stop stop-color="#FFAB00"/>
<stop offset="1" stop-color="#FFBA00"/>
</linearGradient>
<linearGradient id="paint7_linear_327_2136" x1="16.0284" y1="29.8732" x2="16.0284" y2="7.71387" gradientUnits="userSpaceOnUse">
<stop stop-color="#FFEA34"/>
<stop offset="0.63" stop-color="#FF8100"/>
<stop offset="0.7" stop-color="#FFA400"/>
<stop offset="1" stop-color="#FFBA00"/>
</linearGradient>
<linearGradient id="paint8_linear_327_2136" x1="23.3175" y1="25.5717" x2="23.3175" y2="26.8912" gradientUnits="userSpaceOnUse">
<stop stop-color="#FF5900"/>
<stop offset="1" stop-color="#F63F00"/>
</linearGradient>
<linearGradient id="paint9_linear_327_2136" x1="23.2602" y1="23.4089" x2="23.2594" y2="26.0105" gradientUnits="userSpaceOnUse">
<stop stop-color="#FFEA34"/>
<stop offset="0.76" stop-color="#FF8100"/>
<stop offset="1" stop-color="#FFA400"/>
</linearGradient>
<linearGradient id="paint10_linear_327_2136" x1="8.67298" y1="0.799938" x2="8.67298" y2="0.799938" gradientUnits="userSpaceOnUse">
<stop stop-color="#FF5900"/>
<stop offset="1" stop-color="#F63F00"/>
</linearGradient>
<linearGradient id="paint11_linear_327_2136" x1="8.72173" y1="23.414" x2="8.72185" y2="26.0162" gradientUnits="userSpaceOnUse">
<stop stop-color="#FFEA34"/>
<stop offset="0.76" stop-color="#FF8100"/>
<stop offset="1" stop-color="#FFA400"/>
</linearGradient>
<linearGradient id="paint12_linear_327_2136" x1="25.7059" y1="17.0019" x2="26.909" y2="14.1356" gradientUnits="userSpaceOnUse">
<stop stop-color="#DA2700"/>
<stop offset="1" stop-color="#D41B00"/>
</linearGradient>
<linearGradient id="paint13_linear_327_2136" x1="25.9187" y1="13.0704" x2="25.9186" y2="15.7674" gradientUnits="userSpaceOnUse">
<stop stop-color="#FFEA34"/>
<stop offset="0.76" stop-color="#FF8100"/>
<stop offset="1" stop-color="#FFA400"/>
</linearGradient>
<linearGradient id="paint14_linear_327_2136" x1="6.25938" y1="16.8712" x2="5.11709" y2="14.1498" gradientUnits="userSpaceOnUse">
<stop stop-color="#DA2700"/>
<stop offset="1" stop-color="#D41B00"/>
</linearGradient>
<linearGradient id="paint15_linear_327_2136" x1="6.10738" y1="13.0837" x2="6.10746" y2="15.7807" gradientUnits="userSpaceOnUse">
<stop stop-color="#FFEA34"/>
<stop offset="0.76" stop-color="#FF8100"/>
<stop offset="1" stop-color="#FFA400"/>
</linearGradient>
<linearGradient id="paint16_linear_327_2136" x1="15.6037" y1="8.47161" x2="16.4494" y2="9.383" gradientUnits="userSpaceOnUse">
<stop stop-color="#832645"/>
<stop offset="1" stop-color="#B41E2D"/>
</linearGradient>
<linearGradient id="paint17_linear_327_2136" x1="16.3639" y1="9.23831" x2="15.6125" y2="8.48697" gradientUnits="userSpaceOnUse">
<stop stop-color="#EB175A"/>
<stop offset="1" stop-color="#FF1F19"/>
</linearGradient>
<linearGradient id="paint18_linear_327_2136" x1="15.6037" y1="28.3055" x2="16.4494" y2="29.2169" gradientUnits="userSpaceOnUse">
<stop stop-color="#832645"/>
<stop offset="1" stop-color="#B41E2D"/>
</linearGradient>
<linearGradient id="paint19_linear_327_2136" x1="16.3639" y1="29.0723" x2="15.6118" y2="28.3202" gradientUnits="userSpaceOnUse">
<stop stop-color="#EB175A"/>
<stop offset="1" stop-color="#FF1F19"/>
</linearGradient>
<linearGradient id="paint20_linear_327_2136" x1="8.10346" y1="12.1968" x2="8.94915" y2="13.1082" gradientUnits="userSpaceOnUse">
<stop stop-color="#832645"/>
<stop offset="1" stop-color="#B41E2D"/>
</linearGradient>
<linearGradient id="paint21_linear_327_2136" x1="8.8636" y1="12.9636" x2="8.11227" y2="12.2123" gradientUnits="userSpaceOnUse">
<stop stop-color="#EB175A"/>
<stop offset="1" stop-color="#FF1F19"/>
</linearGradient>
<linearGradient id="paint22_linear_327_2136" x1="8.08787" y1="12.1913" x2="8.93286" y2="13.1033" gradientUnits="userSpaceOnUse">
<stop stop-color="#832645"/>
<stop offset="1" stop-color="#B41E2D"/>
</linearGradient>
<linearGradient id="paint23_linear_327_2136" x1="8.84633" y1="12.9587" x2="8.095" y2="12.2074" gradientUnits="userSpaceOnUse">
<stop stop-color="#EB175A"/>
<stop offset="1" stop-color="#FF1F19"/>
</linearGradient>
<linearGradient id="paint24_linear_327_2136" x1="23.2203" y1="12.192" x2="24.0659" y2="13.1033" gradientUnits="userSpaceOnUse">
<stop stop-color="#832645"/>
<stop offset="1" stop-color="#B41E2D"/>
</linearGradient>
<linearGradient id="paint25_linear_327_2136" x1="23.9797" y1="12.958" x2="23.2284" y2="12.2067" gradientUnits="userSpaceOnUse">
<stop stop-color="#EB175A"/>
<stop offset="1" stop-color="#FF1F19"/>
</linearGradient>
<linearGradient id="paint26_linear_327_2136" x1="16.0021" y1="23.236" x2="16.0021" y2="13.4319" gradientUnits="userSpaceOnUse">
<stop stop-color="#832645"/>
<stop offset="1" stop-color="#B41E2D"/>
</linearGradient>
<linearGradient id="paint27_linear_327_2136" x1="16.0011" y1="13.6138" x2="16.0011" y2="22.8693" gradientUnits="userSpaceOnUse">
<stop stop-color="#FFAB00"/>
<stop offset="0.49" stop-color="#FFBA00"/>
<stop offset="1" stop-color="#EF6C00"/>
</linearGradient>
<linearGradient id="paint28_linear_327_2136" x1="15.9629" y1="20.0661" x2="15.9629" y2="17.3717" gradientUnits="userSpaceOnUse">
<stop stop-color="#FFEA34"/>
<stop offset="0.63" stop-color="#FF8100"/>
<stop offset="0.7" stop-color="#FFA400"/>
<stop offset="1" stop-color="#FFBA00"/>
</linearGradient>
<linearGradient id="paint29_linear_327_2136" x1="17.4427" y1="19.304" x2="14.4834" y2="19.304" gradientUnits="userSpaceOnUse">
<stop stop-color="#FF5900"/>
<stop offset="1" stop-color="#F63F00"/>
</linearGradient>
<linearGradient id="paint30_linear_327_2136" x1="15.2213" y1="17.689" x2="14.6016" y2="17.689" gradientUnits="userSpaceOnUse">
<stop stop-color="#EBBD38"/>
<stop offset="1" stop-color="#FFF29E"/>
</linearGradient>
<linearGradient id="paint31_linear_327_2136" x1="17.2038" y1="18.5538" x2="14.7348" y2="18.5538" gradientUnits="userSpaceOnUse">
<stop stop-color="#832645"/>
<stop offset="1" stop-color="#B41E2D"/>
</linearGradient>
<linearGradient id="paint32_linear_327_2136" x1="16.6963" y1="19.2104" x2="15.3286" y2="17.8426" gradientUnits="userSpaceOnUse">
<stop stop-color="#EB175A"/>
<stop offset="1" stop-color="#FF1F19"/>
</linearGradient>
<radialGradient id="paint33_radial_327_2136" cx="0" cy="0" r="1" gradientUnits="userSpaceOnUse" gradientTransform="translate(15.994 18.546) scale(2.10137)">
<stop offset="0.1" stop-color="#B41E2D"/>
<stop offset="0.34" stop-color="#7A141E"/>
<stop offset="0.66" stop-color="#38090E"/>
<stop offset="0.88" stop-color="#0F0203"/>
<stop offset="1"/>
</radialGradient>
<linearGradient id="paint34_linear_327_2136" x1="15.9455" y1="23.236" x2="15.9455" y2="13.4319" gradientUnits="userSpaceOnUse">
<stop stop-color="#832645"/>
<stop offset="1" stop-color="#B41E2D"/>
</linearGradient>
<linearGradient id="paint35_linear_327_2136" x1="15.9464" y1="0.799919" x2="15.9464" y2="0.799919" gradientUnits="userSpaceOnUse">
<stop stop-color="#FFAB00"/>
<stop offset="0.49" stop-color="#FFBA00"/>
<stop offset="1" stop-color="#EF6C00"/>
</linearGradient>
<linearGradient id="paint36_linear_327_2136" x1="15.9063" y1="20.066" x2="15.9063" y2="17.3716" gradientUnits="userSpaceOnUse">
<stop stop-color="#FFEA34"/>
<stop offset="0.63" stop-color="#FF8100"/>
<stop offset="0.7" stop-color="#FFA400"/>
<stop offset="1" stop-color="#FFBA00"/>
</linearGradient>
<linearGradient id="paint37_linear_327_2136" x1="17.3861" y1="19.304" x2="14.4268" y2="19.304" gradientUnits="userSpaceOnUse">
<stop stop-color="#FF5900"/>
<stop offset="1" stop-color="#F63F00"/>
</linearGradient>
<linearGradient id="paint38_linear_327_2136" x1="15.1647" y1="0.799921" x2="14.5459" y2="0.799921" gradientUnits="userSpaceOnUse">
<stop stop-color="#EBBD38"/>
<stop offset="1" stop-color="#FFF29E"/>
</linearGradient>
<linearGradient id="paint39_linear_327_2136" x1="17.1472" y1="18.5538" x2="14.6781" y2="18.5538" gradientUnits="userSpaceOnUse">
<stop stop-color="#832645"/>
<stop offset="1" stop-color="#B41E2D"/>
</linearGradient>
<linearGradient id="paint40_linear_327_2136" x1="16.6384" y1="19.2098" x2="15.2714" y2="17.8427" gradientUnits="userSpaceOnUse">
<stop stop-color="#EB175A"/>
<stop offset="1" stop-color="#FF1F19"/>
</linearGradient>
<radialGradient id="paint41_radial_327_2136" cx="0" cy="0" r="1" gradientUnits="userSpaceOnUse" gradientTransform="translate(15.9383 0.849334) scale(2.10137)">
<stop offset="0.1" stop-color="#B41E2D"/>
<stop offset="0.34" stop-color="#7A141E"/>
<stop offset="0.66" stop-color="#38090E"/>
<stop offset="0.88" stop-color="#0F0203"/>
<stop offset="1"/>
</radialGradient>
<linearGradient id="paint42_linear_327_2136" x1="12.852" y1="4.96709" x2="13.107" y2="4.96709" gradientUnits="userSpaceOnUse">
<stop stop-color="#DA2700"/>
<stop offset="1" stop-color="#D41B00"/>
</linearGradient>
<linearGradient id="paint43_linear_327_2136" x1="13.2375" y1="6.88658" x2="13.2375" y2="4.25344" gradientUnits="userSpaceOnUse">
<stop offset="0.05" stop-color="#FF3F00"/>
<stop offset="1" stop-color="#FF7C04"/>
</linearGradient>
<linearGradient id="paint44_linear_327_2136" x1="18.756" y1="4.96704" x2="19.011" y2="4.96704" gradientUnits="userSpaceOnUse">
<stop stop-color="#DA2700"/>
<stop offset="1" stop-color="#D41B00"/>
</linearGradient>
<linearGradient id="paint45_linear_327_2136" x1="18.6133" y1="0.799912" x2="18.6133" y2="4.25344" gradientUnits="userSpaceOnUse">
<stop offset="0.05" stop-color="#FF3F00"/>
<stop offset="1" stop-color="#FF7C04"/>
</linearGradient>
<linearGradient id="paint46_linear_327_2136" x1="10.375" y1="5.40688" x2="21.465" y2="5.40688" gradientUnits="userSpaceOnUse">
<stop stop-color="#FFEA34"/>
<stop offset="0.71" stop-color="#FF8100"/>
<stop offset="0.8" stop-color="#FFA400"/>
<stop offset="1" stop-color="#FFBA00"/>
</linearGradient>
<linearGradient id="paint47_linear_327_2136" x1="18.1104" y1="5.64218" x2="21.469" y2="5.64218" gradientUnits="userSpaceOnUse">
<stop stop-color="#FFDE00"/>
<stop offset="1" stop-color="#FFE834"/>
</linearGradient>
<linearGradient id="paint48_linear_327_2136" x1="13.6729" y1="5.58675" x2="10.3508" y2="5.58675" gradientUnits="userSpaceOnUse">
<stop stop-color="#FFDE00"/>
<stop offset="1" stop-color="#FFE834"/>
</linearGradient>
<linearGradient id="paint49_linear_327_2136" x1="14.4238" y1="1.74084" x2="17.3495" y2="1.74084" gradientUnits="userSpaceOnUse">
<stop stop-color="#FFDE00"/>
<stop offset="1" stop-color="#FFE834"/>
</linearGradient>
<clipPath id="clip0_327_2136">
<rect width="32" height="32" fill="white"/>
</clipPath>
<clipPath id="clip1_327_2136">
<rect width="32" height="30.9819" fill="white" transform="translate(0 0.799988)"/>
</clipPath>
</defs>
</svg>
