<svg width="90" height="68" viewBox="0 0 90 68" fill="none" xmlns="http://www.w3.org/2000/svg">
<g clip-path="url(#clip0_327_2644)">
<path d="M28.5155 17.7497L23.9078 20.189L20.5302 36.9311C19.3765 37.0145 16.263 35.2771 13.5595 33.5535C11.1549 32.0315 7.29777 27.5628 7.28387 27.1388C8.22905 26.1937 9.07692 25.7072 9.07692 25.7072C9.07692 25.7072 4.26071 19.4315 3.94796 18.6392C3.72557 18.0833 2.07847 15.0114 1.87692 14.2609C1.79352 13.9412 7.40897 13.8786 7.40897 13.8786C7.34642 13.83 5.99121 12.3358 5.37962 11.4323C4.10086 9.53499 -0.159372 0.291748 0.000473966 0.291748C11.4468 0.291748 23.5673 10.0771 24.1233 10.9875C24.2553 11.2029 24.3943 11.4462 24.5472 11.7172C25.5688 13.5728 26.931 16.4917 28.5155 17.7497Z" fill="url(#paint0_linear_327_2644)"/>
<g style="mix-blend-mode:multiply" opacity="0.5">
<path d="M28.5152 17.7497L23.9075 20.189L20.5298 36.9311C18.3546 37.091 10.3136 32.1983 7.28351 27.1458C7.31826 27.3751 10.3136 29.0639 12.8364 28.5288C14.3376 28.2091 22.2742 22.3921 21.5376 21.8639C21.0858 21.5373 14.2542 22.691 9.07656 25.7072C9.07656 25.7072 4.26034 19.4315 3.9476 18.6392C3.72521 18.0833 2.0781 15.0114 1.87656 14.2609C2.12675 14.6292 3.15533 16.1582 5.97695 18.0277C7.43641 19.0006 12.614 20.5991 15.4773 21.1273C17.3329 21.4678 23.8797 18.5419 23.3237 17.5134C23.0526 16.9991 20.1685 14.2609 7.40861 13.8717C7.34606 13.823 5.99085 12.3288 5.37926 11.4253C4.1005 9.53499 -0.152783 0.347346 0.000112313 0.291748C0.000112313 0.291748 2.3561 5.5875 8.68042 9.39599C9.5978 9.94503 24.1437 11.8284 24.1229 10.9875C25.1793 12.6972 26.7013 16.3111 28.5152 17.7497Z" fill="#6E5066"/>
</g>
<path style="mix-blend-mode:multiply" opacity="0.5" d="M6.75542 8.62451C7.62414 9.58358 10.8002 13.7604 10.6334 13.7813C9.41024 13.9759 7.74924 13.5797 7.44345 13.3573C5.54615 11.9882 2.99557 7.20675 2.0365 4.90636C1.48051 3.572 5.94924 7.73494 6.75542 8.61756V8.62451Z" fill="url(#paint1_linear_327_2644)"/>
<path style="mix-blend-mode:multiply" opacity="0.5" d="M7.05476 19.4662C7.4092 19.8763 9.77213 25.3527 9.07715 25.0747C8.38217 24.7967 4.21229 19.7234 3.16982 16.6168C2.90572 15.8384 6.44318 18.7504 7.05476 19.4662Z" fill="url(#paint2_linear_327_2644)"/>
<path style="mix-blend-mode:multiply" opacity="0.5" d="M8.24975 28.2925C8.2845 28.5774 12.6212 33.9288 19.9393 36.6392C20.8081 36.9589 20.1756 33.63 19.4528 32.6848C17.8752 30.6068 8.15245 27.4307 8.24975 28.2925Z" fill="url(#paint3_linear_327_2644)"/>
<g style="mix-blend-mode:soft-light">
<path d="M8.68055 9.396C11.8358 10.2995 22.8026 11.3697 23.6782 11.1682C24.4149 11.0014 3.28055 4.93422 4.63576 6.35198C5.51144 7.26936 8.08982 9.2292 8.68055 9.396Z" fill="white"/>
</g>
<g style="mix-blend-mode:multiply" opacity="0.5">
<path d="M24.1845 12.2314C21.4741 10.9874 8.20693 9.52797 8.24863 9.81291C8.33898 10.4662 10.8757 13.5728 11.2371 13.7326C11.8139 13.9828 15.7336 13.2809 27.0757 17.3952C27.4926 17.548 25.4216 12.7944 24.1915 12.2314H24.1845Z" fill="#BFB5DF"/>
</g>
<path style="mix-blend-mode:multiply" opacity="0.5" d="M28.5158 17.7497L23.9081 20.1891L20.5305 36.9312C19.3768 37.0146 16.2633 35.2771 13.5598 33.5536C13.5598 33.5536 12.9413 29.6964 12.837 28.5288C12.7328 27.3613 14.0393 23.4624 14.0393 23.4624C14.0393 23.4624 11.8154 20.7729 11.8849 20.203C12.1351 18.2362 17.5629 14.6987 17.5629 14.6987C17.5629 14.6987 26.9382 16.4918 28.5227 17.7566L28.5158 17.7497Z" fill="url(#paint4_linear_327_2644)"/>
<path d="M61.484 17.7497L66.0917 20.1891L69.4693 36.9311C70.623 37.0145 73.7365 35.2771 76.44 33.5535C78.8446 32.0315 82.7018 27.5628 82.7157 27.1389C81.7705 26.1937 80.9226 25.7072 80.9226 25.7072C80.9226 25.7072 85.7388 19.4315 86.0516 18.6392C86.274 18.0833 87.9211 15.0114 88.1226 14.2609C88.206 13.9412 82.5906 13.8786 82.5906 13.8786C82.6531 13.83 84.0083 12.3358 84.6199 11.4323C85.8987 9.54195 90.1589 0.298706 89.9921 0.298706C78.5527 0.298706 66.4323 10.084 65.8693 10.9945C65.7373 11.2099 65.5983 11.4531 65.4454 11.7242C64.4238 13.5798 63.0616 16.4987 61.4771 17.7566L61.484 17.7497Z" fill="url(#paint5_linear_327_2644)"/>
<g style="mix-blend-mode:multiply" opacity="0.5">
<path d="M61.4839 17.7497L66.0916 20.189L69.4692 36.9311C71.6445 37.091 79.6854 32.1983 82.7155 27.1458C82.6808 27.3751 79.6854 29.0639 77.1626 28.5288C75.6615 28.2091 67.7248 22.3921 68.4615 21.8639C68.9132 21.5373 75.7449 22.691 80.9225 25.7072C80.9225 25.7072 85.7387 19.4315 86.0515 18.6392C86.2738 18.0833 87.921 15.0114 88.1225 14.2609C87.8723 14.6292 86.8437 16.1582 84.0221 18.0277C82.5627 19.0006 77.385 20.5991 74.5217 21.1273C72.6661 21.4678 66.1194 18.5419 66.6754 17.5134C66.9464 16.9991 69.8306 14.2609 82.5974 13.8717C82.6599 13.823 84.0152 12.3288 84.6267 11.4253C85.9055 9.53499 90.1518 0.354296 89.9989 0.291748C89.9989 0.291748 87.6499 5.5875 81.3186 9.39599C80.4013 9.94503 65.8553 11.8284 65.8762 10.9875C64.8198 12.6972 63.2978 16.3111 61.4839 17.7497Z" fill="#6E5066"/>
</g>
<path style="mix-blend-mode:multiply" opacity="0.5" d="M83.2427 8.62463C82.374 9.58371 79.1979 13.7605 79.3647 13.7814C80.5879 13.976 82.2489 13.5798 82.5547 13.3575C84.452 11.9883 87.0026 7.20687 87.9616 4.90649C88.5176 3.57212 84.0489 7.73506 83.2427 8.61768V8.62463Z" fill="url(#paint6_linear_327_2644)"/>
<path style="mix-blend-mode:multiply" opacity="0.5" d="M82.945 19.4662C82.5906 19.8763 80.2276 25.3527 80.9226 25.0747C81.6176 24.7967 85.7875 19.7234 86.8299 16.6168C87.094 15.8384 83.5566 18.7504 82.945 19.4662Z" fill="url(#paint7_linear_327_2644)"/>
<path style="mix-blend-mode:multiply" opacity="0.5" d="M81.7494 28.2926C81.7146 28.5775 77.3571 32.532 76.8845 32.9559C76.1965 33.5744 70.0807 37.8138 70.2822 36.6393C70.6506 34.5126 71.1996 31.9621 72.0961 31.142C72.7633 30.5304 81.798 27.9242 81.7563 28.2926H81.7494Z" fill="url(#paint8_linear_327_2644)"/>
<g style="mix-blend-mode:soft-light">
<path d="M81.3192 9.396C78.164 10.2995 67.1972 11.3697 66.3216 11.1682C65.5849 11.0014 86.7192 4.93422 85.364 6.35198C84.4884 7.26936 81.91 9.2292 81.3192 9.396Z" fill="white"/>
</g>
<g style="mix-blend-mode:multiply" opacity="0.5">
<path d="M65.8143 12.2316C68.5248 10.9876 81.7919 9.52809 81.7502 9.81303C81.6599 10.4663 79.1232 13.5729 78.7618 13.7327C78.185 13.9829 74.2653 13.281 62.9232 17.3953C62.5062 17.5482 64.5773 12.7945 65.8074 12.2316H65.8143Z" fill="#BFB5DF"/>
</g>
<path style="mix-blend-mode:multiply" opacity="0.5" d="M61.484 17.7497L66.0917 20.1891L69.4693 36.9312C70.623 37.0146 73.7365 35.2771 76.44 33.5536C76.44 33.5536 77.0585 29.6964 77.1628 28.5288C77.267 27.3613 75.9605 23.4624 75.9605 23.4624C75.9605 23.4624 78.1844 20.7729 78.1149 20.203C77.8647 18.2362 72.4369 14.6987 72.4369 14.6987C72.4369 14.6987 63.0616 16.4918 61.4771 17.7566L61.484 17.7497Z" fill="url(#paint9_linear_327_2644)"/>
<path d="M72.8075 23.4554C70.5627 31.8855 68.9434 41.2955 65.0723 48.982C62.7442 53.6036 57.7473 57.3635 53.8554 60.7411C50.999 63.2222 48.0731 65.6337 45.0708 67.9411C38.2808 62.7704 30.1774 57.0507 25.4376 49.8577C25.243 49.5519 25.0693 49.26 24.9372 48.989C21.1009 41.1913 19.4399 31.8785 17.2021 23.4623C17.0005 20.7449 17.4662 17.9511 18.043 15.3032C36.0708 14.7056 54.0986 14.7056 72.1264 15.3032C72.6268 17.965 73.0229 20.7449 72.8144 23.4554H72.8075Z" fill="url(#paint10_linear_327_2644)"/>
<path style="mix-blend-mode:multiply" opacity="0.5" d="M72.8079 23.4555C70.5631 31.8856 68.8812 41.108 65.0727 48.9821C64.9754 43.1512 66.9839 36.7921 68.228 31.1489C69.4025 25.8392 70.6951 20.5504 72.1198 15.2964C72.6202 17.9582 73.0164 20.7381 72.8079 23.4485V23.4555Z" fill="url(#paint11_linear_327_2644)"/>
<g style="mix-blend-mode:multiply" opacity="0.5">
<path d="M45.064 67.9412C44.786 67.8161 44.5497 60.8246 46.2455 58.7744C48.4416 56.1195 52.7227 54.0832 55.9752 52.1859C57.4138 51.345 64.6208 47.5574 64.9682 48.6207C65.281 49.5659 62.2995 52.8601 61.1042 54.1041C58.9636 56.3211 56.3574 58.5242 54.057 60.5744C50.8532 63.4238 45.0709 67.9481 45.0709 67.9481L45.064 67.9412Z" fill="#6E5066"/>
</g>
<path style="mix-blend-mode:multiply" opacity="0.5" d="M25.4308 49.8577C25.2362 49.5519 25.0624 49.26 24.9304 48.989C21.0941 41.1913 19.4331 31.8785 17.1952 23.4623C16.9937 20.745 17.4593 17.9511 18.0362 15.3033C18.9952 15.2685 19.4748 15.2546 20.4269 15.2268C21.7891 26.7009 22.5188 38.6616 25.4308 49.8646V49.8577Z" fill="url(#paint12_linear_327_2644)"/>
<path d="M66.7064 16.9573C64.8647 15.3241 62.9674 13.8299 60.9519 12.4191C56.4276 9.51404 51.6392 7.17196 46.4755 5.6569C46.0237 5.52485 45.6206 5.41365 45.2732 5.32331C45.1967 5.30246 45.162 5.29551 45.0855 5.27466C45.0091 5.29551 44.9743 5.30246 44.8979 5.32331C36.9125 7.4013 29.6013 11.4947 23.4508 16.9573C23.3535 17.0476 23.3048 17.0963 23.2075 17.1866C23.2214 17.3187 23.2353 17.3882 23.2492 17.5272C23.2909 17.8538 23.3396 18.2082 23.3882 18.5835C23.8052 21.7179 24.2708 24.8662 24.806 27.9727C25.7859 33.6368 26.606 40.3573 29.5527 45.4793C29.5527 45.4862 29.5596 45.4932 29.5666 45.5001C29.5666 45.5071 29.5735 45.514 29.5805 45.521C31.8044 48.3565 35.2515 50.4414 38.1496 52.4638C39.206 53.2005 40.2623 53.9025 41.2353 54.5488C42.4029 55.3202 43.5774 56.0777 44.7658 56.8214C44.8909 56.8978 44.9535 56.9395 45.0786 57.016C45.2037 56.9395 45.2662 56.8978 45.3913 56.8214C45.44 56.7936 45.4886 56.7588 45.5372 56.731C47.6986 55.348 49.9017 53.9303 52.0075 52.4638C54.9056 50.4553 58.3457 48.3635 60.5766 45.521C60.5766 45.514 60.5836 45.5071 60.5905 45.5001C60.5905 45.4932 60.5975 45.4862 60.6044 45.4793C63.5511 40.3503 64.3782 33.6438 65.3581 27.9727C65.8376 25.2206 66.2616 22.4337 66.6369 19.6538C66.7411 18.8685 66.8384 18.1527 66.9218 17.5272C66.9427 17.3951 66.9496 17.3256 66.9635 17.1866C66.8662 17.0963 66.8176 17.0476 66.7203 16.9573H66.7064ZM62.6824 27.6252C61.8067 32.9418 61.0631 39.0855 58.4917 43.9642C56.2956 46.4106 53.3349 48.287 50.6732 50.1148C48.8384 51.3727 46.962 52.6098 45.0716 53.8052C43.1813 52.6098 41.2979 51.3797 39.4701 50.1148C36.8083 48.2801 33.8616 46.3897 31.6515 43.9642C29.0732 39.0716 28.3434 32.9627 27.4608 27.6252C26.9535 24.5534 26.5156 21.4399 26.1403 18.3333C31.6863 13.6561 38.0732 10.1117 45.0786 8.16578C52.084 10.1117 58.4708 13.6561 64.0168 18.3333C63.6345 21.4399 63.1967 24.5534 62.6894 27.6252H62.6824Z" fill="url(#paint13_linear_327_2644)"/>
<path d="M64.0082 18.3335C63.6259 21.44 63.1881 24.5535 62.6808 27.6254C61.8051 32.942 61.0615 39.0856 58.49 43.9644C56.4537 46.9736 53.5696 49.3088 50.6576 51.345C48.8506 52.6099 46.9533 53.84 45.0699 55.0354C43.1865 53.84 41.2893 52.6099 39.4823 51.345C36.5703 49.3088 33.6862 46.9806 31.6499 43.9644C29.3286 39.5512 28.6128 34.1234 27.7441 29.3072C27.6537 28.7651 27.5564 28.2022 27.4591 27.6254C26.9587 24.5466 26.514 21.44 26.1387 18.3335C27.2228 17.3674 28.3765 16.4362 29.558 15.6161C33.6445 12.7528 38.1549 10.3968 42.9364 8.82613C43.7495 8.55509 44.4792 8.33965 45.0838 8.17285C47.4259 8.83308 49.7055 9.68096 51.9086 10.647C56.3008 12.5651 60.3317 15.2269 64.0221 18.3474L64.0082 18.3335Z" fill="url(#paint14_linear_327_2644)"/>
<g style="mix-blend-mode:multiply" opacity="0.3">
<path d="M66.2116 17.4715C65.329 17.819 64.8842 17.9928 64.0085 18.3403C58.4626 13.663 52.0827 10.1117 45.0703 8.1727C45.0703 7.30397 45.0703 6.87308 45.0703 6.00436C45.6263 5.86536 45.9043 5.80281 46.4672 5.66382C51.6309 7.18583 56.4193 9.52791 60.9437 12.426C62.7089 14.0939 64.4672 15.7758 66.2047 17.4715H66.2116Z" fill="#7F6593"/>
</g>
<path d="M66.6286 19.6467C66.2533 22.4266 65.8224 25.2135 65.3498 27.9656C64.3699 33.6367 63.5429 40.3432 60.5962 45.4722C60.5962 45.4791 60.5892 45.4861 60.5823 45.493C60.5823 45.5 60.5753 45.5069 60.5684 45.5139C58.3444 48.3564 54.9043 50.4483 51.9993 52.4568C49.8865 53.9162 47.7112 55.3409 45.529 56.7239C45.3483 56.5224 45.258 56.4181 45.0703 56.2096C45.0703 55.7371 45.0703 55.5077 45.0703 55.0351C46.9537 53.8398 48.851 52.6096 50.658 51.3448C53.5699 49.3085 56.461 46.9803 58.4904 43.9641C61.0618 39.0853 61.8055 32.9486 62.6811 27.6251C63.1885 24.5533 63.6263 21.4398 64.0085 18.3332C64.8842 17.9857 65.329 17.812 66.2116 17.4645C66.3784 18.3332 66.4618 18.771 66.6217 19.6467H66.6286Z" fill="url(#paint15_linear_327_2644)"/>
<path d="M72.0983 15.2893C71.6605 14.8167 71.1809 14.358 70.7083 13.9132C70.6458 13.8507 70.5763 13.7881 70.5068 13.7256C68.3593 11.7379 65.9686 9.98657 63.5431 8.34642C63.5431 8.34642 62.7369 8.15877 61.5346 7.3943C60.367 6.65067 59.9778 6.21978 59.95 6.19198C55.5856 3.87769 51.0404 1.8831 46.3076 0.583485C46.2728 0.576535 46.2311 0.562636 46.1964 0.555686C45.6612 0.40974 45.2929 0.312443 45.147 0.277694C45.1331 0.277694 45.1192 0.270744 45.1053 0.270744C45.0983 0.270744 45.0844 0.270744 45.0775 0.263794C45.0775 0.263794 45.0775 0.263794 45.0636 0.263794C45.0566 0.263794 45.0427 0.263794 45.0288 0.270744C35.313 2.66148 25.5763 7.68619 18.5292 14.7958C18.3624 14.9626 18.1956 15.1364 18.0288 15.3101C18.0288 15.3518 18.0358 15.3727 18.0427 15.4213C18.0775 15.6924 18.1817 16.4707 18.3415 17.6105C18.3415 17.6175 18.3415 17.6244 18.3415 17.6383C19.0574 22.6491 19.8983 27.646 20.9338 32.6012C22.011 37.7302 23.0535 43.5472 25.8126 47.9673C28.1269 51.6785 32.9431 54.4584 36.5083 56.9464C39.3091 58.8993 42.1585 60.7897 45.0566 62.5897C47.9616 60.7897 50.8041 58.8993 53.6118 56.9464C57.1701 54.4653 62.0002 51.6715 64.3076 47.9673C67.0666 43.5402 68.1091 37.7372 69.1933 32.6012C70.2358 27.646 71.0767 22.6491 71.7925 17.6453C71.7925 17.6383 71.7925 17.6314 71.7925 17.6175C71.9593 16.4777 72.0566 15.7063 72.0914 15.4283C72.0914 15.3866 72.0983 15.3657 72.1053 15.3171C72.1053 15.3171 72.1053 15.3171 72.0914 15.3032L72.0983 15.2893ZM64.6759 27.8823C63.7238 33.4491 62.9385 40.0792 60.0473 45.1248C57.8165 47.863 54.5083 49.9063 51.6589 51.8731C49.5045 53.3603 47.2875 54.8059 45.0636 56.2097C42.8327 54.8128 40.6226 53.3603 38.4682 51.8731C35.6396 49.9202 32.2968 47.8561 30.0798 45.1248C27.1887 40.0862 26.4103 33.4491 25.4582 27.8823C24.8674 24.4422 24.367 20.9534 23.9292 17.4646C29.9894 12.0854 37.2103 8.04758 45.0705 5.99738C52.9377 8.06148 60.1446 12.0854 66.2118 17.4715C65.774 20.9534 65.2666 24.4422 64.6759 27.8823Z" fill="url(#paint16_linear_327_2644)"/>
<g style="mix-blend-mode:soft-light">
<path d="M71.6194 15.3241C71.0356 13.3226 64.5445 9.4029 60.9792 7.22761C56.2256 4.34344 47.4688 0.250001 45.2588 0.562742C45.2101 0.569692 45.0433 0.569692 44.9947 0.562742C42.7846 0.250001 33.9028 3.8778 29.1491 6.76892C25.5839 8.93726 19.2178 13.3295 18.6271 15.3241C18.1406 16.9851 19.1831 22.3087 19.6904 22.3156C20.163 22.3156 22.5121 21.5164 23.7839 20.8631C24.0827 20.7102 23.5406 17.8122 23.9298 17.4647C31.1229 10.9319 38.4827 7.92954 44.258 5.99749C44.9947 5.75425 45.2379 5.8307 45.4812 5.92799C50.0194 7.6585 59.1167 10.9388 66.3167 17.4716C66.6989 17.8191 66.1638 20.7172 66.4626 20.8701C67.7344 21.5234 70.0835 22.3226 70.5561 22.3226C71.0634 22.3226 72.1059 16.9921 71.6194 15.3311V15.3241Z" fill="white"/>
</g>
<g style="mix-blend-mode:soft-light" opacity="0.7">
<path d="M26.1323 18.3335C26.5146 21.44 26.9524 24.5535 27.4597 27.6254C28.3354 32.942 29.079 39.0856 31.6505 43.9644C33.6868 46.9736 36.5709 49.3088 39.4829 51.345C41.2899 52.6099 43.1872 53.84 45.0705 55.0354C45.0288 47.2308 44.9941 39.4261 45.0705 31.6215C45.14 23.8099 45.2929 15.9775 45.0705 8.17285C38.0651 10.1188 31.6783 13.6632 26.1323 18.3404V18.3335Z" fill="white"/>
</g>
<path style="mix-blend-mode:multiply" opacity="0.5" d="M64.0082 18.3332C63.6259 21.4398 63.1881 24.5533 62.6808 27.6251C61.8051 32.9417 61.0615 39.0853 58.49 43.9641C56.4537 46.9734 53.5696 49.3085 50.6576 51.3448C48.8506 52.6096 46.9533 53.8398 45.0699 55.0351C43.1865 53.8398 41.2893 52.6096 39.4823 51.3448C36.5703 49.3085 33.6862 46.9803 31.6499 43.9641C29.3286 39.551 28.6128 34.1232 27.7441 29.307C27.6537 28.7649 27.5564 28.2019 27.4591 27.6251C26.9587 24.5463 26.514 21.4398 26.1387 18.3332C27.2228 17.3672 28.3765 16.4498 29.558 15.6158C29.5788 15.6019 29.5927 15.6019 29.6136 15.588C28.4808 16.4637 27.4383 17.5409 27.0491 18.7015C26.1734 21.2938 28.4877 31.4266 29.1757 34.5054C30.0931 38.6405 41.1642 32.7193 44.5765 32.5386C47.9194 32.3579 58.08 40.2112 59.7757 37.0977C64.0846 29.1819 60.9989 16.2969 51.8808 10.6398C51.8808 10.6398 51.8808 10.6398 51.8947 10.6398C56.3078 12.6205 60.3178 15.2197 64.0082 18.3402V18.3332Z" fill="url(#paint17_linear_327_2644)"/>
<path style="mix-blend-mode:multiply" opacity="0.5" d="M24.0559 18.3821C24.8899 19.0423 26.3354 19.918 26.3354 19.918C27.6767 17.2076 34.1956 13.4825 38.6713 12.4887C43.8072 11.3489 49.8119 12.3358 54.4265 15.3033C57.3316 17.1728 61.3624 20.2933 63.3501 23.2539C64.2675 22.5798 64.7331 22.2393 65.6574 21.5721C65.8729 19.9319 65.9841 19.1118 66.2065 17.4717C55.6358 8.1798 45.0651 5.99756 45.0651 5.99756C45.0651 5.99756 32.8126 9.13192 23.9238 17.4647C23.9725 17.8331 24.0003 18.0138 24.0489 18.3752L24.0559 18.3821Z" fill="url(#paint18_linear_327_2644)"/>
<g style="mix-blend-mode:multiply" opacity="0.3">
<path d="M70.2446 22.7464C69.3898 22.3086 66.3597 21.6553 65.8802 22.8715C65.5883 23.6152 64.8516 27.8962 64.3582 30.6206C63.3991 35.9302 62.586 36.8337 61.9327 39.7109C61.6894 40.7881 66.2763 40.7256 66.9435 40.2669C67.4578 39.9125 67.6802 38.8978 68.5072 34.9364C69.2022 31.6074 70.0222 28.2507 70.5018 24.88C70.6408 23.914 70.7867 23.0244 70.2377 22.7464H70.2446Z" fill="#7F6593"/>
</g>
<g style="mix-blend-mode:multiply" opacity="0.3">
<path d="M23.9292 21.6694C23.5539 21.3844 20.079 22.2323 19.6898 22.8995C19.2728 23.6223 20.2736 28.8694 20.8226 31.5173C21.9138 36.7505 22.7616 39.8084 23.1925 40.5173C24.1447 42.081 28.8288 42.2408 28.4118 40.8161C27.6543 38.2794 26.9037 37.2508 26.1393 32.5389C25.6319 29.4115 24.6033 22.1837 23.9362 21.6694H23.9292Z" fill="#7F6593"/>
</g>
<g style="mix-blend-mode:multiply" opacity="0.5">
<path d="M45.7255 66.8291C45.3919 66.8916 45.3502 63.0206 45.51 62.8051C47.1154 60.6507 53.7594 57.836 51.883 61.9781C51.327 63.2013 46.9069 66.6067 45.7255 66.8291Z" fill="#6E5066"/>
</g>
<g style="mix-blend-mode:soft-light">
<path d="M60.7854 51.5534C61.3414 50.9627 60.2642 46.1951 59.7638 46.5079C58.9993 46.9805 45.3429 56.189 45.0788 56.5434C44.4811 57.3357 45.0093 61.9365 45.2665 61.9782C45.8642 62.0755 59.0062 53.4646 60.7923 51.5534H60.7854Z" fill="white"/>
</g>
<g style="mix-blend-mode:soft-light">
<path d="M38.289 8.16565C39.109 7.80426 38.4836 2.39036 37.594 2.7031C30.3036 5.27453 22.8395 11.029 22.8604 11.2722C22.8882 11.6128 27.3013 13.8297 29.143 12.9819C30.4913 12.3633 34.7237 9.72936 38.289 8.1587V8.16565Z" fill="white"/>
</g>
<g style="mix-blend-mode:multiply" opacity="0.8">
<path d="M72.1199 15.3033C72.1199 15.345 72.113 15.3658 72.106 15.4145C71.9879 16.2902 71.9253 16.728 71.8072 17.6037C71.8072 17.6106 71.8072 17.6176 71.8072 17.6315C70.6465 12.0021 66.4141 11.1334 63.1338 8.72182C62.1817 8.01989 61.1531 7.33186 60.1245 6.70638C55.8157 4.0585 50.5686 1.39673 45.4952 0.826842C41.7145 0.409854 33.9933 4.44074 29.5245 7.23456C25.9037 9.49325 19.5446 13.1072 18.3562 17.6245C18.3562 17.6176 18.3562 17.6106 18.3562 17.5967C18.2381 16.7211 18.1755 16.2832 18.0574 15.4075C18.0574 15.3658 18.0504 15.345 18.0435 15.2963C18.2103 15.1226 18.377 14.9488 18.5438 14.7821C25.6257 7.74885 35.1747 2.59904 45.0296 0.263908C45.0435 0.263908 45.0574 0.263908 45.0643 0.256958C45.0713 0.256958 45.0782 0.256958 45.0782 0.256958C45.0852 0.256958 45.0991 0.256958 45.106 0.263908C45.1199 0.263908 45.1338 0.270858 45.1477 0.270858C45.5021 0.361205 45.8566 0.458502 46.1971 0.54885C46.2319 0.5558 46.2736 0.569699 46.3083 0.576649C51.0411 1.87626 55.5863 3.87781 59.9508 6.18514C59.9716 6.21294 60.3678 6.63688 61.5354 7.38746C62.7377 8.15889 63.5438 8.33958 63.5438 8.33958C65.9763 9.98669 68.3392 11.7241 70.5075 13.7187C70.577 13.7813 70.6465 13.8438 70.7091 13.9064C71.5361 14.6848 72.0087 15.1921 72.0991 15.2824C72.106 15.2963 72.113 15.2963 72.113 15.2963L72.1199 15.3033Z" fill="#7E527C"/>
</g>
<path d="M35.0991 49.4614C35.0991 49.4614 43.5709 56.717 44.9956 56.717C46.3439 56.717 54.0582 50.2398 54.0582 50.2398C54.0582 50.2398 46.0729 55.3479 45.1068 55.473C43.0845 55.744 35.1061 49.4545 35.1061 49.4545L35.0991 49.4614Z" fill="white"/>
<path d="M64.4886 29.0153C64.5859 29.0361 60.0476 45.118 60.0476 45.118C59.9851 45.0902 62.2855 41.2608 63.5225 36.5766C64.0924 34.4083 64.4886 29.0153 64.4886 29.0153Z" fill="white"/>
<path d="M25.611 28.7928C25.5137 28.8137 29.7323 44.4855 29.7323 44.4855C29.7948 44.4577 27.2929 39.8361 26.4311 36.5836C25.8612 34.4152 25.618 28.7998 25.618 28.7998L25.611 28.7928Z" fill="white"/>
<g style="mix-blend-mode:multiply" opacity="0.2">
<path d="M40.3169 56.7033C42.9508 56.8284 41.2759 55.0284 40.2265 54.3474C39.2396 53.708 36.3138 52.7211 36.1261 53.0686C35.8273 53.6107 38.5586 56.6199 40.3099 56.7033H40.3169Z" fill="#7F6593"/>
</g>
<g style="mix-blend-mode:multiply" opacity="0.2">
<path d="M40.9144 57.7596C39.2673 57.0924 38.6905 56.8631 39.4758 58.1696C40.2611 59.4762 41.9777 58.1905 40.9144 57.7596Z" fill="#7F6593"/>
</g>
<path d="M31.8377 53.5342C31.4485 54.2153 33.5196 57.6346 35.2223 55.8276C35.5211 55.5149 32.1227 53.0268 31.8377 53.5342Z" fill="#63495F"/>
<g style="mix-blend-mode:multiply" opacity="0.5">
<path d="M31.8865 53.7703C31.7892 54.2846 32.5398 55.6676 33.0193 55.744C33.5058 55.8205 34.4927 54.9587 33.5128 54.3332C32.4147 53.6382 31.963 53.3811 31.8865 53.7703Z" fill="#5B3952"/>
</g>
<path d="M33.2622 56.1057C34.6244 56.8841 35.6182 56.5019 35.4653 55.9667C35.3124 55.4316 34.8954 55.2787 34.8954 55.2787C34.8954 55.2787 35.3054 55.5984 35.0831 55.9111C34.8607 56.2308 33.2692 56.0988 33.2692 56.0988L33.2622 56.1057Z" fill="white"/>
<path d="M63.5506 8.33962C63.4047 8.48557 63.2657 8.61066 63.1267 8.70796C61.6047 9.81298 59.7908 8.56896 59.7769 6.80371C59.7769 6.41452 59.9575 6.18518 59.9575 6.18518C59.9784 6.21298 60.3745 6.63692 61.5421 7.3875C62.7444 8.15893 63.5506 8.33962 63.5506 8.33962Z" fill="#63495F"/>
<g style="mix-blend-mode:multiply" opacity="0.5">
<path d="M59.8885 6.31022C59.7286 6.78976 59.8885 8.24922 60.4723 8.45771C61.0561 8.67315 61.4035 7.65848 61.2437 7.40829C61.0839 7.16505 59.9649 6.05308 59.8815 6.30327L59.8885 6.31022Z" fill="#5B3952"/>
</g>
<path d="M60.438 8.57589C60.438 8.57589 61.5778 9.66701 63.343 8.54114C63.343 8.54114 63.1415 9.61836 61.8905 9.61836C61.2164 9.61836 60.438 8.57589 60.438 8.57589Z" fill="white"/>
<g style="mix-blend-mode:multiply" opacity="0.5">
<path d="M45.19 0.993463C44.9399 2.50852 44.8426 5.1564 45.4055 5.65678C45.9684 6.15717 53.4186 8.77725 53.641 8.77725C53.8634 8.77725 54.5445 3.94713 53.4186 3.273C52.2928 2.59887 45.3429 0.0552391 45.19 0.986513V0.993463Z" fill="#6E5066"/>
</g>
<path d="M69.9576 50.4763C68.6649 51.8246 68.3869 52.0678 68.0047 52.3319C65.9128 53.7844 61.1938 54.1875 61.1938 54.1875L61.8819 50.8377L69.9506 50.4763H69.9576Z" fill="url(#paint19_linear_327_2644)"/>
<path d="M66.0864 44.3952C69.742 45.9103 70.3883 50.1427 69.9575 50.4763C66.6633 53.013 61.8887 50.8377 61.8887 50.8377C61.8887 50.8377 60.2833 46.1118 60.9366 45.125C61.5134 44.2562 66.0864 44.4022 66.0864 44.4022V44.3952Z" fill="url(#paint20_linear_327_2644)"/>
<g style="mix-blend-mode:multiply" opacity="0.3">
<path d="M69.4016 50.5875C69.9645 50.1496 61.3676 45.1388 60.9367 45.4029C60.5059 45.667 61.1939 50.2539 62.285 50.8863C62.6325 51.0878 66.851 52.5751 69.4016 50.5875Z" fill="#7F6593"/>
</g>
<g style="mix-blend-mode:soft-light">
<path d="M69.8179 50.1773C70.1098 49.9689 70.0194 47.0013 66.9476 44.9163C65.6549 44.0407 61.0889 44.7912 61.1932 44.9024C61.2974 45.0136 69.526 50.3858 69.8179 50.1773Z" fill="white"/>
</g>
<path d="M20.0093 50.4762C21.3019 51.8245 21.5799 52.0677 21.9622 52.3318C24.0541 53.7843 28.773 54.1874 28.773 54.1874L28.085 50.8376L20.0162 50.4762H20.0093Z" fill="url(#paint21_linear_327_2644)"/>
<path d="M23.8805 44.3951C20.2249 45.9102 19.5786 50.1426 20.0095 50.4762C23.3037 53.0129 28.0782 50.8376 28.0782 50.8376C28.0782 50.8376 29.6836 46.1117 29.0303 45.1248C28.4535 44.2561 23.8805 44.4021 23.8805 44.4021V44.3951Z" fill="url(#paint22_linear_327_2644)"/>
<g style="mix-blend-mode:multiply" opacity="0.3">
<path d="M20.565 50.5873C20.0021 50.1495 28.599 45.1387 29.0299 45.4028C29.4608 45.6669 28.7728 50.2537 27.6817 50.8862C27.3342 51.0877 23.1156 52.575 20.565 50.5873Z" fill="#7F6593"/>
</g>
<g style="mix-blend-mode:soft-light">
<path d="M20.149 50.1772C19.8571 49.9687 19.9475 47.0012 23.0193 44.9162C24.312 44.0405 28.878 44.7911 28.7737 44.9023C28.6695 45.0135 20.4409 50.3857 20.149 50.1772Z" fill="white"/>
</g>
<path d="M78.1593 19.3271C77.513 21.0854 77.3601 21.4121 77.1168 21.8082C75.7894 23.9835 72.0643 26.2492 72.0643 26.2492L70.9106 22.8993L78.1593 19.3271Z" fill="url(#paint23_linear_327_2644)"/>
<path d="M72.1755 15.3171C76.1299 15.2337 78.4233 18.8476 78.1662 19.3272C76.1716 22.9758 70.9175 22.8994 70.9175 22.8994C70.9175 22.8994 67.5469 19.216 67.7484 18.0484C67.9291 17.0198 72.1755 15.3102 72.1755 15.3102V15.3171Z" fill="url(#paint24_linear_327_2644)"/>
<g style="mix-blend-mode:multiply" opacity="0.3">
<path d="M77.6935 19.6538C78.0341 19.0283 68.1445 17.8955 67.8596 18.3125C67.5746 18.7295 70.0488 22.6492 71.2997 22.7882C71.6959 22.8299 76.1576 22.5032 77.6935 19.6538Z" fill="#7F6593"/>
</g>
<g style="mix-blend-mode:soft-light">
<path d="M77.9099 19.1114C78.0976 18.7987 76.8118 16.123 73.1701 15.4489C71.6342 15.1639 67.7562 17.6937 67.8952 17.7493C68.0342 17.8049 77.7292 19.4242 77.9099 19.1114Z" fill="white"/>
</g>
<path d="M12.003 19.327C12.6494 21.0853 12.8023 21.412 13.0455 21.8081C14.3729 23.9834 17.7297 25.9224 17.7297 25.9224L19.2447 22.8992L11.9961 19.327H12.003Z" fill="url(#paint25_linear_327_2644)"/>
<path d="M17.9937 15.317C14.0392 15.2336 11.7458 18.8475 12.003 19.327C13.9976 22.9757 19.2516 22.8992 19.2516 22.8992C19.2516 22.8992 22.6223 19.2159 22.4207 18.0483C22.24 17.0197 17.9937 15.3101 17.9937 15.3101V15.317Z" fill="url(#paint26_linear_327_2644)"/>
<g style="mix-blend-mode:multiply" opacity="0.3">
<path d="M12.4686 19.6537C12.128 19.0282 22.0176 17.8954 22.3025 18.3124C22.5875 18.7294 20.1133 22.6491 18.8624 22.7881C18.4662 22.8298 14.0045 22.5031 12.4686 19.6537Z" fill="#7F6593"/>
</g>
<g style="mix-blend-mode:soft-light">
<path d="M12.254 19.1114C12.0664 18.7987 13.3521 16.123 16.9938 15.4489C18.5297 15.1639 22.4077 17.6937 22.2687 17.7493C22.1297 17.8049 12.4347 19.4242 12.254 19.1114Z" fill="white"/>
</g>
<path d="M36.8131 43.9086C36.5351 43.9086 36.3127 43.8391 36.1459 43.7001C35.1521 42.9009 35.8193 39.6067 36.7228 35.7148C36.9104 34.9086 37.105 34.0747 37.1189 33.8384C36.9591 33.5882 36.0486 32.8376 35.2425 32.1704C32.4695 29.87 30.3706 28.0214 30.6208 26.826C30.8293 25.8252 33.0602 25.443 37.6679 25.0121C38.6896 24.9148 39.8432 24.8036 40.1212 24.7133C40.2672 24.5048 40.6286 23.6013 40.9482 22.8021C42.366 19.2646 43.6448 16.3387 45 16.3387C45.1459 16.3387 45.2919 16.3804 45.4448 16.4569L45.4865 16.4777C46.6818 17.1588 48.1691 20.5364 49.4687 23.6499C49.6703 24.1295 49.8718 24.6229 49.9621 24.7967C50.254 24.887 51.3174 24.9704 52.2556 25.0399C55.7652 25.304 58.7258 25.6167 59.3374 26.7287C59.3861 26.8121 59.4139 26.9094 59.4208 27.0206C59.4764 27.8476 58.0448 29.1055 55.6818 31.0654C54.556 32.0036 53.0131 33.2824 52.9367 33.6577C52.9228 33.9148 53.1591 34.9781 53.3884 36.0067C54.2085 39.6762 54.8131 42.7897 53.9235 43.6793C53.7706 43.8322 53.5552 43.9086 53.2842 43.9086C52.0888 43.9086 49.5174 42.4005 46.7583 40.7187C46.0147 40.2669 45.2432 39.7943 44.9861 39.6831C44.7428 39.7943 44.0409 40.2391 43.3529 40.67C40.6842 42.3588 38.1753 43.8808 36.8618 43.9017H36.827L36.8131 43.9086Z" fill="url(#paint27_linear_327_2644)"/>
<path d="M58.6433 26.8674C58.7337 28.1462 52.4163 32.2466 52.3468 33.2543C52.2773 34.2342 54.5568 41.601 53.4032 42.7547C52.4649 43.6929 45.4873 38.8003 44.9661 38.7725C44.5213 38.7725 38.9893 42.8451 37.0781 42.8798C36.8835 42.8798 36.7306 42.8451 36.6194 42.7547C35.3893 41.7678 37.773 34.0396 37.6827 33.3933C37.5993 32.747 31.0248 28.3617 31.3653 26.7423C31.6433 25.401 39.9622 25.2829 40.4626 24.9007C40.963 24.5115 43.2703 16.8458 44.9869 16.8458C45.0773 16.8458 45.1815 16.8736 45.2788 16.9362C46.7939 17.7979 49.2541 24.5393 49.5391 24.9493C49.8518 25.3941 57.7468 25.1995 58.5947 26.7423C58.6155 26.7771 58.6294 26.8257 58.6294 26.8674H58.6433Z" fill="url(#paint28_linear_327_2644)"/>
<g style="mix-blend-mode:multiply" opacity="0.5">
<path d="M44.98 30.7176L37.6827 33.3933C37.5993 32.7469 31.0248 28.3616 31.3653 26.7423L44.973 30.7176H44.98Z" fill="#7E527C"/>
</g>
<g style="mix-blend-mode:multiply" opacity="0.5">
<path d="M49.553 24.9493L44.98 30.7176V16.8458L45.2858 16.9362C46.8008 17.7979 49.2611 24.5393 49.546 24.9493H49.553Z" fill="#7E527C"/>
</g>
<g style="mix-blend-mode:multiply" opacity="0.5">
<path d="M58.6434 26.8674C58.7338 28.1462 52.4164 32.2466 52.3469 33.2543L44.9731 30.7176L58.6017 26.7423L58.6365 26.8674H58.6434Z" fill="#7E527C"/>
</g>
<g style="mix-blend-mode:multiply" opacity="0.5">
<path d="M53.4102 42.7548C52.472 43.6931 45.4944 38.8004 44.9731 38.7726L44.987 30.7178L53.4172 42.7548H53.4102Z" fill="#7E527C"/>
</g>
<g style="mix-blend-mode:multiply" opacity="0.5">
<path d="M44.9796 30.7178V38.7726H44.9727C44.5279 38.7726 38.9959 42.8452 37.0847 42.8799L36.626 42.7548L44.9866 30.7178H44.9796Z" fill="#7E527C"/>
</g>
<g style="mix-blend-mode:soft-light">
<path d="M44.9798 30.7177L31.3721 26.7425C31.6501 25.4011 39.969 25.283 40.4694 24.9008L44.9798 30.7177Z" fill="white"/>
</g>
<path style="mix-blend-mode:multiply" opacity="0.5" d="M31.3643 26.7426C29.0778 27.4168 35.3883 39.6415 36.5141 39.0438C37.633 38.4461 44.0686 32.0592 44.979 30.7179C44.979 30.7179 32.8794 26.2978 31.3713 26.7426H31.3643Z" fill="url(#paint29_linear_327_2644)"/>
<path style="mix-blend-mode:multiply" opacity="0.5" d="M58.6142 26.7426C60.9007 27.4168 54.5902 39.6415 53.4644 39.0438C52.3455 38.4461 45.9099 32.0592 44.9995 30.7179C44.9995 30.7179 57.0991 26.2978 58.6072 26.7426H58.6142Z" fill="url(#paint30_linear_327_2644)"/>
<path style="mix-blend-mode:multiply" opacity="0.5" d="M44.9798 30.7176C42.8879 33.6712 36.6191 42.0458 36.6191 42.7546C36.6191 43.7554 53.0832 43.8666 53.4099 42.7546C53.7296 41.6427 45.3759 30.1685 44.9798 30.7176Z" fill="url(#paint31_linear_327_2644)"/>
<path style="mix-blend-mode:multiply" opacity="0.5" d="M41.5736 35.409C42.8037 37.3272 45.4377 37.5635 45.8686 37.6121C46.2925 37.6608 48.5373 36.4515 49.2879 33.7897C50.0384 31.1279 48.7597 29.0499 47.7728 28.6052C46.7859 28.1604 41.0106 30.9611 40.9689 32.4554C40.9272 33.9496 41.2539 34.9086 41.5736 35.416V35.409Z" fill="url(#paint32_linear_327_2644)"/>
<path d="M48.3563 28.6747C50.0243 31.4754 48.0922 34.45 45.4791 34.9156C42.866 35.3812 39.8359 32.9558 40.8297 29.5642C41.8304 26.1797 46.8899 26.2144 48.3563 28.6747Z" fill="url(#paint33_linear_327_2644)"/>
<path d="M45.4785 34.9157C47.4522 34.5682 49.0298 32.7821 48.9742 30.725C48.6962 33.074 46.9796 35.1242 43.5603 34.318C43.1433 34.2207 40.8291 33.1435 40.6345 30.718C40.5372 33.484 43.1642 35.3257 45.4715 34.9157H45.4785Z" fill="url(#paint34_linear_327_2644)"/>
<path style="mix-blend-mode:color-dodge" opacity="0.5" d="M40.9741 29.1681C41.1201 29.5155 42.934 27.7433 42.6977 27.375C41.954 27.7433 41.3286 28.3341 40.9741 29.1681Z" fill="url(#paint35_linear_327_2644)"/>
<path d="M41.5633 29.4322C40.4236 31.7881 44.0166 36.6461 47.2761 32.9557C50.89 28.8692 44.0305 24.3449 41.5633 29.4322Z" fill="url(#paint36_linear_327_2644)"/>
<path d="M42.5014 29.4112C41.7995 30.822 42.3207 32.2606 43.6064 33.1363C45.0798 34.144 46.8937 32.9486 47.5192 31.7116C48.4157 29.9394 46.713 28.1116 45.6566 27.8058C44.6003 27.5069 43.0088 28.3965 42.5084 29.4042L42.5014 29.4112Z" fill="url(#paint37_linear_327_2644)"/>
<g style="mix-blend-mode:multiply" opacity="0.4">
<path d="M42.2529 30.6552C42.2042 30.8776 42.2529 32.1216 43.198 32.761C44.1432 33.4073 44.8104 33.5185 44.8799 33.4073C44.9494 33.303 44.9494 32.4413 44.9077 32.3996C44.866 32.3579 44.1293 31.9965 43.7749 31.51C43.4204 31.0235 43.2953 30.8498 43.198 30.8428C43.0938 30.8359 42.2946 30.5023 42.2598 30.6552H42.2529Z" fill="#B82774"/>
</g>
<g style="mix-blend-mode:soft-light">
<path d="M43.3855 30.7873C43.2534 31.3571 44.8936 32.4274 45.0395 32.4066C45.7415 32.3093 46.5963 30.7456 46.6102 30.2382C46.6171 29.8977 45.3036 28.7927 44.8797 28.9247C44.4558 29.0568 43.4828 30.3425 43.3785 30.7873H43.3855Z" fill="white"/>
</g>
<g style="mix-blend-mode:multiply" opacity="0.8">
<path d="M45.0385 32.4066C44.8439 32.49 44.9134 33.3726 44.9829 33.3865C45.7266 33.4768 46.491 33.0598 47.2347 32.0938C47.8393 31.3085 47.7906 30.2521 47.5266 29.9255C47.4293 29.8073 46.6161 30.1062 46.6161 30.2452C46.5953 31.0931 45.6849 32.1425 45.0455 32.4135L45.0385 32.4066Z" fill="#B82774"/>
</g>
<path opacity="0.75" d="M42.2032 30.4606C42.1962 30.5927 43.1692 30.9124 43.2456 30.829C43.3638 30.6969 44.8371 28.9595 44.8441 28.8552C44.851 28.6815 44.8997 27.8406 44.6495 27.8267C44.5661 27.8267 43.5028 28.1394 42.8564 28.9108C42.2171 29.6823 42.2171 30.2938 42.2032 30.4606Z" fill="white"/>
<path d="M42.5015 29.4113C42.5015 29.4113 42.9602 28.6329 43.7594 28.1881C43.7594 28.1881 44.1903 28.3202 43.8567 28.8692C43.5231 29.4182 42.5015 29.4113 42.5015 29.4113Z" fill="white"/>
<path d="M44.5447 32.1426C44.5169 32.1913 44.8297 32.8028 44.9131 32.7889C44.9964 32.775 45.33 32.2886 45.2883 32.2955C45.2466 32.3025 44.6073 32.0384 44.5447 32.1496V32.1426Z" fill="white"/>
<path d="M46.478 29.9602C46.3529 30.1131 46.4641 30.6552 46.5336 30.6691C46.6031 30.69 46.9298 30.0784 46.8881 30.0367C46.8464 30.0019 46.5892 29.8143 46.4711 29.9602H46.478Z" fill="white"/>
<path d="M43.8086 34.1093C43.8086 34.1093 45.5877 34.6514 47.2765 32.9487C48.8264 31.385 48.187 29.6475 48.1175 29.4738C48.1175 29.4738 49.2642 31.5309 47.2557 33.4073C45.5252 35.0197 43.8086 34.1023 43.8086 34.1023V34.1093Z" fill="#FFD2FF"/>
<path style="mix-blend-mode:multiply" opacity="0.5" d="M43.1968 33.7896C42.2377 32.5665 41.0145 30.0645 42.6825 28.334C44.3504 26.6035 46.8732 28.2367 47.6099 28.5703C47.6099 28.5703 46.0392 25.8252 42.8145 27.3402C41.5844 27.917 41.2647 28.7927 41.362 30.7595C41.4593 32.5665 43.1968 33.7896 43.1968 33.7896Z" fill="url(#paint38_linear_327_2644)"/>
<g style="mix-blend-mode:multiply" opacity="0.5">
<path d="M21.8223 13.7951C23.5597 20.1751 26.0269 15.1503 25.5265 13.3573L21.8223 13.7951Z" fill="#6E5066"/>
</g>
<path d="M25.5196 13.3573C25.596 14.5944 24.6925 15.206 23.6709 15.206C22.6493 15.206 21.8223 14.3789 21.8223 13.3573C21.8223 12.3357 22.4547 11.5087 23.6709 11.5087C24.6925 11.5087 25.457 12.3357 25.5196 13.3573Z" fill="#63495F"/>
<path d="M22.0447 13.3573C22.7188 13.7396 25.2972 13.3782 25.2763 12.9473C25.2555 12.5164 24.2408 11.4531 23.1636 11.6755C22.1837 11.877 21.6208 13.1141 22.0447 13.3573Z" fill="white"/>
<g style="mix-blend-mode:soft-light">
<path d="M22.3927 14.5525C23.5116 15.3586 24.8668 15.1432 25.4159 13.9548C25.8468 13.0305 21.4892 13.8992 22.3927 14.5525Z" fill="white"/>
</g>
<g style="mix-blend-mode:multiply" opacity="0.5">
<path d="M64.3271 13.7186C66.0646 20.0985 68.5318 15.0738 68.0314 13.2808L64.3271 13.7186Z" fill="#6E5066"/>
</g>
<path d="M68.0313 13.2808C68.1077 14.5178 67.2043 15.1294 66.1826 15.1294C65.161 15.1294 64.334 14.3024 64.334 13.2808C64.334 12.2592 64.9664 11.4321 66.1826 11.4321C67.2043 11.4321 67.9687 12.2661 68.0313 13.2808Z" fill="#63495F"/>
<path d="M64.5559 13.2807C65.2301 13.6629 67.8084 13.3015 67.7876 12.8706C67.7667 12.4398 66.7521 11.3764 65.6748 11.5988C64.6949 11.8004 64.132 13.0374 64.5559 13.2807Z" fill="white"/>
<g style="mix-blend-mode:soft-light">
<path d="M64.9035 14.4761C66.0224 15.2822 67.3776 15.0668 67.9266 13.8784C68.3575 12.954 64 13.8228 64.9035 14.4761Z" fill="white"/>
</g>
<g style="mix-blend-mode:multiply" opacity="0.5">
<path d="M42.7676 3.62058C44.505 10.0005 46.9722 4.97579 46.4718 3.18274L42.7676 3.62058Z" fill="#6E5066"/>
</g>
<path d="M46.4717 3.18276C46.5482 4.41982 45.6447 5.0314 44.6231 5.0314C43.6014 5.0314 42.7744 4.20438 42.7744 3.18276C42.7744 2.16113 43.4068 1.33411 44.6231 1.33411C45.6447 1.33411 46.4092 2.16113 46.4717 3.18276Z" fill="#63495F"/>
<path d="M42.9968 3.18279C43.671 3.56503 46.2493 3.20364 46.2285 2.77275C46.2076 2.34186 45.193 1.27854 44.1158 1.50093C43.1358 1.70248 42.5729 2.93954 42.9968 3.18279Z" fill="white"/>
<g style="mix-blend-mode:soft-light">
<path d="M43.3439 4.37803C44.4628 5.18421 45.818 4.96877 46.3671 3.78035C46.7979 2.85602 42.4404 3.72475 43.3439 4.37803Z" fill="white"/>
</g>
<g style="mix-blend-mode:multiply" opacity="0.5">
<path d="M42.7676 59.5874C44.505 65.9673 46.9722 60.9426 46.4718 59.1495L42.7676 59.5874Z" fill="#6E5066"/>
</g>
<path d="M46.4717 59.1496C46.5482 60.3866 45.6447 60.9982 44.6231 60.9982C43.6014 60.9982 42.7744 60.1712 42.7744 59.1496C42.7744 58.1279 43.4068 57.3009 44.6231 57.3009C45.6447 57.3009 46.4092 58.1279 46.4717 59.1496Z" fill="#63495F"/>
<path d="M42.9968 59.1496C43.671 59.5318 46.2493 59.1704 46.2285 58.7395C46.2076 58.3087 45.193 57.2453 44.1158 57.4677C43.1358 57.6693 42.5729 58.9063 42.9968 59.1496Z" fill="white"/>
<g style="mix-blend-mode:soft-light">
<path d="M43.3439 60.352C44.4628 61.1582 45.818 60.9428 46.3671 59.7543C46.7979 58.83 42.4404 59.6987 43.3439 60.352Z" fill="white"/>
</g>
</g>
<defs>
<linearGradient id="paint0_linear_327_2644" x1="14.2615" y1="0.291748" x2="14.2615" y2="36.9311" gradientUnits="userSpaceOnUse">
<stop stop-color="#D2CDDE"/>
<stop offset="0.15" stop-color="#CEC9DB"/>
<stop offset="0.28" stop-color="#C3BED2"/>
<stop offset="0.4" stop-color="#B1ACC5"/>
<stop offset="0.53" stop-color="#9992B1"/>
<stop offset="0.63" stop-color="#7C759B"/>
<stop offset="0.7" stop-color="#9D95AE"/>
<stop offset="1" stop-color="#D4E7EA"/>
</linearGradient>
<linearGradient id="paint1_linear_327_2644" x1="1.98785" y1="9.24304" x2="10.6404" y2="9.24304" gradientUnits="userSpaceOnUse">
<stop stop-color="#8680E8"/>
<stop offset="1" stop-color="#3B80F4"/>
</linearGradient>
<linearGradient id="paint2_linear_327_2644" x1="3.15592" y1="20.7797" x2="9.20225" y2="20.7797" gradientUnits="userSpaceOnUse">
<stop stop-color="#8680E8"/>
<stop offset="1" stop-color="#3B80F4"/>
</linearGradient>
<linearGradient id="paint3_linear_327_2644" x1="8.24975" y1="32.4068" x2="20.3633" y2="32.4068" gradientUnits="userSpaceOnUse">
<stop stop-color="#8680E8"/>
<stop offset="1" stop-color="#3B80F4"/>
</linearGradient>
<linearGradient id="paint4_linear_327_2644" x1="20.1969" y1="36.9312" x2="20.1969" y2="14.6918" gradientUnits="userSpaceOnUse">
<stop stop-color="#2743B8"/>
<stop offset="1" stop-color="#CBC2E5"/>
</linearGradient>
<linearGradient id="paint5_linear_327_2644" x1="75.7381" y1="0.250057" x2="75.7381" y2="0.250057" gradientUnits="userSpaceOnUse">
<stop stop-color="#D2CDDE"/>
<stop offset="0.15" stop-color="#CEC9DB"/>
<stop offset="0.28" stop-color="#C3BED2"/>
<stop offset="0.4" stop-color="#B1ACC5"/>
<stop offset="0.53" stop-color="#9992B1"/>
<stop offset="0.63" stop-color="#7C759B"/>
<stop offset="0.7" stop-color="#9D95AE"/>
<stop offset="1" stop-color="#D4E7EA"/>
</linearGradient>
<linearGradient id="paint6_linear_327_2644" x1="79.3578" y1="0.250115" x2="88.0103" y2="0.250115" gradientUnits="userSpaceOnUse">
<stop stop-color="#8680E8"/>
<stop offset="1" stop-color="#3B80F4"/>
</linearGradient>
<linearGradient id="paint7_linear_327_2644" x1="80.7975" y1="20.7797" x2="86.8438" y2="20.7797" gradientUnits="userSpaceOnUse">
<stop stop-color="#8680E8"/>
<stop offset="1" stop-color="#3B80F4"/>
</linearGradient>
<linearGradient id="paint8_linear_327_2644" x1="70.2753" y1="32.5528" x2="81.7494" y2="32.5528" gradientUnits="userSpaceOnUse">
<stop stop-color="#8680E8"/>
<stop offset="1" stop-color="#3B80F4"/>
</linearGradient>
<linearGradient id="paint9_linear_327_2644" x1="69.8029" y1="0.250083" x2="69.8029" y2="0.250083" gradientUnits="userSpaceOnUse">
<stop stop-color="#2743B8"/>
<stop offset="1" stop-color="#CBC2E5"/>
</linearGradient>
<linearGradient id="paint10_linear_327_2644" x1="45.0013" y1="67.9411" x2="45.0013" y2="14.8515" gradientUnits="userSpaceOnUse">
<stop stop-color="#728EE3"/>
<stop offset="0.3" stop-color="#836888"/>
<stop offset="1" stop-color="#6D636A"/>
</linearGradient>
<linearGradient id="paint11_linear_327_2644" x1="65.0658" y1="32.1427" x2="72.8635" y2="32.1427" gradientUnits="userSpaceOnUse">
<stop stop-color="#8680E8"/>
<stop offset="1" stop-color="#3B80F4"/>
</linearGradient>
<linearGradient id="paint12_linear_327_2644" x1="17.1396" y1="32.5388" x2="25.4308" y2="32.5388" gradientUnits="userSpaceOnUse">
<stop stop-color="#8680E8"/>
<stop offset="1" stop-color="#3B80F4"/>
</linearGradient>
<linearGradient id="paint13_linear_327_2644" x1="45.0716" y1="57.009" x2="45.0716" y2="5.27466" gradientUnits="userSpaceOnUse">
<stop stop-color="#728EE3"/>
<stop offset="0.3" stop-color="#624A66"/>
<stop offset="1" stop-color="#6D636A"/>
</linearGradient>
<linearGradient id="paint14_linear_327_2644" x1="45.0699" y1="8.1659" x2="45.0699" y2="55.0354" gradientUnits="userSpaceOnUse">
<stop stop-color="#D23FDA"/>
<stop offset="0.82" stop-color="#781297"/>
<stop offset="1" stop-color="#3E4CE6"/>
</linearGradient>
<linearGradient id="paint15_linear_327_2644" x1="55.8425" y1="56.7239" x2="55.8425" y2="17.4714" gradientUnits="userSpaceOnUse">
<stop stop-color="#D2CDDE"/>
<stop offset="0.54" stop-color="#7C759B"/>
<stop offset="1" stop-color="#D4E7EA"/>
</linearGradient>
<linearGradient id="paint16_linear_327_2644" x1="45.0705" y1="62.5758" x2="45.0705" y2="0.249893" gradientUnits="userSpaceOnUse">
<stop stop-color="#D2CDDE"/>
<stop offset="0.15" stop-color="#CEC9DB"/>
<stop offset="0.28" stop-color="#C3BED2"/>
<stop offset="0.4" stop-color="#B1ACC5"/>
<stop offset="0.53" stop-color="#9992B1"/>
<stop offset="0.63" stop-color="#7C759B"/>
<stop offset="0.7" stop-color="#9D95AE"/>
<stop offset="1" stop-color="#D4E7EA"/>
</linearGradient>
<linearGradient id="paint17_linear_327_2644" x1="45.0699" y1="55.0351" x2="45.0699" y2="10.6398" gradientUnits="userSpaceOnUse">
<stop stop-color="#AE64C9"/>
<stop offset="1" stop-color="#8E98E5"/>
</linearGradient>
<linearGradient id="paint18_linear_327_2644" x1="45.0721" y1="5.99756" x2="45.0721" y2="23.2539" gradientUnits="userSpaceOnUse">
<stop stop-color="#2743B8"/>
<stop offset="1" stop-color="#CBC2E5"/>
</linearGradient>
<linearGradient id="paint19_linear_327_2644" x1="65.5792" y1="54.1875" x2="65.5792" y2="50.4763" gradientUnits="userSpaceOnUse">
<stop stop-color="#5D4877"/>
<stop offset="1" stop-color="#40314B"/>
</linearGradient>
<linearGradient id="paint20_linear_327_2644" x1="65.3992" y1="44.3988" x2="65.3971" y2="51.7136" gradientUnits="userSpaceOnUse">
<stop stop-color="#D2CDDE"/>
<stop offset="1" stop-color="#7C759B"/>
</linearGradient>
<linearGradient id="paint21_linear_327_2644" x1="24.3877" y1="0.249907" x2="24.3877" y2="0.249907" gradientUnits="userSpaceOnUse">
<stop stop-color="#5D4877"/>
<stop offset="1" stop-color="#40314B"/>
</linearGradient>
<linearGradient id="paint22_linear_327_2644" x1="24.5116" y1="44.4312" x2="24.509" y2="51.751" gradientUnits="userSpaceOnUse">
<stop stop-color="#D2CDDE"/>
<stop offset="1" stop-color="#7C759B"/>
</linearGradient>
<linearGradient id="paint23_linear_327_2644" x1="72.3451" y1="26.3768" x2="75.7288" y2="18.3153" gradientUnits="userSpaceOnUse">
<stop stop-color="#728EE3"/>
<stop offset="1" stop-color="#836888"/>
</linearGradient>
<linearGradient id="paint24_linear_327_2644" x1="72.9412" y1="15.3137" x2="72.9432" y2="22.9045" gradientUnits="userSpaceOnUse">
<stop stop-color="#D2CDDE"/>
<stop offset="1" stop-color="#7C759B"/>
</linearGradient>
<linearGradient id="paint25_linear_327_2644" x1="17.6887" y1="26.061" x2="14.4771" y2="18.4096" gradientUnits="userSpaceOnUse">
<stop stop-color="#728EE3"/>
<stop offset="1" stop-color="#836888"/>
</linearGradient>
<linearGradient id="paint26_linear_327_2644" x1="17.2646" y1="15.408" x2="17.2625" y2="22.9989" gradientUnits="userSpaceOnUse">
<stop stop-color="#D2CDDE"/>
<stop offset="1" stop-color="#7C759B"/>
</linearGradient>
<linearGradient id="paint27_linear_327_2644" x1="30.593" y1="30.1202" x2="59.4069" y2="30.1202" gradientUnits="userSpaceOnUse">
<stop stop-color="#6A6EA8"/>
<stop offset="1" stop-color="#624A66"/>
</linearGradient>
<linearGradient id="paint28_linear_327_2644" x1="45.0008" y1="16.8458" x2="45.0008" y2="42.8729" gradientUnits="userSpaceOnUse">
<stop stop-color="#D2CDDE"/>
<stop offset="0.82" stop-color="#7C759B"/>
<stop offset="1" stop-color="#D4E7EA"/>
</linearGradient>
<linearGradient id="paint29_linear_327_2644" x1="30.8709" y1="32.8863" x2="44.979" y2="32.8863" gradientUnits="userSpaceOnUse">
<stop stop-color="#8680E8"/>
<stop offset="1" stop-color="#3B80F4"/>
</linearGradient>
<linearGradient id="paint30_linear_327_2644" x1="44.9995" y1="32.8863" x2="59.1076" y2="32.8863" gradientUnits="userSpaceOnUse">
<stop stop-color="#8680E8"/>
<stop offset="1" stop-color="#3B80F4"/>
</linearGradient>
<linearGradient id="paint31_linear_327_2644" x1="36.6191" y1="37.1183" x2="53.4168" y2="37.1183" gradientUnits="userSpaceOnUse">
<stop stop-color="#8680E8"/>
<stop offset="1" stop-color="#3B80F4"/>
</linearGradient>
<linearGradient id="paint32_linear_327_2644" x1="49.5103" y1="33.0878" x2="40.962" y2="33.0878" gradientUnits="userSpaceOnUse">
<stop stop-color="#8680E8"/>
<stop offset="1" stop-color="#3B80F4"/>
</linearGradient>
<linearGradient id="paint33_linear_327_2644" x1="44.805" y1="34.992" x2="44.805" y2="27.3959" gradientUnits="userSpaceOnUse">
<stop stop-color="#D2CDDE"/>
<stop offset="0.15" stop-color="#CEC9DB"/>
<stop offset="0.28" stop-color="#C3BED2"/>
<stop offset="0.4" stop-color="#B1ACC5"/>
<stop offset="0.53" stop-color="#9992B1"/>
<stop offset="0.63" stop-color="#7C759B"/>
<stop offset="0.7" stop-color="#9D95AE"/>
<stop offset="1" stop-color="#D4E7EA"/>
</linearGradient>
<linearGradient id="paint34_linear_327_2644" x1="48.9812" y1="32.8447" x2="40.6345" y2="32.8447" gradientUnits="userSpaceOnUse">
<stop stop-color="#728EE3"/>
<stop offset="0.3" stop-color="#836888"/>
<stop offset="1" stop-color="#6D636A"/>
</linearGradient>
<linearGradient id="paint35_linear_327_2644" x1="42.7185" y1="28.2924" x2="40.9741" y2="28.2924" gradientUnits="userSpaceOnUse">
<stop stop-color="#EBBD38"/>
<stop offset="1" stop-color="#FFF29E"/>
</linearGradient>
<linearGradient id="paint36_linear_327_2644" x1="48.3047" y1="30.7318" x2="41.3479" y2="30.7318" gradientUnits="userSpaceOnUse">
<stop stop-color="#6A6EA8"/>
<stop offset="1" stop-color="#624A66"/>
</linearGradient>
<linearGradient id="paint37_linear_327_2644" x1="46.8544" y1="32.5801" x2="43.0017" y2="28.7273" gradientUnits="userSpaceOnUse">
<stop stop-color="#7600DE"/>
<stop offset="1" stop-color="#DE00FF"/>
</linearGradient>
<linearGradient id="paint38_linear_327_2644" x1="41.3481" y1="30.3356" x2="47.6099" y2="30.3356" gradientUnits="userSpaceOnUse">
<stop stop-color="#8680E8"/>
<stop offset="1" stop-color="#3B80F4"/>
</linearGradient>
<clipPath id="clip0_327_2644">
<rect width="90" height="67.6911" fill="white" transform="translate(0 0.25)"/>
</clipPath>
</defs>
</svg>
